<?xml version="1.0" encoding="UTF-8" standalone="no"?>
<!-- Created with Inkscape (http://www.inkscape.org/) -->

<svg
   version="1.1"
   id="svg1"
   width="424.12933"
   height="489.24933"
   viewBox="0 0 424.12933 489.24933"
   sodipodi:docname="dlml_m.pdf"
   inkscape:export-filename="/home/tim/Programs/pysofft/docs/images/dlml_m_white.svg"
   inkscape:export-xdpi="96"
   inkscape:export-ydpi="96"
   xmlns:inkscape="http://www.inkscape.org/namespaces/inkscape"
   xmlns:sodipodi="http://sodipodi.sourceforge.net/DTD/sodipodi-0.dtd"
   xmlns="http://www.w3.org/2000/svg"
   xmlns:svg="http://www.w3.org/2000/svg">
  <defs
     id="defs1" />
  <sodipodi:namedview
     id="namedview1"
     pagecolor="#ffffff"
     bordercolor="#000000"
     borderopacity="0.25"
     inkscape:showpageshadow="2"
     inkscape:pageopacity="0.0"
     inkscape:pagecheckerboard="0"
     inkscape:deskcolor="#d1d1d1">
    <inkscape:page
       x="0"
       y="0"
       inkscape:label="1"
       id="page1"
       width="424.12933"
       height="489.24933"
       margin="0"
       bleed="0" />
  </sodipodi:namedview>
  <g
     id="g1"
     inkscape:groupmode="layer"
     inkscape:label="1">
    <path
       id="path1"
       d="m 17.275,28.3468 h -34.55 c -2.20094,0 -3.9851,-1.78416 -3.9851,-3.9851 v -48.7234 c 0,-2.20094 1.78416,-3.9851 3.9851,-3.9851 h 34.55 c 2.20094,0 3.9851,1.78416 3.9851,3.9851 v 48.7234 c 0,2.20094 -1.78416,3.9851 -3.9851,3.9851 z"
       style="fill:none;stroke:#ffffff;stroke-width:1.99255;stroke-linecap:butt;stroke-linejoin:miter;stroke-miterlimit:10;stroke-dasharray:2.98883, 2.98883;stroke-dashoffset:0;stroke-opacity:1"
       transform="matrix(1.3333333,0,0,-1.3333333,29.674667,389.84133)" />
    <path
       id="path2"
       d="m 73.96861,85.04044 h -34.55 c -2.20094,0 -3.98511,-1.78417 -3.98511,-3.98511 V -24.36171 c 0,-2.20094 1.78417,-3.98511 3.98511,-3.98511 h 34.55 c 2.20095,0 3.98511,1.78417 3.98511,3.98511 V 81.05533 c 0,2.20094 -1.78416,3.98511 -3.98511,3.98511 z"
       style="fill:none;stroke:#ffffff;stroke-width:1.99255;stroke-linecap:butt;stroke-linejoin:miter;stroke-miterlimit:10;stroke-dasharray:2.98883, 2.98883;stroke-dashoffset:0;stroke-opacity:1"
       transform="matrix(1.3333333,0,0,-1.3333333,29.674667,389.84133)" />
    <path
       id="path3"
       d="m 0,-29.34308 c 0,-44.2176 56.69362,-44.21762 56.69362,-1.99257"
       style="fill:none;stroke:#ffffff;stroke-width:1.99255;stroke-linecap:butt;stroke-linejoin:miter;stroke-miterlimit:10;stroke-dasharray:2.98883, 2.98883;stroke-dashoffset:0;stroke-opacity:1"
       transform="matrix(1.3333333,0,0,-1.3333333,29.674667,389.84133)" />
    <path
       id="path4"
       d="M -3.9851,5.27061 C -3.25705,2.1082 -1.63463,0.6149 0,0 -1.63463,-0.6149 -3.25705,-2.1082 -3.9851,-5.27061"
       style="fill:#ffffff;stroke:#ffffff;stroke-width:1.99255;stroke-linecap:round;stroke-linejoin:round;stroke-miterlimit:10;stroke-dasharray:none;stroke-opacity:1"
       transform="matrix(0,-1.3333333,-1.3333333,0,105.26616,430.29383)" />
    <path
       id="path5"
       d="m 56.69362,-29.3431 c 0,-44.2176 56.69362,-44.2176 56.69362,-1.99255"
       style="fill:none;stroke:#ffffff;stroke-width:1.99255;stroke-linecap:butt;stroke-linejoin:miter;stroke-miterlimit:10;stroke-dasharray:2.98883, 2.98883;stroke-dashoffset:0;stroke-opacity:1"
       transform="matrix(1.3333333,0,0,-1.3333333,29.674667,389.84133)" />
    <path
       id="path6"
       d="M -3.9851,5.27061 C -3.25705,2.1082 -1.63463,0.6149 0,0 -1.63463,-0.6149 -3.25705,-2.1082 -3.9851,-5.27061"
       style="fill:#ffffff;stroke:#ffffff;stroke-width:1.99255;stroke-linecap:round;stroke-linejoin:round;stroke-miterlimit:10;stroke-dasharray:none;stroke-opacity:1"
       transform="matrix(0,-1.3333333,-1.3333333,0,180.85765,430.29383)" />
    <g
       id="g6"
       aria-label="0,0&#10;l,m"
       transform="matrix(1.3333333,0,0,1.3333333,18.374667,381.73867)"
       style="fill:#ffffff;stroke:#ffffff">
      <path
         id="path7"
         d="m 5.3557188,-3.8206016 c 0,-0.9960937 -0.058594,-1.96875 -0.4921875,-2.8710937 -0.4921875,-0.9960938 -1.3476563,-1.2539063 -1.9335938,-1.2539063 -0.6914062,0 -1.546875,0.3398438 -1.98046875,1.3359375 -0.33984375,0.75 -0.45703125,1.4882813 -0.45703125,2.7890625 0,1.1601563 0.0820313,2.0273438 0.515625,2.87109379 0.4570313,0.9140625 1.2890625,1.1953125 1.9101563,1.1953125 1.0429687,0 1.640625,-0.62109375 1.9804687,-1.31249999 0.4335938,-0.890625 0.4570313,-2.0625 0.4570313,-2.7539063 z m -2.4375,3.83203129 c -0.3867188,0 -1.1601563,-0.2109375 -1.3828125,-1.52343749 -0.140625,-0.7148438 -0.140625,-1.6171875 -0.140625,-2.4609375 0,-0.9726563 0,-1.8632813 0.1992187,-2.5664063 0.1992188,-0.796875 0.8085938,-1.171875 1.3242188,-1.171875 0.4570312,0 1.1484375,0.28125 1.3710937,1.3007813 0.1523438,0.6796875 0.1523438,1.6289062 0.1523438,2.4375 0,0.8085937 0,1.7109375 -0.1289063,2.4375 -0.2226562,1.32421874 -0.9726562,1.54687499 -1.3945312,1.54687499 z m 0,0"
         style="fill:#ffffff;fill-opacity:1;fill-rule:nonzero;stroke:#ffffff" />
      <path
         id="path8"
         d="m 8.1857969,0.04658594 c 0,-0.69140625 -0.2226563,-1.20703124 -0.7148438,-1.20703124 -0.3867187,0 -0.5742187,0.31640624 -0.5742187,0.57421874 0,0.2578125 0.1757812,0.5859374975 0.5859375,0.5859374975 0.1523437,0 0.28125,-0.0468749975 0.3867187,-0.1523437475 0.023437,-0.0234375 0.035156,-0.0234375 0.046875,-0.0234375 0.035156,0 0.035156,0.1640625 0.035156,0.22265625 0,0.3984375 -0.082031,1.17187496 -0.7734375,1.94531246 -0.1289063,0.1523438 -0.1289063,0.1757813 -0.1289063,0.1992188 0,0.058594 0.058594,0.1171875 0.1171875,0.1171875 0.09375,0 1.0195313,-0.890625 1.0195316,-2.26171876 z m 0,0"
         style="fill:#ffffff;fill-opacity:1;fill-rule:nonzero;stroke:#ffffff" />
      <path
         id="path9"
         d="m 16.456305,-3.8206016 c 0,-0.9960937 -0.05859,-1.96875 -0.492188,-2.8710937 -0.492187,-0.9960938 -1.347656,-1.2539063 -1.933594,-1.2539063 -0.691406,0 -1.546875,0.3398438 -1.980468,1.3359375 -0.339844,0.75 -0.457032,1.4882813 -0.457032,2.7890625 0,1.1601563 0.08203,2.0273438 0.515625,2.87109379 0.457032,0.9140625 1.289063,1.1953125 1.910157,1.1953125 1.042968,0 1.640625,-0.62109375 1.980468,-1.31249999 0.433594,-0.890625 0.457032,-2.0625 0.457032,-2.7539063 z m -2.4375,3.83203129 c -0.386719,0 -1.160157,-0.2109375 -1.382813,-1.52343749 -0.140625,-0.7148438 -0.140625,-1.6171875 -0.140625,-2.4609375 0,-0.9726563 0,-1.8632813 0.199219,-2.5664063 0.199219,-0.796875 0.808594,-1.171875 1.324219,-1.171875 0.457031,0 1.148437,0.28125 1.371093,1.3007813 0.152344,0.6796875 0.152344,1.6289062 0.152344,2.4375 0,0.8085937 0,1.7109375 -0.128906,2.4375 -0.222656,1.32421874 -0.972656,1.54687499 -1.394531,1.54687499 z m 0,0"
         style="fill:#ffffff;fill-opacity:1;fill-rule:nonzero;stroke:#ffffff" />
      <path
         id="path10"
         d="m 3.3400938,6.4860391 c 0.011719,-0.046875 0.035156,-0.1289063 0.035156,-0.1875 0,-0.1171875 -0.1171875,-0.1171875 -0.140625,-0.1171875 -0.011719,0 -0.4453125,0.035156 -0.65625,0.058594 -0.2109375,0.011719 -0.3867187,0.035156 -0.5976562,0.046875 -0.2929688,0.023437 -0.375,0.035156 -0.375,0.2578125 0,0.1171875 0.1171875,0.1171875 0.2460937,0.1171875 0.609375,0 0.609375,0.1054688 0.609375,0.2226563 0,0.046875 0,0.070312 -0.058594,0.2929687 L 0.9143125,13.107133 c -0.0351563,0.128906 -0.0585938,0.222656 -0.0585938,0.410156 0,0.597656 0.4453125,1.078125 1.0546875,1.078125 0.3867187,0 0.6562501,-0.257812 0.8437501,-0.632812 0.1992186,-0.398438 0.375,-1.148438 0.375,-1.195313 0,-0.05859 -0.046875,-0.105469 -0.1171875,-0.105469 -0.1171875,0 -0.1289064,0.05859 -0.1757814,0.234375 -0.2109375,0.832032 -0.421875,1.464844 -0.9023437,1.464844 -0.3632813,0 -0.3632813,-0.386719 -0.3632813,-0.550781 0,-0.04687 0,-0.304688 0.082031,-0.632813 z m 0,0"
         style="fill:#ffffff;fill-opacity:1;fill-rule:nonzero;stroke:#ffffff" />
      <path
         id="path11"
         d="m 5.5432188,14.361039 c 0,0.515625 -0.1054688,0.972656 -0.609375,1.464844 -0.023437,0.02344 -0.046875,0.03516 -0.046875,0.08203 0,0.05859 0.070312,0.105469 0.1289062,0.105469 0.09375,0 0.75,-0.621094 0.75,-1.558594 0,-0.515625 -0.1875,-0.855469 -0.5390625,-0.855469 -0.28125,0 -0.4335937,0.222657 -0.4335937,0.433594 0,0.222656 0.140625,0.445313 0.4453125,0.445313 0.1875,0 0.3046875,-0.117188 0.3046875,-0.117187 z m 0,0"
         style="fill:#ffffff;fill-opacity:1;fill-rule:nonzero;stroke:#ffffff" />
      <path
         id="path12"
         d="m 8.8684141,10.97432 c 0.023437,-0.07031 0.328125,-0.667968 0.7617187,-1.0546872 0.3164063,-0.28125 0.7265622,-0.46875 1.1835942,-0.46875 0.480468,0 0.644531,0.3515625 0.644531,0.8320312 0,0.07031 0,0.304688 -0.140625,0.867188 l -0.292969,1.230468 c -0.09375,0.363282 -0.328125,1.253907 -0.351562,1.382813 -0.04687,0.175781 -0.117188,0.492187 -0.117188,0.539062 0,0.164063 0.128906,0.292969 0.304688,0.292969 0.363281,0 0.421875,-0.269531 0.527343,-0.703125 l 0.726563,-2.859375 c 0.02344,-0.09375 0.644531,-1.5820312 1.957031,-1.5820312 0.480469,0 0.644531,0.3515625 0.644531,0.8320312 0,0.667969 -0.46875,1.96875 -0.726562,2.683594 -0.105469,0.292969 -0.175781,0.445312 -0.175781,0.667969 0,0.527343 0.375,0.960937 0.949218,0.960937 1.113282,0 1.535157,-1.757812 1.535157,-1.828125 0,-0.05859 -0.05859,-0.105469 -0.128907,-0.105469 -0.105468,0 -0.117187,0.03516 -0.175781,0.234375 -0.269531,0.960938 -0.714844,1.464844 -1.195312,1.464844 -0.117188,0 -0.304688,-0.01172 -0.304688,-0.398437 0,-0.304688 0.140625,-0.691407 0.1875,-0.820313 0.210938,-0.574219 0.75,-1.992187 0.75,-2.683594 0,-0.7148434 -0.421875,-1.2539059 -1.324219,-1.2539059 -0.796875,0 -1.453125,0.4570312 -1.921875,1.1601559 -0.03516,-0.6445309 -0.433593,-1.1601559 -1.335937,-1.1601559 -1.0546877,0 -1.6171877,0.75 -1.8398439,1.0546879 C 8.9738828,9.5797891 8.4816953,9.2047891 7.9660703,9.2047891 c -0.3515625,0 -0.6210937,0.1640625 -0.8554687,0.6210937 -0.2109375,0.4335942 -0.375,1.1601562 -0.375,1.2070312 0,0.04687 0.046875,0.105469 0.1289062,0.105469 0.09375,0 0.1054688,-0.01172 0.1757813,-0.28125 0.1757812,-0.703125 0.4101562,-1.4062502 0.890625,-1.4062502 0.2695312,0 0.3632812,0.1875 0.3632812,0.5390625 0,0.2695317 -0.1171875,0.7382817 -0.1992187,1.1015627 L 7.7551328,12.38057 c -0.046875,0.234375 -0.1757812,0.773438 -0.234375,0.984375 -0.082031,0.316407 -0.2109375,0.878907 -0.2109375,0.9375 0,0.164063 0.1289063,0.292969 0.3046875,0.292969 0.140625,0 0.3164063,-0.07031 0.4101563,-0.246094 0.023437,-0.05859 0.1289062,-0.480468 0.1875,-0.714843 l 0.2578125,-1.078125 z m 0,0"
         style="fill:#ffffff;fill-opacity:1;fill-rule:nonzero;stroke:#ffffff" />
    </g>
    <g
       id="g12"
       aria-label="1,0"
       transform="matrix(1.3333333,0,0,1.3333333,93.965333,393.428)"
       style="fill:#ffffff;stroke:#ffffff">
      <path
         id="path13"
         d="m 3.4449453,-7.6627969 c 0,-0.2695312 0,-0.28125 -0.2460937,-0.28125 -0.28125,0.3164063 -0.8789063,0.7617188 -2.109375,0.7617188 v 0.3515625 c 0.2695312,0 0.8671875,0 1.5234375,-0.3164063 v 6.22265628 c 0,0.43359375 -0.035156,0.57421875 -1.078125,0.57421875 h -0.375 v 0.3515625 c 0.3164062,-0.0234375 1.4765625,-0.0234375 1.875,-0.0234375 0.3984375,0 1.546875,0 1.8632812,0.0234375 v -0.3515625 H 4.5347891 c -1.0546875,0 -1.0898438,-0.140625 -1.0898438,-0.57421875 z m 0,0"
         style="fill:#ffffff;fill-opacity:1;fill-rule:nonzero;stroke:#ffffff" />
      <path
         id="path14"
         d="m 8.1851797,0.04814063 c 0,-0.69140625 -0.2226563,-1.20703123 -0.7148438,-1.20703123 -0.3867187,0 -0.5742187,0.31640623 -0.5742187,0.57421873 0,0.2578125 0.1757812,0.5859375 0.5859375,0.5859375 0.1523437,0 0.28125,-0.046875 0.3867187,-0.15234375 0.023437,-0.0234375 0.035156,-0.0234375 0.046875,-0.0234375 0.035156,0 0.035156,0.1640625 0.035156,0.22265625 0,0.3984375 -0.082031,1.17187497 -0.7734375,1.94531247 -0.1289063,0.1523438 -0.1289063,0.1757813 -0.1289063,0.1992188 0,0.058594 0.058594,0.1171875 0.1171875,0.1171875 0.09375,0 1.0195313,-0.890625 1.0195316,-2.26171877 z m 0,0"
         style="fill:#ffffff;fill-opacity:1;fill-rule:nonzero;stroke:#ffffff" />
      <path
         id="path15"
         d="m 16.455687,-3.8190469 c 0,-0.9960937 -0.05859,-1.96875 -0.492187,-2.8710937 -0.492188,-0.9960938 -1.347656,-1.2539063 -1.933594,-1.2539063 -0.691406,0 -1.546875,0.3398438 -1.980469,1.3359375 -0.339843,0.75 -0.457031,1.4882813 -0.457031,2.7890625 0,1.1601563 0.08203,2.0273438 0.515625,2.87109378 0.457031,0.9140625 1.289063,1.1953125 1.910156,1.1953125 1.042969,0 1.640625,-0.62109375 1.980469,-1.31249998 0.433594,-0.890625 0.457031,-2.0625 0.457031,-2.7539063 z m -2.4375,3.83203128 c -0.386718,0 -1.160156,-0.2109375 -1.382812,-1.52343748 -0.140625,-0.7148438 -0.140625,-1.6171875 -0.140625,-2.4609375 0,-0.9726563 0,-1.8632813 0.199219,-2.5664063 0.199218,-0.796875 0.808593,-1.171875 1.324218,-1.171875 0.457032,0 1.148438,0.28125 1.371094,1.3007813 0.152344,0.6796875 0.152344,1.6289062 0.152344,2.4375 0,0.8085937 0,1.7109375 -0.128906,2.4375 -0.222657,1.32421873 -0.972657,1.54687498 -1.394532,1.54687498 z m 0,0"
         style="fill:#ffffff;fill-opacity:1;fill-rule:nonzero;stroke:#ffffff" />
    </g>
    <g
       id="g15"
       aria-label="2,0"
       transform="matrix(1.3333333,0,0,1.3333333,169.556,393.428)"
       style="fill:#ffffff;stroke:#ffffff">
      <path
         id="path16"
         d="M 5.2607344,-2.0026406 H 4.9912031 c -0.035156,0.1992187 -0.1289062,0.8554687 -0.2460937,1.04296873 -0.082031,0.1171875 -0.7617188,0.1171875 -1.125,0.1171875 H 1.4052656 c 0.328125,-0.28125003 1.0546875,-1.04296873 1.3710938,-1.33593753 1.8164062,-1.6640625 2.484375,-2.2851562 2.484375,-3.46875 0,-1.3828125 -1.0898438,-2.296875 -2.4726563,-2.296875 -1.3945312,0 -2.20312498,1.1835938 -2.20312498,2.203125 0,0.609375 0.52734378,0.609375 0.56249998,0.609375 0.2460938,0 0.5625,-0.1757812 0.5625,-0.5625 0,-0.328125 -0.234375,-0.5507812 -0.5625,-0.5507812 -0.1054687,0 -0.1289062,0 -0.16406248,0.011719 0.22265628,-0.8203125 0.86718748,-1.3710937 1.64062498,-1.3710937 1.0195313,0 1.640625,0.8554687 1.640625,1.9570312 0,1.0078125 -0.5859375,1.8984375 -1.265625,2.6601563 l -2.41406248,2.70703123 v 0.28125 H 4.9443281 Z m 0,0"
         style="fill:#ffffff;fill-opacity:1;fill-rule:nonzero;stroke:#ffffff" />
      <path
         id="path17"
         d="m 8.1845625,0.04814063 c 0,-0.69140625 -0.2226563,-1.20703123 -0.7148438,-1.20703123 -0.3867187,0 -0.5742187,0.31640623 -0.5742187,0.57421873 0,0.2578125 0.1757812,0.5859375 0.5859375,0.5859375 0.1523437,0 0.28125,-0.046875 0.3867187,-0.15234375 0.023437,-0.0234375 0.035156,-0.0234375 0.046875,-0.0234375 0.035156,0 0.035156,0.1640625 0.035156,0.22265625 0,0.3984375 -0.082031,1.17187497 -0.7734375,1.94531247 -0.1289063,0.1523438 -0.1289063,0.1757813 -0.1289063,0.1992188 0,0.058594 0.058594,0.1171875 0.1171875,0.1171875 0.09375,0 1.0195313,-0.890625 1.0195316,-2.26171877 z m 0,0"
         style="fill:#ffffff;fill-opacity:1;fill-rule:nonzero;stroke:#ffffff" />
      <path
         id="path18"
         d="m 16.458,-3.8190469 c 0,-0.9960937 -0.05859,-1.96875 -0.492188,-2.8710937 -0.492187,-0.9960938 -1.347656,-1.2539063 -1.933593,-1.2539063 -0.691407,0 -1.546875,0.3398438 -1.980469,1.3359375 -0.339844,0.75 -0.457031,1.4882813 -0.457031,2.7890625 0,1.1601563 0.08203,2.0273438 0.515625,2.87109378 0.457031,0.9140625 1.289062,1.1953125 1.910156,1.1953125 1.042969,0 1.640625,-0.62109375 1.980469,-1.31249998 0.433593,-0.890625 0.457031,-2.0625 0.457031,-2.7539063 z m -2.4375,3.83203128 c -0.386719,0 -1.160156,-0.2109375 -1.382813,-1.52343748 -0.140625,-0.7148438 -0.140625,-1.6171875 -0.140625,-2.4609375 0,-0.9726563 0,-1.8632813 0.199219,-2.5664063 0.199219,-0.796875 0.808594,-1.171875 1.324219,-1.171875 0.457031,0 1.148437,0.28125 1.371094,1.3007813 0.152343,0.6796875 0.152343,1.6289062 0.152343,2.4375 0,0.8085937 0,1.7109375 -0.128906,2.4375 -0.222656,1.32421873 -0.972656,1.54687498 -1.394531,1.54687498 z m 0,0"
         style="fill:#ffffff;fill-opacity:1;fill-rule:nonzero;stroke:#ffffff" />
    </g>
    <g
       id="g18"
       aria-label="3,0"
       transform="matrix(1.3333333,0,0,1.3333333,245.14667,393.428)"
       style="fill:#ffffff;stroke:#ffffff">
      <path
         id="path19"
         d="m 2.2044531,-4.2877969 c -0.2109375,0.011719 -0.2578125,0.023437 -0.2578125,0.1289063 0,0.1171875 0.058594,0.1171875 0.28125,0.1171875 h 0.5507813 c 1.0078125,0 1.4648437,0.84375 1.4648437,1.9921875 0,1.55859373 -0.8085937,1.98046873 -1.3945312,1.98046873 -0.5742188,0 -1.5585938,-0.28125 -1.89843752,-1.06640623 0.37500002,0.058594 0.72656252,-0.1523438 0.72656252,-0.5859375 0,-0.3398438 -0.2578125,-0.5859375 -0.5859375,-0.5859375 -0.29296877,0 -0.59765627,0.1640625 -0.59765627,0.6210937 0,1.06640628 1.06640627,1.93359378 2.39062497,1.93359378 1.4179688,0 2.4726563,-1.078125 2.4726563,-2.28515628 0,-1.1015625 -0.890625,-1.96875 -2.0273438,-2.1679687 1.03125,-0.3046875 1.6992188,-1.171875 1.6992188,-2.109375 0,-0.9375 -0.9726563,-1.6289063 -2.1328125,-1.6289063 -1.1953125,0 -2.08593752,0.7265625 -2.08593752,1.59375 0,0.4804688 0.37500002,0.5742188 0.55078122,0.5742188 0.2578125,0 0.5390625,-0.1757813 0.5390625,-0.5390625 0,-0.375 -0.28125,-0.5390625 -0.5507812,-0.5390625 -0.070312,0 -0.09375,0 -0.1289063,0.011719 0.4570313,-0.8203125 1.5820313,-0.8203125 1.640625,-0.8203125 0.3867188,0 1.171875,0.1757813 1.171875,1.3476563 0,0.234375 -0.035156,0.9023437 -0.3867187,1.4179687 -0.3515625,0.5273438 -0.7617188,0.5625 -1.0898438,0.5742188 z m 0,0"
         style="fill:#ffffff;fill-opacity:1;fill-rule:nonzero;stroke:#ffffff" />
      <path
         id="path20"
         d="m 8.1839453,0.04814063 c 0,-0.69140625 -0.2226562,-1.20703123 -0.7148437,-1.20703123 -0.3867188,0 -0.5742188,0.31640623 -0.5742188,0.57421873 0,0.2578125 0.1757813,0.5859375 0.5859375,0.5859375 0.1523438,0 0.28125,-0.046875 0.3867188,-0.15234375 0.023437,-0.0234375 0.035156,-0.0234375 0.046875,-0.0234375 0.035156,0 0.035156,0.1640625 0.035156,0.22265625 0,0.3984375 -0.082031,1.17187497 -0.7734375,1.94531247 -0.1289062,0.1523438 -0.1289062,0.1757813 -0.1289062,0.1992188 0,0.058594 0.058594,0.1171875 0.1171875,0.1171875 0.09375,0 1.0195312,-0.890625 1.0195314,-2.26171877 z m 0,0"
         style="fill:#ffffff;fill-opacity:1;fill-rule:nonzero;stroke:#ffffff" />
      <path
         id="path21"
         d="m 16.457383,-3.8190469 c 0,-0.9960937 -0.05859,-1.96875 -0.492188,-2.8710937 -0.492187,-0.9960938 -1.347656,-1.2539063 -1.933593,-1.2539063 -0.691407,0 -1.546875,0.3398438 -1.980469,1.3359375 -0.339844,0.75 -0.457031,1.4882813 -0.457031,2.7890625 0,1.1601563 0.08203,2.0273438 0.515625,2.87109378 0.457031,0.9140625 1.289062,1.1953125 1.910156,1.1953125 1.042969,0 1.640625,-0.62109375 1.980469,-1.31249998 0.433593,-0.890625 0.457031,-2.0625 0.457031,-2.7539063 z m -2.4375,3.83203128 c -0.386719,0 -1.160156,-0.2109375 -1.382813,-1.52343748 -0.140625,-0.7148438 -0.140625,-1.6171875 -0.140625,-2.4609375 0,-0.9726563 0,-1.8632813 0.199219,-2.5664063 0.199219,-0.796875 0.808594,-1.171875 1.324219,-1.171875 0.457031,0 1.148437,0.28125 1.371094,1.3007813 0.152343,0.6796875 0.152343,1.6289062 0.152343,2.4375 0,0.8085937 0,1.7109375 -0.128906,2.4375 -0.222656,1.32421873 -0.972656,1.54687498 -1.394531,1.54687498 z m 0,0"
         style="fill:#ffffff;fill-opacity:1;fill-rule:nonzero;stroke:#ffffff" />
    </g>
    <g
       id="g21"
       aria-label="4,0"
       transform="matrix(1.3333333,0,0,1.3333333,320.73733,393.428)"
       style="fill:#ffffff;stroke:#ffffff">
      <path
         id="path22"
         d="m 4.3132109,-7.7799844 c 0,-0.2226562 0,-0.2929687 -0.1640625,-0.2929687 -0.09375,0 -0.1289062,0 -0.2226562,0.1523437 l -3.59765626,5.578125 v 0.3515625 H 3.4694609 v 1.07812503 c 0,0.4453125 -0.023437,0.5625 -0.9023437,0.5625 h -0.234375 v 0.3515625 c 0.2695312,-0.0234375 1.21875,-0.0234375 1.5585937,-0.0234375 0.328125,0 1.2890625,0 1.5585938,0.0234375 v -0.3515625 h -0.234375 c -0.8671875,0 -0.9023438,-0.1171875 -0.9023438,-0.5625 V -1.9909219 H 5.5202422 V -2.3424844 H 4.3132109 Z m -0.7851562,0.9375 v 4.5 H 0.62180469 Z m 0,0"
         style="fill:#ffffff;fill-opacity:1;fill-rule:nonzero;stroke:#ffffff" />
      <path
         id="path23"
         d="m 8.1862578,0.04814063 c 0,-0.69140625 -0.2226562,-1.20703123 -0.7148437,-1.20703123 -0.3867188,0 -0.5742188,0.31640623 -0.5742188,0.57421873 0,0.2578125 0.1757813,0.5859375 0.5859375,0.5859375 0.1523438,0 0.28125,-0.046875 0.3867188,-0.15234375 0.023437,-0.0234375 0.035156,-0.0234375 0.046875,-0.0234375 0.035156,0 0.035156,0.1640625 0.035156,0.22265625 0,0.3984375 -0.082031,1.17187497 -0.7734375,1.94531247 -0.1289062,0.1523438 -0.1289062,0.1757813 -0.1289062,0.1992188 0,0.058594 0.058594,0.1171875 0.1171875,0.1171875 0.09375,0 1.0195312,-0.890625 1.0195314,-2.26171877 z m 0,0"
         style="fill:#ffffff;fill-opacity:1;fill-rule:nonzero;stroke:#ffffff" />
      <path
         id="path24"
         d="m 16.456766,-3.8190469 c 0,-0.9960937 -0.05859,-1.96875 -0.492188,-2.8710937 -0.492187,-0.9960938 -1.347656,-1.2539063 -1.933594,-1.2539063 -0.691406,0 -1.546875,0.3398438 -1.980468,1.3359375 -0.339844,0.75 -0.457032,1.4882813 -0.457032,2.7890625 0,1.1601563 0.08203,2.0273438 0.515625,2.87109378 0.457032,0.9140625 1.289063,1.1953125 1.910157,1.1953125 1.042968,0 1.640625,-0.62109375 1.980468,-1.31249998 0.433594,-0.890625 0.457032,-2.0625 0.457032,-2.7539063 z m -2.4375,3.83203128 c -0.386719,0 -1.160157,-0.2109375 -1.382813,-1.52343748 -0.140625,-0.7148438 -0.140625,-1.6171875 -0.140625,-2.4609375 0,-0.9726563 0,-1.8632813 0.199219,-2.5664063 0.199219,-0.796875 0.808594,-1.171875 1.324219,-1.171875 0.457031,0 1.148437,0.28125 1.371093,1.3007813 0.152344,0.6796875 0.152344,1.6289062 0.152344,2.4375 0,0.8085937 0,1.7109375 -0.128906,2.4375 -0.222656,1.32421873 -0.972656,1.54687498 -1.394531,1.54687498 z m 0,0"
         style="fill:#ffffff;fill-opacity:1;fill-rule:nonzero;stroke:#ffffff" />
    </g>
    <g
       id="g24"
       aria-label="5,0"
       transform="matrix(1.3333333,0,0,1.3333333,396.32667,393.428)"
       style="fill:#ffffff;stroke:#ffffff">
      <path
         id="path25"
         d="m 1.53625,-6.8424844 c 0.5039063,0.1640625 0.9257813,0.1757813 1.0546875,0.1757813 1.359375,0 2.2148438,-0.9960938 2.2148438,-1.1601563 0,-0.046875 -0.023437,-0.1054687 -0.09375,-0.1054687 -0.023437,0 -0.046875,0 -0.1523438,0.046875 -0.6679687,0.28125 -1.2421875,0.3164062 -1.5585937,0.3164062 -0.7851563,0 -1.3476563,-0.234375 -1.5820313,-0.328125 -0.082031,-0.035156 -0.1054687,-0.035156 -0.1171875,-0.035156 -0.09375,0 -0.09375,0.070312 -0.09375,0.2578125 v 3.5507812 c 0,0.2109375 0,0.2929688 0.140625,0.2929688 0.058594,0 0.070312,-0.011719 0.1992188,-0.1640625 0.328125,-0.4921875 0.890625,-0.7734375 1.4882812,-0.7734375 0.6328125,0 0.9492188,0.5859375 1.0429688,0.7851562 0.1992187,0.46875 0.2109375,1.0546875 0.2109375,1.5117188 0,0.4570312 0,1.1367187 -0.328125,1.67578123 -0.2695313,0.421875 -0.7382813,0.7265625 -1.2539063,0.7265625 -0.796875,0 -1.5703125,-0.5390625 -1.78125,-1.40625003 0.0585938,0.023437 0.1289063,0.035156 0.1875,0.035156 0.1992188,0 0.5273438,-0.1289063 0.5273438,-0.5273438 0,-0.3398437 -0.234375,-0.5273437 -0.5273438,-0.5273437 -0.2109375,0 -0.52734375,0.1054687 -0.52734375,0.5742187 0,1.00781253 0.80859375,2.16796878 2.14453125,2.16796878 1.3476563,0 2.53125,-1.125 2.53125,-2.64843748 0,-1.4179688 -0.9609375,-2.6015625 -2.2148437,-2.6015625 -0.6796875,0 -1.2070313,0.2929687 -1.5117188,0.6328125 z m 0,0"
         style="fill:#ffffff;fill-opacity:1;fill-rule:nonzero;stroke:#ffffff" />
      <path
         id="path26"
         d="m 8.1866406,0.04814063 c 0,-0.69140625 -0.2226562,-1.20703123 -0.7148437,-1.20703123 -0.3867188,0 -0.5742188,0.31640623 -0.5742188,0.57421873 0,0.2578125 0.1757813,0.5859375 0.5859375,0.5859375 0.1523438,0 0.28125,-0.046875 0.3867188,-0.15234375 0.023437,-0.0234375 0.035156,-0.0234375 0.046875,-0.0234375 0.035156,0 0.035156,0.1640625 0.035156,0.22265625 0,0.3984375 -0.082031,1.17187497 -0.7734375,1.94531247 -0.1289062,0.1523438 -0.1289062,0.1757813 -0.1289062,0.1992188 0,0.058594 0.058594,0.1171875 0.1171875,0.1171875 0.09375,0 1.0195312,-0.890625 1.0195314,-2.26171877 z m 0,0"
         style="fill:#ffffff;fill-opacity:1;fill-rule:nonzero;stroke:#ffffff" />
      <path
         id="path27"
         d="m 16.457148,-3.8190469 c 0,-0.9960937 -0.05859,-1.96875 -0.492187,-2.8710937 -0.492188,-0.9960938 -1.347656,-1.2539063 -1.933594,-1.2539063 -0.691406,0 -1.546875,0.3398438 -1.980469,1.3359375 -0.339843,0.75 -0.457031,1.4882813 -0.457031,2.7890625 0,1.1601563 0.08203,2.0273438 0.515625,2.87109378 0.457031,0.9140625 1.289063,1.1953125 1.910156,1.1953125 1.042969,0 1.640625,-0.62109375 1.980469,-1.31249998 0.433594,-0.890625 0.457031,-2.0625 0.457031,-2.7539063 z m -2.4375,3.83203128 c -0.386718,0 -1.160156,-0.2109375 -1.382812,-1.52343748 -0.140625,-0.7148438 -0.140625,-1.6171875 -0.140625,-2.4609375 0,-0.9726563 0,-1.8632813 0.199219,-2.5664063 0.199218,-0.796875 0.808593,-1.171875 1.324218,-1.171875 0.457032,0 1.148438,0.28125 1.371094,1.3007813 0.152344,0.6796875 0.152344,1.6289062 0.152344,2.4375 0,0.8085937 0,1.7109375 -0.128906,2.4375 -0.222657,1.32421873 -0.972657,1.54687498 -1.394532,1.54687498 z m 0,0"
         style="fill:#ffffff;fill-opacity:1;fill-rule:nonzero;stroke:#ffffff" />
    </g>
    <g
       id="g27"
       aria-label="1,1"
       transform="matrix(1.3333333,0,0,1.3333333,93.965333,317.83733)"
       style="fill:#ffffff;stroke:#ffffff">
      <path
         id="path28"
         d="m 3.4449453,-7.6651094 c 0,-0.2695312 0,-0.28125 -0.2460937,-0.28125 -0.28125,0.3164063 -0.8789063,0.7617188 -2.109375,0.7617188 v 0.3515625 c 0.2695312,0 0.8671875,0 1.5234375,-0.3164063 v 6.22265628 c 0,0.43359375 -0.035156,0.57421875 -1.078125,0.57421875 h -0.375 v 0.3515625 c 0.3164062,-0.0234375 1.4765625,-0.0234375 1.875,-0.0234375 0.3984375,0 1.546875,0 1.8632812,0.0234375 v -0.3515625 H 4.5347891 c -1.0546875,0 -1.0898438,-0.140625 -1.0898438,-0.57421875 z m 0,0"
         style="fill:#ffffff;fill-opacity:1;fill-rule:nonzero;stroke:#ffffff" />
      <path
         id="path29"
         d="m 8.1851797,0.04582813 c 0,-0.69140625 -0.2226563,-1.20703123 -0.7148438,-1.20703123 -0.3867187,0 -0.5742187,0.31640623 -0.5742187,0.57421873 0,0.2578125 0.1757812,0.5859375 0.5859375,0.5859375 0.1523437,0 0.28125,-0.046875 0.3867187,-0.15234375 0.023437,-0.0234375 0.035156,-0.0234375 0.046875,-0.0234375 0.035156,0 0.035156,0.1640625 0.035156,0.22265625 0,0.3984375 -0.082031,1.17187497 -0.7734375,1.94531247 -0.1289063,0.1523438 -0.1289063,0.1757813 -0.1289063,0.1992188 0,0.058594 0.058594,0.1171875 0.1171875,0.1171875 0.09375,0 1.0195313,-0.890625 1.0195316,-2.26171877 z m 0,0"
         style="fill:#ffffff;fill-opacity:1;fill-rule:nonzero;stroke:#ffffff" />
      <path
         id="path30"
         d="m 14.545531,-7.6651094 c 0,-0.2695312 0,-0.28125 -0.246094,-0.28125 -0.28125,0.3164063 -0.878906,0.7617188 -2.109375,0.7617188 v 0.3515625 c 0.269532,0 0.867188,0 1.523438,-0.3164063 v 6.22265628 c 0,0.43359375 -0.03516,0.57421875 -1.078125,0.57421875 h -0.375 v 0.3515625 c 0.316406,-0.0234375 1.476562,-0.0234375 1.875,-0.0234375 0.398437,0 1.546875,0 1.863281,0.0234375 v -0.3515625 h -0.363281 c -1.054688,0 -1.089844,-0.140625 -1.089844,-0.57421875 z m 0,0"
         style="fill:#ffffff;fill-opacity:1;fill-rule:nonzero;stroke:#ffffff" />
    </g>
    <g
       id="g30"
       aria-label="2,1"
       transform="matrix(1.3333333,0,0,1.3333333,169.556,317.83733)"
       style="fill:#ffffff;stroke:#ffffff">
      <path
         id="path31"
         d="M 5.2607344,-2.0049531 H 4.9912031 c -0.035156,0.1992187 -0.1289062,0.8554687 -0.2460937,1.04296873 -0.082031,0.1171875 -0.7617188,0.1171875 -1.125,0.1171875 H 1.4052656 c 0.328125,-0.28125003 1.0546875,-1.04296873 1.3710938,-1.33593753 1.8164062,-1.6640625 2.484375,-2.2851562 2.484375,-3.46875 0,-1.3828125 -1.0898438,-2.296875 -2.4726563,-2.296875 -1.3945312,0 -2.20312498,1.1835938 -2.20312498,2.203125 0,0.609375 0.52734378,0.609375 0.56249998,0.609375 0.2460938,0 0.5625,-0.1757812 0.5625,-0.5625 0,-0.328125 -0.234375,-0.5507812 -0.5625,-0.5507812 -0.1054687,0 -0.1289062,0 -0.16406248,0.011719 0.22265628,-0.8203125 0.86718748,-1.3710937 1.64062498,-1.3710937 1.0195313,0 1.640625,0.8554687 1.640625,1.9570312 0,1.0078125 -0.5859375,1.8984375 -1.265625,2.6601563 l -2.41406248,2.70703123 v 0.28125 H 4.9443281 Z m 0,0"
         style="fill:#ffffff;fill-opacity:1;fill-rule:nonzero;stroke:#ffffff" />
      <path
         id="path32"
         d="m 8.1845625,0.04582813 c 0,-0.69140625 -0.2226563,-1.20703123 -0.7148438,-1.20703123 -0.3867187,0 -0.5742187,0.31640623 -0.5742187,0.57421873 0,0.2578125 0.1757812,0.5859375 0.5859375,0.5859375 0.1523437,0 0.28125,-0.046875 0.3867187,-0.15234375 0.023437,-0.0234375 0.035156,-0.0234375 0.046875,-0.0234375 0.035156,0 0.035156,0.1640625 0.035156,0.22265625 0,0.3984375 -0.082031,1.17187497 -0.7734375,1.94531247 -0.1289063,0.1523438 -0.1289063,0.1757813 -0.1289063,0.1992188 0,0.058594 0.058594,0.1171875 0.1171875,0.1171875 0.09375,0 1.0195313,-0.890625 1.0195316,-2.26171877 z m 0,0"
         style="fill:#ffffff;fill-opacity:1;fill-rule:nonzero;stroke:#ffffff" />
      <path
         id="path33"
         d="m 14.547844,-7.6651094 c 0,-0.2695312 0,-0.28125 -0.246094,-0.28125 -0.28125,0.3164063 -0.878906,0.7617188 -2.109375,0.7617188 v 0.3515625 c 0.269531,0 0.867187,0 1.523437,-0.3164063 v 6.22265628 c 0,0.43359375 -0.03516,0.57421875 -1.078125,0.57421875 h -0.375 v 0.3515625 c 0.316407,-0.0234375 1.476563,-0.0234375 1.875,-0.0234375 0.398438,0 1.546875,0 1.863282,0.0234375 v -0.3515625 h -0.363282 c -1.054687,0 -1.089843,-0.140625 -1.089843,-0.57421875 z m 0,0"
         style="fill:#ffffff;fill-opacity:1;fill-rule:nonzero;stroke:#ffffff" />
    </g>
    <g
       id="g33"
       aria-label="3,1"
       transform="matrix(1.3333333,0,0,1.3333333,245.14667,317.83733)"
       style="fill:#ffffff;stroke:#ffffff">
      <path
         id="path34"
         d="m 2.2044531,-4.2901094 c -0.2109375,0.011719 -0.2578125,0.023437 -0.2578125,0.1289063 0,0.1171875 0.058594,0.1171875 0.28125,0.1171875 h 0.5507813 c 1.0078125,0 1.4648437,0.84375 1.4648437,1.9921875 0,1.55859373 -0.8085937,1.98046873 -1.3945312,1.98046873 -0.5742188,0 -1.5585938,-0.28125 -1.89843752,-1.06640623 0.37500002,0.058594 0.72656252,-0.1523438 0.72656252,-0.5859375 0,-0.3398438 -0.2578125,-0.5859375 -0.5859375,-0.5859375 -0.29296877,0 -0.59765627,0.1640625 -0.59765627,0.6210937 0,1.06640628 1.06640627,1.93359378 2.39062497,1.93359378 1.4179688,0 2.4726563,-1.078125 2.4726563,-2.28515628 0,-1.1015625 -0.890625,-1.96875 -2.0273438,-2.1679687 1.03125,-0.3046875 1.6992188,-1.171875 1.6992188,-2.109375 0,-0.9375 -0.9726563,-1.6289063 -2.1328125,-1.6289063 -1.1953125,0 -2.08593752,0.7265625 -2.08593752,1.59375 0,0.4804688 0.37500002,0.5742188 0.55078122,0.5742188 0.2578125,0 0.5390625,-0.1757813 0.5390625,-0.5390625 0,-0.375 -0.28125,-0.5390625 -0.5507812,-0.5390625 -0.070312,0 -0.09375,0 -0.1289063,0.011719 0.4570313,-0.8203125 1.5820313,-0.8203125 1.640625,-0.8203125 0.3867188,0 1.171875,0.1757813 1.171875,1.3476563 0,0.234375 -0.035156,0.9023437 -0.3867187,1.4179687 -0.3515625,0.5273438 -0.7617188,0.5625 -1.0898438,0.5742188 z m 0,0"
         style="fill:#ffffff;fill-opacity:1;fill-rule:nonzero;stroke:#ffffff" />
      <path
         id="path35"
         d="m 8.1839453,0.04582813 c 0,-0.69140625 -0.2226562,-1.20703123 -0.7148437,-1.20703123 -0.3867188,0 -0.5742188,0.31640623 -0.5742188,0.57421873 0,0.2578125 0.1757813,0.5859375 0.5859375,0.5859375 0.1523438,0 0.28125,-0.046875 0.3867188,-0.15234375 0.023437,-0.0234375 0.035156,-0.0234375 0.046875,-0.0234375 0.035156,0 0.035156,0.1640625 0.035156,0.22265625 0,0.3984375 -0.082031,1.17187497 -0.7734375,1.94531247 -0.1289062,0.1523438 -0.1289062,0.1757813 -0.1289062,0.1992188 0,0.058594 0.058594,0.1171875 0.1171875,0.1171875 0.09375,0 1.0195312,-0.890625 1.0195314,-2.26171877 z m 0,0"
         style="fill:#ffffff;fill-opacity:1;fill-rule:nonzero;stroke:#ffffff" />
      <path
         id="path36"
         d="m 14.547227,-7.6651094 c 0,-0.2695312 0,-0.28125 -0.246094,-0.28125 -0.28125,0.3164063 -0.878906,0.7617188 -2.109375,0.7617188 v 0.3515625 c 0.269531,0 0.867187,0 1.523437,-0.3164063 v 6.22265628 c 0,0.43359375 -0.03516,0.57421875 -1.078125,0.57421875 h -0.375 v 0.3515625 c 0.316407,-0.0234375 1.476563,-0.0234375 1.875,-0.0234375 0.398438,0 1.546875,0 1.863282,0.0234375 v -0.3515625 H 15.63707 c -1.054687,0 -1.089843,-0.140625 -1.089843,-0.57421875 z m 0,0"
         style="fill:#ffffff;fill-opacity:1;fill-rule:nonzero;stroke:#ffffff" />
    </g>
    <g
       id="g36"
       aria-label="4,1"
       transform="matrix(1.3333333,0,0,1.3333333,320.73733,317.83733)"
       style="fill:#ffffff;stroke:#ffffff">
      <path
         id="path37"
         d="m 4.3132109,-7.7822969 c 0,-0.2226562 0,-0.2929687 -0.1640625,-0.2929687 -0.09375,0 -0.1289062,0 -0.2226562,0.1523437 l -3.59765626,5.578125 v 0.3515625 H 3.4694609 v 1.07812503 c 0,0.4453125 -0.023437,0.5625 -0.9023437,0.5625 h -0.234375 v 0.3515625 c 0.2695312,-0.0234375 1.21875,-0.0234375 1.5585937,-0.0234375 0.328125,0 1.2890625,0 1.5585938,0.0234375 v -0.3515625 h -0.234375 c -0.8671875,0 -0.9023438,-0.1171875 -0.9023438,-0.5625 V -1.9932344 H 5.5202422 V -2.3447969 H 4.3132109 Z m -0.7851562,0.9375 v 4.5 H 0.62180469 Z m 0,0"
         style="fill:#ffffff;fill-opacity:1;fill-rule:nonzero;stroke:#ffffff" />
      <path
         id="path38"
         d="m 8.1862578,0.04582813 c 0,-0.69140625 -0.2226562,-1.20703123 -0.7148437,-1.20703123 -0.3867188,0 -0.5742188,0.31640623 -0.5742188,0.57421873 0,0.2578125 0.1757813,0.5859375 0.5859375,0.5859375 0.1523438,0 0.28125,-0.046875 0.3867188,-0.15234375 0.023437,-0.0234375 0.035156,-0.0234375 0.046875,-0.0234375 0.035156,0 0.035156,0.1640625 0.035156,0.22265625 0,0.3984375 -0.082031,1.17187497 -0.7734375,1.94531247 -0.1289062,0.1523438 -0.1289062,0.1757813 -0.1289062,0.1992188 0,0.058594 0.058594,0.1171875 0.1171875,0.1171875 0.09375,0 1.0195312,-0.890625 1.0195314,-2.26171877 z m 0,0"
         style="fill:#ffffff;fill-opacity:1;fill-rule:nonzero;stroke:#ffffff" />
      <path
         id="path39"
         d="m 14.546609,-7.6651094 c 0,-0.2695312 0,-0.28125 -0.246093,-0.28125 -0.28125,0.3164063 -0.878907,0.7617188 -2.109375,0.7617188 v 0.3515625 c 0.269531,0 0.867187,0 1.523437,-0.3164063 v 6.22265628 c 0,0.43359375 -0.03516,0.57421875 -1.078125,0.57421875 h -0.375 v 0.3515625 c 0.316406,-0.0234375 1.476563,-0.0234375 1.875,-0.0234375 0.398438,0 1.546875,0 1.863281,0.0234375 v -0.3515625 h -0.363281 c -1.054687,0 -1.089844,-0.140625 -1.089844,-0.57421875 z m 0,0"
         style="fill:#ffffff;fill-opacity:1;fill-rule:nonzero;stroke:#ffffff" />
    </g>
    <g
       id="g39"
       aria-label="5,1"
       transform="matrix(1.3333333,0,0,1.3333333,396.32667,317.83733)"
       style="fill:#ffffff;stroke:#ffffff">
      <path
         id="path40"
         d="m 1.53625,-6.8447969 c 0.5039063,0.1640625 0.9257813,0.1757813 1.0546875,0.1757813 1.359375,0 2.2148438,-0.9960938 2.2148438,-1.1601563 0,-0.046875 -0.023437,-0.1054687 -0.09375,-0.1054687 -0.023437,0 -0.046875,0 -0.1523438,0.046875 -0.6679687,0.28125 -1.2421875,0.3164062 -1.5585937,0.3164062 -0.7851563,0 -1.3476563,-0.234375 -1.5820313,-0.328125 -0.082031,-0.035156 -0.1054687,-0.035156 -0.1171875,-0.035156 -0.09375,0 -0.09375,0.070312 -0.09375,0.2578125 v 3.5507812 c 0,0.2109375 0,0.2929688 0.140625,0.2929688 0.058594,0 0.070312,-0.011719 0.1992188,-0.1640625 0.328125,-0.4921875 0.890625,-0.7734375 1.4882812,-0.7734375 0.6328125,0 0.9492188,0.5859375 1.0429688,0.7851562 0.1992187,0.46875 0.2109375,1.0546875 0.2109375,1.5117188 0,0.4570312 0,1.1367187 -0.328125,1.67578123 -0.2695313,0.421875 -0.7382813,0.7265625 -1.2539063,0.7265625 -0.796875,0 -1.5703125,-0.5390625 -1.78125,-1.40625003 0.0585938,0.023437 0.1289063,0.035156 0.1875,0.035156 0.1992188,0 0.5273438,-0.1289063 0.5273438,-0.5273438 0,-0.3398437 -0.234375,-0.5273437 -0.5273438,-0.5273437 -0.2109375,0 -0.52734375,0.1054687 -0.52734375,0.5742187 0,1.00781253 0.80859375,2.16796878 2.14453125,2.16796878 1.3476563,0 2.53125,-1.125 2.53125,-2.64843748 0,-1.4179688 -0.9609375,-2.6015625 -2.2148437,-2.6015625 -0.6796875,0 -1.2070313,0.2929687 -1.5117188,0.6328125 z m 0,0"
         style="fill:#ffffff;fill-opacity:1;fill-rule:nonzero;stroke:#ffffff" />
      <path
         id="path41"
         d="m 8.1866406,0.04582813 c 0,-0.69140625 -0.2226562,-1.20703123 -0.7148437,-1.20703123 -0.3867188,0 -0.5742188,0.31640623 -0.5742188,0.57421873 0,0.2578125 0.1757813,0.5859375 0.5859375,0.5859375 0.1523438,0 0.28125,-0.046875 0.3867188,-0.15234375 0.023437,-0.0234375 0.035156,-0.0234375 0.046875,-0.0234375 0.035156,0 0.035156,0.1640625 0.035156,0.22265625 0,0.3984375 -0.082031,1.17187497 -0.7734375,1.94531247 -0.1289062,0.1523438 -0.1289062,0.1757813 -0.1289062,0.1992188 0,0.058594 0.058594,0.1171875 0.1171875,0.1171875 0.09375,0 1.0195312,-0.890625 1.0195314,-2.26171877 z m 0,0"
         style="fill:#ffffff;fill-opacity:1;fill-rule:nonzero;stroke:#ffffff" />
      <path
         id="path42"
         d="m 14.546992,-7.6651094 c 0,-0.2695312 0,-0.28125 -0.246094,-0.28125 -0.28125,0.3164063 -0.878906,0.7617188 -2.109375,0.7617188 v 0.3515625 c 0.269532,0 0.867188,0 1.523438,-0.3164063 v 6.22265628 c 0,0.43359375 -0.03516,0.57421875 -1.078125,0.57421875 h -0.375 v 0.3515625 c 0.316406,-0.0234375 1.476562,-0.0234375 1.875,-0.0234375 0.398437,0 1.546875,0 1.863281,0.0234375 v -0.3515625 h -0.363281 c -1.054688,0 -1.089844,-0.140625 -1.089844,-0.57421875 z m 0,0"
         style="fill:#ffffff;fill-opacity:1;fill-rule:nonzero;stroke:#ffffff" />
    </g>
    <g
       id="g42"
       aria-label="2,2"
       transform="matrix(1.3333333,0,0,1.3333333,169.556,242.24667)"
       style="fill:#ffffff;stroke:#ffffff">
      <path
         id="path43"
         d="M 5.2607344,-2.0043359 H 4.9912031 c -0.035156,0.1992187 -0.1289062,0.8554687 -0.2460937,1.04296871 -0.082031,0.1171875 -0.7617188,0.1171875 -1.125,0.1171875 H 1.4052656 c 0.328125,-0.28125001 1.0546875,-1.04296871 1.3710938,-1.33593751 1.8164062,-1.6640625 2.484375,-2.2851562 2.484375,-3.46875 0,-1.3828125 -1.0898438,-2.296875 -2.4726563,-2.296875 -1.3945312,0 -2.20312498,1.1835938 -2.20312498,2.203125 0,0.609375 0.52734378,0.609375 0.56249998,0.609375 0.2460938,0 0.5625,-0.1757812 0.5625,-0.5625 0,-0.328125 -0.234375,-0.5507812 -0.5625,-0.5507812 -0.1054687,0 -0.1289062,0 -0.16406248,0.011719 0.22265628,-0.8203125 0.86718748,-1.3710937 1.64062498,-1.3710937 1.0195313,0 1.640625,0.8554687 1.640625,1.9570312 0,1.0078125 -0.5859375,1.8984375 -1.265625,2.6601563 L 0.58495312,-0.28167969 V -4.296875e-4 H 4.9443281 Z m 0,0"
         style="fill:#ffffff;fill-opacity:1;fill-rule:nonzero;stroke:#ffffff" />
      <path
         id="path44"
         d="m 8.1845625,0.04644531 c 0,-0.69140625 -0.2226563,-1.20703121 -0.7148438,-1.20703121 -0.3867187,0 -0.5742187,0.31640621 -0.5742187,0.57421871 0,0.2578125 0.1757812,0.5859375025 0.5859375,0.5859375025 0.1523437,0 0.28125,-0.0468750025 0.3867187,-0.1523437525 0.023437,-0.0234375 0.035156,-0.0234375 0.046875,-0.0234375 0.035156,0 0.035156,0.1640625 0.035156,0.22265625 0,0.3984375 -0.082031,1.17187499 -0.7734375,1.94531249 -0.1289063,0.1523438 -0.1289063,0.1757813 -0.1289063,0.1992188 0,0.058594 0.058594,0.1171875 0.1171875,0.1171875 0.09375,0 1.0195313,-0.890625 1.0195316,-2.26171879 z m 0,0"
         style="fill:#ffffff;fill-opacity:1;fill-rule:nonzero;stroke:#ffffff" />
      <path
         id="path45"
         d="m 16.36425,-2.0043359 h -0.269531 c -0.03516,0.1992187 -0.128907,0.8554687 -0.246094,1.04296871 -0.08203,0.1171875 -0.761719,0.1171875 -1.125,0.1171875 h -2.214844 c 0.328125,-0.28125001 1.054688,-1.04296871 1.371094,-1.33593751 1.816406,-1.6640625 2.484375,-2.2851562 2.484375,-3.46875 0,-1.3828125 -1.089844,-2.296875 -2.472656,-2.296875 -1.394532,0 -2.203125,1.1835938 -2.203125,2.203125 0,0.609375 0.527343,0.609375 0.5625,0.609375 0.246093,0 0.5625,-0.1757812 0.5625,-0.5625 0,-0.328125 -0.234375,-0.5507812 -0.5625,-0.5507812 -0.105469,0 -0.128907,0 -0.164063,0.011719 0.222656,-0.8203125 0.867188,-1.3710937 1.640625,-1.3710937 1.019531,0 1.640625,0.8554687 1.640625,1.9570312 0,1.0078125 -0.585937,1.8984375 -1.265625,2.6601563 l -2.414062,2.70703121 v 0.2812500025 h 4.359375 z m 0,0"
         style="fill:#ffffff;fill-opacity:1;fill-rule:nonzero;stroke:#ffffff" />
    </g>
    <g
       id="g45"
       aria-label="3,2"
       transform="matrix(1.3333333,0,0,1.3333333,245.14667,242.24667)"
       style="fill:#ffffff;stroke:#ffffff">
      <path
         id="path46"
         d="m 2.2044531,-4.2894922 c -0.2109375,0.011719 -0.2578125,0.023437 -0.2578125,0.1289063 0,0.1171875 0.058594,0.1171875 0.28125,0.1171875 h 0.5507813 c 1.0078125,0 1.4648437,0.84375 1.4648437,1.9921875 0,1.55859371 -0.8085937,1.98046871 -1.3945312,1.98046871 -0.5742188,0 -1.5585938,-0.28125 -1.89843752,-1.06640621 0.37500002,0.058594 0.72656252,-0.1523438 0.72656252,-0.5859375 0,-0.3398438 -0.2578125,-0.5859375 -0.5859375,-0.5859375 -0.29296877,0 -0.59765627,0.1640625 -0.59765627,0.6210937 0,1.06640626 1.06640627,1.93359376 2.39062497,1.93359376 1.4179688,0 2.4726563,-1.078125 2.4726563,-2.28515626 0,-1.1015625 -0.890625,-1.96875 -2.0273438,-2.1679687 1.03125,-0.3046875 1.6992188,-1.171875 1.6992188,-2.109375 0,-0.9375 -0.9726563,-1.6289063 -2.1328125,-1.6289063 -1.1953125,0 -2.08593752,0.7265625 -2.08593752,1.59375 0,0.4804688 0.37500002,0.5742188 0.55078122,0.5742188 0.2578125,0 0.5390625,-0.1757813 0.5390625,-0.5390625 0,-0.375 -0.28125,-0.5390625 -0.5507812,-0.5390625 -0.070312,0 -0.09375,0 -0.1289063,0.011719 0.4570313,-0.8203125 1.5820313,-0.8203125 1.640625,-0.8203125 0.3867188,0 1.171875,0.1757813 1.171875,1.3476563 0,0.234375 -0.035156,0.9023437 -0.3867187,1.4179687 -0.3515625,0.5273438 -0.7617188,0.5625 -1.0898438,0.5742188 z m 0,0"
         style="fill:#ffffff;fill-opacity:1;fill-rule:nonzero;stroke:#ffffff" />
      <path
         id="path47"
         d="m 8.1839453,0.04644531 c 0,-0.69140625 -0.2226562,-1.20703121 -0.7148437,-1.20703121 -0.3867188,0 -0.5742188,0.31640621 -0.5742188,0.57421871 0,0.2578125 0.1757813,0.5859375025 0.5859375,0.5859375025 0.1523438,0 0.28125,-0.0468750025 0.3867188,-0.1523437525 0.023437,-0.0234375 0.035156,-0.0234375 0.046875,-0.0234375 0.035156,0 0.035156,0.1640625 0.035156,0.22265625 0,0.3984375 -0.082031,1.17187499 -0.7734375,1.94531249 -0.1289062,0.1523438 -0.1289062,0.1757813 -0.1289062,0.1992188 0,0.058594 0.058594,0.1171875 0.1171875,0.1171875 0.09375,0 1.0195312,-0.890625 1.0195314,-2.26171879 z m 0,0"
         style="fill:#ffffff;fill-opacity:1;fill-rule:nonzero;stroke:#ffffff" />
      <path
         id="path48"
         d="m 16.363633,-2.0043359 h -0.269531 c -0.03516,0.1992187 -0.128907,0.8554687 -0.246094,1.04296871 -0.08203,0.1171875 -0.761719,0.1171875 -1.125,0.1171875 h -2.214844 c 0.328125,-0.28125001 1.054688,-1.04296871 1.371094,-1.33593751 1.816406,-1.6640625 2.484375,-2.2851562 2.484375,-3.46875 0,-1.3828125 -1.089844,-2.296875 -2.472656,-2.296875 -1.394532,0 -2.203125,1.1835938 -2.203125,2.203125 0,0.609375 0.527343,0.609375 0.5625,0.609375 0.246093,0 0.5625,-0.1757812 0.5625,-0.5625 0,-0.328125 -0.234375,-0.5507812 -0.5625,-0.5507812 -0.105469,0 -0.128907,0 -0.164063,0.011719 0.222656,-0.8203125 0.867188,-1.3710937 1.640625,-1.3710937 1.019531,0 1.640625,0.8554687 1.640625,1.9570312 0,1.0078125 -0.585937,1.8984375 -1.265625,2.6601563 l -2.414062,2.70703121 v 0.2812500025 h 4.359375 z m 0,0"
         style="fill:#ffffff;fill-opacity:1;fill-rule:nonzero;stroke:#ffffff" />
    </g>
    <g
       id="g48"
       aria-label="4,2"
       transform="matrix(1.3333333,0,0,1.3333333,320.73733,242.24667)"
       style="fill:#ffffff;stroke:#ffffff">
      <path
         id="path49"
         d="m 4.3132109,-7.7816797 c 0,-0.2226562 0,-0.2929687 -0.1640625,-0.2929687 -0.09375,0 -0.1289062,0 -0.2226562,0.1523437 l -3.59765626,5.578125 v 0.3515625 H 3.4694609 v 1.07812501 c 0,0.4453125 -0.023437,0.5625 -0.9023437,0.5625 H 2.3327422 V -4.296875e-4 C 2.6022734,-0.02386719 3.5514922,-0.02386719 3.8913359,-0.02386719 c 0.328125,0 1.2890625,0 1.5585938,0.0234375025 V -0.35199219 h -0.234375 c -0.8671875,0 -0.9023438,-0.1171875 -0.9023438,-0.5625 V -1.9926172 H 5.5202422 V -2.3441797 H 4.3132109 Z m -0.7851562,0.9375 v 4.5 H 0.62180469 Z m 0,0"
         style="fill:#ffffff;fill-opacity:1;fill-rule:nonzero;stroke:#ffffff" />
      <path
         id="path50"
         d="m 8.1862578,0.04644531 c 0,-0.69140625 -0.2226562,-1.20703121 -0.7148437,-1.20703121 -0.3867188,0 -0.5742188,0.31640621 -0.5742188,0.57421871 0,0.2578125 0.1757813,0.5859375025 0.5859375,0.5859375025 0.1523438,0 0.28125,-0.0468750025 0.3867188,-0.1523437525 0.023437,-0.0234375 0.035156,-0.0234375 0.046875,-0.0234375 0.035156,0 0.035156,0.1640625 0.035156,0.22265625 0,0.3984375 -0.082031,1.17187499 -0.7734375,1.94531249 -0.1289062,0.1523438 -0.1289062,0.1757813 -0.1289062,0.1992188 0,0.058594 0.058594,0.1171875 0.1171875,0.1171875 0.09375,0 1.0195312,-0.890625 1.0195314,-2.26171879 z m 0,0"
         style="fill:#ffffff;fill-opacity:1;fill-rule:nonzero;stroke:#ffffff" />
      <path
         id="path51"
         d="m 16.363016,-2.0043359 h -0.269532 c -0.03516,0.1992187 -0.128906,0.8554687 -0.246093,1.04296871 -0.08203,0.1171875 -0.761719,0.1171875 -1.125,0.1171875 h -2.214844 c 0.328125,-0.28125001 1.054687,-1.04296871 1.371094,-1.33593751 1.816406,-1.6640625 2.484375,-2.2851562 2.484375,-3.46875 0,-1.3828125 -1.089844,-2.296875 -2.472657,-2.296875 -1.394531,0 -2.203125,1.1835938 -2.203125,2.203125 0,0.609375 0.527344,0.609375 0.5625,0.609375 0.246094,0 0.5625,-0.1757812 0.5625,-0.5625 0,-0.328125 -0.234375,-0.5507812 -0.5625,-0.5507812 -0.105468,0 -0.128906,0 -0.164062,0.011719 0.222656,-0.8203125 0.867187,-1.3710937 1.640625,-1.3710937 1.019531,0 1.640625,0.8554687 1.640625,1.9570312 0,1.0078125 -0.585938,1.8984375 -1.265625,2.6601563 l -2.414063,2.70703121 v 0.2812500025 h 4.359375 z m 0,0"
         style="fill:#ffffff;fill-opacity:1;fill-rule:nonzero;stroke:#ffffff" />
    </g>
    <g
       id="g51"
       aria-label="5,2"
       transform="matrix(1.3333333,0,0,1.3333333,396.32667,242.24667)"
       style="fill:#ffffff;stroke:#ffffff">
      <path
         id="path52"
         d="m 1.53625,-6.8441797 c 0.5039063,0.1640625 0.9257813,0.1757813 1.0546875,0.1757813 1.359375,0 2.2148438,-0.9960938 2.2148438,-1.1601563 0,-0.046875 -0.023437,-0.1054687 -0.09375,-0.1054687 -0.023437,0 -0.046875,0 -0.1523438,0.046875 -0.6679687,0.28125 -1.2421875,0.3164062 -1.5585937,0.3164062 -0.7851563,0 -1.3476563,-0.234375 -1.5820313,-0.328125 -0.082031,-0.035156 -0.1054687,-0.035156 -0.1171875,-0.035156 -0.09375,0 -0.09375,0.070312 -0.09375,0.2578125 v 3.5507812 c 0,0.2109375 0,0.2929688 0.140625,0.2929688 0.058594,0 0.070312,-0.011719 0.1992188,-0.1640625 0.328125,-0.4921875 0.890625,-0.7734375 1.4882812,-0.7734375 0.6328125,0 0.9492188,0.5859375 1.0429688,0.7851562 0.1992187,0.46875 0.2109375,1.0546875 0.2109375,1.5117188 0,0.4570312 0,1.1367187 -0.328125,1.67578121 -0.2695313,0.421875 -0.7382813,0.7265625 -1.2539063,0.7265625 -0.796875,0 -1.5703125,-0.5390625 -1.78125,-1.40625001 0.0585938,0.023437 0.1289063,0.035156 0.1875,0.035156 0.1992188,0 0.5273438,-0.1289063 0.5273438,-0.5273438 0,-0.3398437 -0.234375,-0.5273437 -0.5273438,-0.5273437 -0.2109375,0 -0.52734375,0.1054687 -0.52734375,0.5742187 0,1.00781251 0.80859375,2.16796876 2.14453125,2.16796876 1.3476563,0 2.53125,-1.125 2.53125,-2.64843746 0,-1.4179688 -0.9609375,-2.6015625 -2.2148437,-2.6015625 -0.6796875,0 -1.2070313,0.2929687 -1.5117188,0.6328125 z m 0,0"
         style="fill:#ffffff;fill-opacity:1;fill-rule:nonzero;stroke:#ffffff" />
      <path
         id="path53"
         d="m 8.1866406,0.04644531 c 0,-0.69140625 -0.2226562,-1.20703121 -0.7148437,-1.20703121 -0.3867188,0 -0.5742188,0.31640621 -0.5742188,0.57421871 0,0.2578125 0.1757813,0.5859375025 0.5859375,0.5859375025 0.1523438,0 0.28125,-0.0468750025 0.3867188,-0.1523437525 0.023437,-0.0234375 0.035156,-0.0234375 0.046875,-0.0234375 0.035156,0 0.035156,0.1640625 0.035156,0.22265625 0,0.3984375 -0.082031,1.17187499 -0.7734375,1.94531249 -0.1289062,0.1523438 -0.1289062,0.1757813 -0.1289062,0.1992188 0,0.058594 0.058594,0.1171875 0.1171875,0.1171875 0.09375,0 1.0195312,-0.890625 1.0195314,-2.26171879 z m 0,0"
         style="fill:#ffffff;fill-opacity:1;fill-rule:nonzero;stroke:#ffffff" />
      <path
         id="path54"
         d="m 16.363398,-2.0043359 h -0.269531 c -0.03516,0.1992187 -0.128906,0.8554687 -0.246094,1.04296871 -0.08203,0.1171875 -0.761718,0.1171875 -1.125,0.1171875 H 12.50793 c 0.328125,-0.28125001 1.054687,-1.04296871 1.371093,-1.33593751 1.816407,-1.6640625 2.484375,-2.2851562 2.484375,-3.46875 0,-1.3828125 -1.089843,-2.296875 -2.472656,-2.296875 -1.394531,0 -2.203125,1.1835938 -2.203125,2.203125 0,0.609375 0.527344,0.609375 0.5625,0.609375 0.246094,0 0.5625,-0.1757812 0.5625,-0.5625 0,-0.328125 -0.234375,-0.5507812 -0.5625,-0.5507812 -0.105469,0 -0.128906,0 -0.164062,0.011719 0.222656,-0.8203125 0.867187,-1.3710937 1.640625,-1.3710937 1.019531,0 1.640625,0.8554687 1.640625,1.9570312 0,1.0078125 -0.585938,1.8984375 -1.265625,2.6601563 l -2.414063,2.70703121 v 0.2812500025 h 4.359375 z m 0,0"
         style="fill:#ffffff;fill-opacity:1;fill-rule:nonzero;stroke:#ffffff" />
    </g>
    <g
       id="g54"
       aria-label="3,3"
       transform="matrix(1.3333333,0,0,1.3333333,245.14667,166.656)"
       style="fill:#ffffff;stroke:#ffffff">
      <path
         id="path55"
         d="m 2.2044531,-4.288875 c -0.2109375,0.011719 -0.2578125,0.023437 -0.2578125,0.1289063 0,0.1171875 0.058594,0.1171875 0.28125,0.1171875 h 0.5507813 c 1.0078125,0 1.4648437,0.84375 1.4648437,1.9921875 0,1.5585937 -0.8085937,1.9804687 -1.3945312,1.9804687 -0.5742188,0 -1.5585938,-0.28125 -1.89843752,-1.0664062 0.37500002,0.058594 0.72656252,-0.1523438 0.72656252,-0.5859375 0,-0.3398438 -0.2578125,-0.5859375 -0.5859375,-0.5859375 -0.29296877,0 -0.59765627,0.1640625 -0.59765627,0.6210937 0,1.06640625 1.06640627,1.93359375 2.39062497,1.93359375 1.4179688,0 2.4726563,-1.078125 2.4726563,-2.28515625 0,-1.1015625 -0.890625,-1.96875 -2.0273438,-2.1679687 1.03125,-0.3046875 1.6992188,-1.171875 1.6992188,-2.109375 0,-0.9375 -0.9726563,-1.6289063 -2.1328125,-1.6289063 -1.1953125,0 -2.08593752,0.7265625 -2.08593752,1.59375 0,0.4804688 0.37500002,0.5742188 0.55078122,0.5742188 0.2578125,0 0.5390625,-0.1757813 0.5390625,-0.5390625 0,-0.375 -0.28125,-0.5390625 -0.5507812,-0.5390625 -0.070312,0 -0.09375,0 -0.1289063,0.011719 0.4570313,-0.8203125 1.5820313,-0.8203125 1.640625,-0.8203125 0.3867188,0 1.171875,0.1757813 1.171875,1.3476563 0,0.234375 -0.035156,0.9023437 -0.3867187,1.4179687 -0.3515625,0.5273438 -0.7617188,0.5625 -1.0898438,0.5742188 z m 0,0"
         style="fill:#ffffff;fill-opacity:1;fill-rule:nonzero;stroke:#ffffff" />
      <path
         id="path56"
         d="m 8.1839453,0.0470625 c 0,-0.69140625 -0.2226562,-1.2070312 -0.7148437,-1.2070312 -0.3867188,0 -0.5742188,0.3164062 -0.5742188,0.5742187 0,0.2578125 0.1757813,0.5859375 0.5859375,0.5859375 0.1523438,0 0.28125,-0.046875 0.3867188,-0.15234375 0.023437,-0.0234375 0.035156,-0.0234375 0.046875,-0.0234375 0.035156,0 0.035156,0.1640625 0.035156,0.22265625 0,0.3984375 -0.082031,1.171875 -0.7734375,1.9453125 -0.1289062,0.1523438 -0.1289062,0.1757813 -0.1289062,0.1992188 0,0.058594 0.058594,0.1171875 0.1171875,0.1171875 0.09375,0 1.0195312,-0.890625 1.0195314,-2.2617188 z m 0,0"
         style="fill:#ffffff;fill-opacity:1;fill-rule:nonzero;stroke:#ffffff" />
      <path
         id="path57"
         d="m 13.305039,-4.288875 c -0.210937,0.011719 -0.257812,0.023437 -0.257812,0.1289063 0,0.1171875 0.05859,0.1171875 0.28125,0.1171875 h 0.550781 c 1.007812,0 1.464844,0.84375 1.464844,1.9921875 0,1.5585937 -0.808594,1.9804687 -1.394532,1.9804687 -0.574218,0 -1.558593,-0.28125 -1.898437,-1.0664062 0.375,0.058594 0.726562,-0.1523438 0.726562,-0.5859375 0,-0.3398438 -0.257812,-0.5859375 -0.585937,-0.5859375 -0.292969,0 -0.597656,0.1640625 -0.597656,0.6210937 0,1.06640625 1.066406,1.93359375 2.390625,1.93359375 1.417968,0 2.472656,-1.078125 2.472656,-2.28515625 0,-1.1015625 -0.890625,-1.96875 -2.027344,-2.1679687 1.03125,-0.3046875 1.699219,-1.171875 1.699219,-2.109375 0,-0.9375 -0.972656,-1.6289063 -2.132813,-1.6289063 -1.195312,0 -2.085937,0.7265625 -2.085937,1.59375 0,0.4804688 0.375,0.5742188 0.550781,0.5742188 0.257813,0 0.539063,-0.1757813 0.539063,-0.5390625 0,-0.375 -0.28125,-0.5390625 -0.550782,-0.5390625 -0.07031,0 -0.09375,0 -0.128906,0.011719 0.457031,-0.8203125 1.582031,-0.8203125 1.640625,-0.8203125 0.386719,0 1.171875,0.1757813 1.171875,1.3476563 0,0.234375 -0.03516,0.9023437 -0.386719,1.4179687 -0.351562,0.5273438 -0.761718,0.5625 -1.089843,0.5742188 z m 0,0"
         style="fill:#ffffff;fill-opacity:1;fill-rule:nonzero;stroke:#ffffff" />
    </g>
    <g
       id="g57"
       aria-label="4,3"
       transform="matrix(1.3333333,0,0,1.3333333,320.73733,166.656)"
       style="fill:#ffffff;stroke:#ffffff">
      <path
         id="path58"
         d="m 4.3132109,-7.7810625 c 0,-0.2226562 0,-0.2929687 -0.1640625,-0.2929687 -0.09375,0 -0.1289062,0 -0.2226562,0.1523437 l -3.59765626,5.578125 V -1.992 H 3.4694609 v 1.078125 c 0,0.4453125 -0.023437,0.5625 -0.9023437,0.5625 H 2.3327422 V 1.875e-4 C 2.6022734,-0.02325 3.5514922,-0.02325 3.8913359,-0.02325 c 0.328125,0 1.2890625,0 1.5585938,0.0234375 V -0.351375 h -0.234375 c -0.8671875,0 -0.9023438,-0.1171875 -0.9023438,-0.5625 V -1.992 H 5.5202422 V -2.3435625 H 4.3132109 Z m -0.7851562,0.9375 v 4.5 H 0.62180469 Z m 0,0"
         style="fill:#ffffff;fill-opacity:1;fill-rule:nonzero;stroke:#ffffff" />
      <path
         id="path59"
         d="m 8.1862578,0.0470625 c 0,-0.69140625 -0.2226562,-1.2070312 -0.7148437,-1.2070312 -0.3867188,0 -0.5742188,0.3164062 -0.5742188,0.5742187 0,0.2578125 0.1757813,0.5859375 0.5859375,0.5859375 0.1523438,0 0.28125,-0.046875 0.3867188,-0.15234375 0.023437,-0.0234375 0.035156,-0.0234375 0.046875,-0.0234375 0.035156,0 0.035156,0.1640625 0.035156,0.22265625 0,0.3984375 -0.082031,1.171875 -0.7734375,1.9453125 -0.1289062,0.1523438 -0.1289062,0.1757813 -0.1289062,0.1992188 0,0.058594 0.058594,0.1171875 0.1171875,0.1171875 0.09375,0 1.0195312,-0.890625 1.0195314,-2.2617188 z m 0,0"
         style="fill:#ffffff;fill-opacity:1;fill-rule:nonzero;stroke:#ffffff" />
      <path
         id="path60"
         d="m 13.304422,-4.288875 c -0.210938,0.011719 -0.257813,0.023437 -0.257813,0.1289063 0,0.1171875 0.05859,0.1171875 0.28125,0.1171875 h 0.550782 c 1.007812,0 1.464843,0.84375 1.464843,1.9921875 0,1.5585937 -0.808593,1.9804687 -1.394531,1.9804687 -0.574219,0 -1.558594,-0.28125 -1.898437,-1.0664062 0.375,0.058594 0.726562,-0.1523438 0.726562,-0.5859375 0,-0.3398438 -0.257812,-0.5859375 -0.585937,-0.5859375 -0.292969,0 -0.597657,0.1640625 -0.597657,0.6210937 0,1.06640625 1.066407,1.93359375 2.390625,1.93359375 1.417969,0 2.472657,-1.078125 2.472657,-2.28515625 0,-1.1015625 -0.890625,-1.96875 -2.027344,-2.1679687 1.03125,-0.3046875 1.699219,-1.171875 1.699219,-2.109375 0,-0.9375 -0.972657,-1.6289063 -2.132813,-1.6289063 -1.195312,0 -2.085937,0.7265625 -2.085937,1.59375 0,0.4804688 0.375,0.5742188 0.550781,0.5742188 0.257812,0 0.539062,-0.1757813 0.539062,-0.5390625 0,-0.375 -0.28125,-0.5390625 -0.550781,-0.5390625 -0.07031,0 -0.09375,0 -0.128906,0.011719 0.457031,-0.8203125 1.582031,-0.8203125 1.640625,-0.8203125 0.386719,0 1.171875,0.1757813 1.171875,1.3476563 0,0.234375 -0.03516,0.9023437 -0.386719,1.4179687 -0.351562,0.5273438 -0.761719,0.5625 -1.089844,0.5742188 z m 0,0"
         style="fill:#ffffff;fill-opacity:1;fill-rule:nonzero;stroke:#ffffff" />
    </g>
    <g
       id="g60"
       aria-label="5,3"
       transform="matrix(1.3333333,0,0,1.3333333,396.32667,166.656)"
       style="fill:#ffffff;stroke:#ffffff">
      <path
         id="path61"
         d="m 1.53625,-6.8435625 c 0.5039063,0.1640625 0.9257813,0.1757813 1.0546875,0.1757813 1.359375,0 2.2148438,-0.9960938 2.2148438,-1.1601563 0,-0.046875 -0.023437,-0.1054687 -0.09375,-0.1054687 -0.023437,0 -0.046875,0 -0.1523438,0.046875 -0.6679687,0.28125 -1.2421875,0.3164062 -1.5585937,0.3164062 -0.7851563,0 -1.3476563,-0.234375 -1.5820313,-0.328125 -0.082031,-0.035156 -0.1054687,-0.035156 -0.1171875,-0.035156 -0.09375,0 -0.09375,0.070312 -0.09375,0.2578125 v 3.5507812 c 0,0.2109375 0,0.2929688 0.140625,0.2929688 0.058594,0 0.070312,-0.011719 0.1992188,-0.1640625 0.328125,-0.4921875 0.890625,-0.7734375 1.4882812,-0.7734375 0.6328125,0 0.9492188,0.5859375 1.0429688,0.7851562 0.1992187,0.46875 0.2109375,1.0546875 0.2109375,1.5117188 0,0.4570312 0,1.1367187 -0.328125,1.6757812 C 3.6925,-0.3748125 3.22375,-0.070125 2.708125,-0.070125 c -0.796875,0 -1.5703125,-0.5390625 -1.78125,-1.40625 0.0585938,0.023437 0.1289063,0.035156 0.1875,0.035156 0.1992188,0 0.5273438,-0.1289063 0.5273438,-0.5273438 0,-0.3398437 -0.234375,-0.5273437 -0.5273438,-0.5273437 -0.2109375,0 -0.52734375,0.1054687 -0.52734375,0.5742187 0,1.0078125 0.80859375,2.16796875 2.14453125,2.16796875 1.3476563,0 2.53125,-1.125 2.53125,-2.64843745 0,-1.4179688 -0.9609375,-2.6015625 -2.2148437,-2.6015625 -0.6796875,0 -1.2070313,0.2929687 -1.5117188,0.6328125 z m 0,0"
         style="fill:#ffffff;fill-opacity:1;fill-rule:nonzero;stroke:#ffffff" />
      <path
         id="path62"
         d="m 8.1866406,0.0470625 c 0,-0.69140625 -0.2226562,-1.2070312 -0.7148437,-1.2070312 -0.3867188,0 -0.5742188,0.3164062 -0.5742188,0.5742187 0,0.2578125 0.1757813,0.5859375 0.5859375,0.5859375 0.1523438,0 0.28125,-0.046875 0.3867188,-0.15234375 0.023437,-0.0234375 0.035156,-0.0234375 0.046875,-0.0234375 0.035156,0 0.035156,0.1640625 0.035156,0.22265625 0,0.3984375 -0.082031,1.171875 -0.7734375,1.9453125 -0.1289062,0.1523438 -0.1289062,0.1757813 -0.1289062,0.1992188 0,0.058594 0.058594,0.1171875 0.1171875,0.1171875 0.09375,0 1.0195312,-0.890625 1.0195314,-2.2617188 z m 0,0"
         style="fill:#ffffff;fill-opacity:1;fill-rule:nonzero;stroke:#ffffff" />
      <path
         id="path63"
         d="m 13.304805,-4.288875 c -0.210938,0.011719 -0.257813,0.023437 -0.257813,0.1289063 0,0.1171875 0.05859,0.1171875 0.28125,0.1171875 h 0.550781 c 1.007813,0 1.464844,0.84375 1.464844,1.9921875 0,1.5585937 -0.808594,1.9804687 -1.394531,1.9804687 -0.574219,0 -1.558594,-0.28125 -1.898438,-1.0664062 0.375,0.058594 0.726563,-0.1523438 0.726563,-0.5859375 0,-0.3398438 -0.257813,-0.5859375 -0.585938,-0.5859375 -0.292968,0 -0.597656,0.1640625 -0.597656,0.6210937 0,1.06640625 1.066406,1.93359375 2.390625,1.93359375 1.417969,0 2.472656,-1.078125 2.472656,-2.28515625 0,-1.1015625 -0.890625,-1.96875 -2.027343,-2.1679687 1.03125,-0.3046875 1.699218,-1.171875 1.699218,-2.109375 0,-0.9375 -0.972656,-1.6289063 -2.132812,-1.6289063 -1.195313,0 -2.085938,0.7265625 -2.085938,1.59375 0,0.4804688 0.375,0.5742188 0.550782,0.5742188 0.257812,0 0.539062,-0.1757813 0.539062,-0.5390625 0,-0.375 -0.28125,-0.5390625 -0.550781,-0.5390625 -0.07031,0 -0.09375,0 -0.128906,0.011719 0.457031,-0.8203125 1.582031,-0.8203125 1.640625,-0.8203125 0.386718,0 1.171875,0.1757813 1.171875,1.3476563 0,0.234375 -0.03516,0.9023437 -0.386719,1.4179687 -0.351563,0.5273438 -0.761719,0.5625 -1.089844,0.5742188 z m 0,0"
         style="fill:#ffffff;fill-opacity:1;fill-rule:nonzero;stroke:#ffffff" />
    </g>
    <g
       id="g63"
       aria-label="4,4"
       transform="matrix(1.3333333,0,0,1.3333333,320.73733,91.065333)"
       style="fill:#ffffff;stroke:#ffffff">
      <path
         id="path64"
         d="m 4.3132109,-7.7804453 c 0,-0.2226563 0,-0.2929688 -0.1640625,-0.2929688 -0.09375,0 -0.1289062,0 -0.2226562,0.1523438 l -3.59765626,5.578125 v 0.3515625 H 3.4694609 v 1.07812499 c 0,0.4453125 -0.023437,0.5625 -0.9023437,0.5625 H 2.3327422 V 8.046875e-4 C 2.6022734,-0.02263281 3.5514922,-0.02263281 3.8913359,-0.02263281 c 0.328125,0 1.2890625,0 1.5585938,0.0234374975 V -0.35075781 h -0.234375 c -0.8671875,0 -0.9023438,-0.1171875 -0.9023438,-0.5625 V -1.9913828 H 5.5202422 V -2.3429453 H 4.3132109 Z m -0.7851562,0.9375 v 4.5 H 0.62180469 Z m 0,0"
         style="fill:#ffffff;fill-opacity:1;fill-rule:nonzero;stroke:#ffffff" />
      <path
         id="path65"
         d="m 8.1862578,0.04767969 c 0,-0.69140625 -0.2226562,-1.20703129 -0.7148437,-1.20703129 -0.3867188,0 -0.5742188,0.31640629 -0.5742188,0.57421879 0,0.2578125 0.1757813,0.5859374975 0.5859375,0.5859374975 0.1523438,0 0.28125,-0.0468749975 0.3867188,-0.1523437475 0.023437,-0.0234375 0.035156,-0.0234375 0.046875,-0.0234375 0.035156,0 0.035156,0.1640625 0.035156,0.22265625 0,0.3984375 -0.082031,1.17187501 -0.7734375,1.94531251 -0.1289062,0.1523437 -0.1289062,0.1757812 -0.1289062,0.1992187 0,0.058594 0.058594,0.1171875 0.1171875,0.1171875 0.09375,0 1.0195312,-0.890625 1.0195314,-2.26171871 z m 0,0"
         style="fill:#ffffff;fill-opacity:1;fill-rule:nonzero;stroke:#ffffff" />
      <path
         id="path66"
         d="m 15.413797,-7.7804453 c 0,-0.2226563 0,-0.2929688 -0.164063,-0.2929688 -0.09375,0 -0.128906,0 -0.222656,0.1523438 l -3.597656,5.578125 v 0.3515625 h 3.140625 v 1.07812499 c 0,0.4453125 -0.02344,0.5625 -0.902344,0.5625 H 13.433328 V 8.046875e-4 c 0.269531,-0.0234374975 1.21875,-0.0234374975 1.558594,-0.0234374975 0.328125,0 1.289062,0 1.558594,0.0234374975 V -0.35075781 h -0.234375 c -0.867188,0 -0.902344,-0.1171875 -0.902344,-0.5625 V -1.9913828 h 1.207031 v -0.3515625 h -1.207031 z m -0.785156,0.9375 v 4.5 h -2.90625 z m 0,0"
         style="fill:#ffffff;fill-opacity:1;fill-rule:nonzero;stroke:#ffffff" />
    </g>
    <g
       id="g66"
       aria-label="5,4"
       transform="matrix(1.3333333,0,0,1.3333333,396.32667,91.065333)"
       style="fill:#ffffff;stroke:#ffffff">
      <path
         id="path67"
         d="m 1.53625,-6.8429453 c 0.5039063,0.1640625 0.9257813,0.1757812 1.0546875,0.1757812 1.359375,0 2.2148438,-0.9960937 2.2148438,-1.1601562 0,-0.046875 -0.023437,-0.1054688 -0.09375,-0.1054688 -0.023437,0 -0.046875,0 -0.1523438,0.046875 -0.6679687,0.28125 -1.2421875,0.3164063 -1.5585937,0.3164063 -0.7851563,0 -1.3476563,-0.234375 -1.5820313,-0.328125 -0.082031,-0.035156 -0.1054687,-0.035156 -0.1171875,-0.035156 -0.09375,0 -0.09375,0.070312 -0.09375,0.2578125 v 3.5507813 c 0,0.2109375 0,0.2929687 0.140625,0.2929687 0.058594,0 0.070312,-0.011719 0.1992188,-0.1640625 0.328125,-0.4921875 0.890625,-0.7734375 1.4882812,-0.7734375 0.6328125,0 0.9492188,0.5859375 1.0429688,0.7851563 0.1992187,0.46875 0.2109375,1.0546875 0.2109375,1.5117187 0,0.4570313 0,1.1367188 -0.328125,1.67578129 -0.2695313,0.421875 -0.7382813,0.7265625 -1.2539063,0.7265625 -0.796875,0 -1.5703125,-0.5390625 -1.78125,-1.40624999 0.0585938,0.023437 0.1289063,0.035156 0.1875,0.035156 0.1992188,0 0.5273438,-0.1289062 0.5273438,-0.5273437 0,-0.3398438 -0.234375,-0.5273438 -0.5273438,-0.5273438 -0.2109375,0 -0.52734375,0.1054688 -0.52734375,0.5742188 0,1.00781249 0.80859375,2.16796874 2.14453125,2.16796874 1.3476563,0 2.53125,-1.125 2.53125,-2.64843754 0,-1.4179687 -0.9609375,-2.6015625 -2.2148437,-2.6015625 -0.6796875,0 -1.2070313,0.2929688 -1.5117188,0.6328125 z m 0,0"
         style="fill:#ffffff;fill-opacity:1;fill-rule:nonzero;stroke:#ffffff" />
      <path
         id="path68"
         d="m 8.1866406,0.04767969 c 0,-0.69140625 -0.2226562,-1.20703129 -0.7148437,-1.20703129 -0.3867188,0 -0.5742188,0.31640629 -0.5742188,0.57421879 0,0.2578125 0.1757813,0.5859374975 0.5859375,0.5859374975 0.1523438,0 0.28125,-0.0468749975 0.3867188,-0.1523437475 0.023437,-0.0234375 0.035156,-0.0234375 0.046875,-0.0234375 0.035156,0 0.035156,0.1640625 0.035156,0.22265625 0,0.3984375 -0.082031,1.17187501 -0.7734375,1.94531251 -0.1289062,0.1523437 -0.1289062,0.1757812 -0.1289062,0.1992187 0,0.058594 0.058594,0.1171875 0.1171875,0.1171875 0.09375,0 1.0195312,-0.890625 1.0195314,-2.26171871 z m 0,0"
         style="fill:#ffffff;fill-opacity:1;fill-rule:nonzero;stroke:#ffffff" />
      <path
         id="path69"
         d="m 15.41418,-7.7804453 c 0,-0.2226563 0,-0.2929688 -0.164063,-0.2929688 -0.09375,0 -0.128906,0 -0.222656,0.1523438 l -3.597656,5.578125 v 0.3515625 h 3.140625 v 1.07812499 c 0,0.4453125 -0.02344,0.5625 -0.902344,0.5625 H 13.433711 V 8.046875e-4 c 0.269531,-0.0234374975 1.21875,-0.0234374975 1.558594,-0.0234374975 0.328125,0 1.289062,0 1.558593,0.0234374975 V -0.35075781 h -0.234375 c -0.867187,0 -0.902343,-0.1171875 -0.902343,-0.5625 V -1.9913828 h 1.207031 V -2.3429453 H 15.41418 Z m -0.785157,0.9375 v 4.5 h -2.90625 z m 0,0"
         style="fill:#ffffff;fill-opacity:1;fill-rule:nonzero;stroke:#ffffff" />
    </g>
    <g
       id="g69"
       aria-label="5,5"
       transform="matrix(1.3333333,0,0,1.3333333,396.32667,15.474667)"
       style="fill:#ffffff;stroke:#ffffff">
      <path
         id="path70"
         d="m 1.53625,-6.8423281 c 0.5039063,0.1640625 0.9257813,0.1757812 1.0546875,0.1757812 1.359375,0 2.2148438,-0.9960937 2.2148438,-1.1601562 0,-0.046875 -0.023437,-0.1054688 -0.09375,-0.1054688 -0.023437,0 -0.046875,0 -0.1523438,0.046875 -0.6679687,0.28125 -1.2421875,0.3164063 -1.5585937,0.3164063 -0.7851563,0 -1.3476563,-0.234375 -1.5820313,-0.328125 -0.082031,-0.035156 -0.1054687,-0.035156 -0.1171875,-0.035156 -0.09375,0 -0.09375,0.070312 -0.09375,0.2578125 v 3.5507813 c 0,0.2109375 0,0.2929687 0.140625,0.2929687 0.058594,0 0.070312,-0.011719 0.1992188,-0.1640625 0.328125,-0.4921875 0.890625,-0.7734375 1.4882812,-0.7734375 0.6328125,0 0.9492188,0.5859375 1.0429688,0.7851563 0.1992187,0.46875 0.2109375,1.0546875 0.2109375,1.5117187 0,0.4570313 0,1.1367188 -0.328125,1.67578127 -0.2695313,0.421875 -0.7382813,0.7265625 -1.2539063,0.7265625 -0.796875,0 -1.5703125,-0.5390625 -1.78125,-1.40624997 0.0585938,0.023437 0.1289063,0.035156 0.1875,0.035156 0.1992188,0 0.5273438,-0.1289062 0.5273438,-0.5273437 0,-0.3398438 -0.234375,-0.5273438 -0.5273438,-0.5273438 -0.2109375,0 -0.52734375,0.1054688 -0.52734375,0.5742188 0,1.00781247 0.80859375,2.16796872 2.14453125,2.16796872 1.3476563,0 2.53125,-1.125 2.53125,-2.64843752 0,-1.4179687 -0.9609375,-2.6015625 -2.2148437,-2.6015625 -0.6796875,0 -1.2070313,0.2929688 -1.5117188,0.6328125 z m 0,0"
         style="fill:#ffffff;fill-opacity:1;fill-rule:nonzero;stroke:#ffffff" />
      <path
         id="path71"
         d="m 8.1866406,0.04829687 c 0,-0.69140625 -0.2226562,-1.20703127 -0.7148437,-1.20703127 -0.3867188,0 -0.5742188,0.31640627 -0.5742188,0.57421877 0,0.2578125 0.1757813,0.5859375 0.5859375,0.5859375 0.1523438,0 0.28125,-0.046875 0.3867188,-0.15234375 0.023437,-0.0234375 0.035156,-0.0234375 0.046875,-0.0234375 0.035156,0 0.035156,0.1640625 0.035156,0.22265625 0,0.3984375 -0.082031,1.17187503 -0.7734375,1.94531253 -0.1289062,0.1523437 -0.1289062,0.1757812 -0.1289062,0.1992187 0,0.058594 0.058594,0.1171875 0.1171875,0.1171875 0.09375,0 1.0195312,-0.890625 1.0195314,-2.26171873 z m 0,0"
         style="fill:#ffffff;fill-opacity:1;fill-rule:nonzero;stroke:#ffffff" />
      <path
         id="path72"
         d="m 12.636836,-6.8423281 c 0.503906,0.1640625 0.925781,0.1757812 1.054687,0.1757812 1.359375,0 2.214844,-0.9960937 2.214844,-1.1601562 0,-0.046875 -0.02344,-0.1054688 -0.09375,-0.1054688 -0.02344,0 -0.04687,0 -0.152344,0.046875 -0.667968,0.28125 -1.242187,0.3164063 -1.558593,0.3164063 -0.785157,0 -1.347657,-0.234375 -1.582032,-0.328125 -0.08203,-0.035156 -0.105468,-0.035156 -0.117187,-0.035156 -0.09375,0 -0.09375,0.070312 -0.09375,0.2578125 v 3.5507813 c 0,0.2109375 0,0.2929687 0.140625,0.2929687 0.05859,0 0.07031,-0.011719 0.199219,-0.1640625 0.328125,-0.4921875 0.890625,-0.7734375 1.488281,-0.7734375 0.632812,0 0.949219,0.5859375 1.042969,0.7851563 0.199218,0.46875 0.210937,1.0546875 0.210937,1.5117187 0,0.4570313 0,1.1367188 -0.328125,1.67578127 -0.269531,0.421875 -0.738281,0.7265625 -1.253906,0.7265625 -0.796875,0 -1.570313,-0.5390625 -1.78125,-1.40624997 0.05859,0.023437 0.128906,0.035156 0.1875,0.035156 0.199219,0 0.527344,-0.1289062 0.527344,-0.5273437 0,-0.3398438 -0.234375,-0.5273438 -0.527344,-0.5273438 -0.210938,0 -0.527344,0.1054688 -0.527344,0.5742188 0,1.00781247 0.808594,2.16796872 2.144531,2.16796872 1.347657,0 2.53125,-1.125 2.53125,-2.64843752 0,-1.4179687 -0.960937,-2.6015625 -2.214843,-2.6015625 -0.679688,0 -1.207032,0.2929688 -1.511719,0.6328125 z m 0,0"
         style="fill:#ffffff;fill-opacity:1;fill-rule:nonzero;stroke:#ffffff" />
    </g>
    <path
       id="path73"
       d="M 12.57603,0 H 33.95337"
       style="fill:#ffffff;stroke:#ffffff;stroke-width:2.83466;stroke-linecap:butt;stroke-linejoin:miter;stroke-miterlimit:10;stroke-dasharray:none;stroke-opacity:1"
       transform="matrix(1.3333333,0,0,-1.3333333,29.674667,389.84133)" />
    <path
       id="path74"
       d="M 10.16418,0 C 7.15253,0.56467 2.2587,2.2587 -1.12935,4.23506 V -4.23506 C 2.2587,-2.2587 7.15253,-0.56467 10.16418,0"
       style="fill:#ffffff;fill-opacity:1;fill-rule:nonzero;stroke:#ffffff"
       transform="matrix(1.3333333,0,0,-1.3333333,74.945827,389.84133)" />
    <path
       id="path75"
       d="M 69.26967,0 H 90.64699"
       style="fill:#ffffff;stroke:#ffffff;stroke-width:2.83466;stroke-linecap:butt;stroke-linejoin:miter;stroke-miterlimit:10;stroke-dasharray:none;stroke-opacity:1"
       transform="matrix(1.3333333,0,0,-1.3333333,29.674667,389.84133)" />
    <path
       id="path76"
       d="M 10.16418,0 C 7.15253,0.56467 2.2587,2.2587 -1.12935,4.23506 V -4.23506 C 2.2587,-2.2587 7.15253,-0.56467 10.16418,0"
       style="fill:#ffffff;fill-opacity:1;fill-rule:nonzero;stroke:#ffffff"
       transform="matrix(1.3333333,0,0,-1.3333333,150.53732,389.84133)" />
    <path
       id="path77"
       d="M 125.96329,0 H 147.3406"
       style="fill:#ffffff;stroke:#ffffff;stroke-width:2.83466;stroke-linecap:butt;stroke-linejoin:miter;stroke-miterlimit:10;stroke-dasharray:none;stroke-opacity:1"
       transform="matrix(1.3333333,0,0,-1.3333333,29.674667,389.84133)" />
    <path
       id="path78"
       d="M 10.16418,0 C 7.15253,0.56467 2.2587,2.2587 -1.12935,4.23506 V -4.23506 C 2.2587,-2.2587 7.15253,-0.56467 10.16418,0"
       style="fill:#ffffff;fill-opacity:1;fill-rule:nonzero;stroke:#ffffff"
       transform="matrix(1.3333333,0,0,-1.3333333,226.1288,389.84133)" />
    <path
       id="path79"
       d="m 182.6569,0 h 21.37733"
       style="fill:#ffffff;stroke:#ffffff;stroke-width:2.83466;stroke-linecap:butt;stroke-linejoin:miter;stroke-miterlimit:10;stroke-dasharray:none;stroke-opacity:1"
       transform="matrix(1.3333333,0,0,-1.3333333,29.674667,389.84133)" />
    <path
       id="path80"
       d="M 10.16418,0 C 7.15253,0.56467 2.2587,2.2587 -1.12935,4.23506 V -4.23506 C 2.2587,-2.2587 7.15253,-0.56467 10.16418,0"
       style="fill:#ffffff;fill-opacity:1;fill-rule:nonzero;stroke:#ffffff"
       transform="matrix(1.3333333,0,0,-1.3333333,301.72031,389.84133)" />
    <path
       id="path81"
       d="m 239.35052,0 h 21.37732"
       style="fill:#ffffff;stroke:#ffffff;stroke-width:2.83466;stroke-linecap:butt;stroke-linejoin:miter;stroke-miterlimit:10;stroke-dasharray:none;stroke-opacity:1"
       transform="matrix(1.3333333,0,0,-1.3333333,29.674667,389.84133)" />
    <path
       id="path82"
       d="M 10.16418,0 C 7.15253,0.56467 2.2587,2.2587 -1.12935,4.23506 V -4.23506 C 2.2587,-2.2587 7.15253,-0.56467 10.16418,0"
       style="fill:#ffffff;fill-opacity:1;fill-rule:nonzero;stroke:#ffffff"
       transform="matrix(1.3333333,0,0,-1.3333333,377.31179,389.84133)" />
    <path
       id="path83"
       d="m 12.57603,12.57315 27.8201,27.81816"
       style="fill:#ffffff;stroke:#ffffff;stroke-width:2.83466;stroke-linecap:butt;stroke-linejoin:miter;stroke-miterlimit:10;stroke-dasharray:none;stroke-opacity:1"
       transform="matrix(1.3333333,0,0,-1.3333333,29.674667,389.84133)" />
    <path
       id="path84"
       d="M 10.16418,0 C 7.15253,0.56467 2.2587,2.2587 -1.12935,4.23506 V -4.23506 C 2.2587,-2.2587 7.15253,-0.56467 10.16418,0"
       style="fill:#ffffff;fill-opacity:1;fill-rule:nonzero;stroke:#ffffff"
       transform="matrix(0.94282667,-0.94277333,-0.94277333,-0.94282667,83.536173,335.98627)" />
    <path
       id="path85"
       d="M 69.26967,56.69362 H 90.64699"
       style="fill:#ffffff;stroke:#ffffff;stroke-width:2.83466;stroke-linecap:butt;stroke-linejoin:miter;stroke-miterlimit:10;stroke-dasharray:none;stroke-opacity:1"
       transform="matrix(1.3333333,0,0,-1.3333333,29.674667,389.84133)" />
    <path
       id="path86"
       d="M 10.16418,0 C 7.15253,0.56467 2.2587,2.2587 -1.12935,4.23506 V -4.23506 C 2.2587,-2.2587 7.15253,-0.56467 10.16418,0"
       style="fill:#ffffff;fill-opacity:1;fill-rule:nonzero;stroke:#ffffff"
       transform="matrix(1.3333333,0,0,-1.3333333,150.53732,314.24984)" />
    <path
       id="path87"
       d="M 125.96329,56.69362 H 147.3406"
       style="fill:#ffffff;stroke:#ffffff;stroke-width:2.83466;stroke-linecap:butt;stroke-linejoin:miter;stroke-miterlimit:10;stroke-dasharray:none;stroke-opacity:1"
       transform="matrix(1.3333333,0,0,-1.3333333,29.674667,389.84133)" />
    <path
       id="path88"
       d="M 10.16418,0 C 7.15253,0.56467 2.2587,2.2587 -1.12935,4.23506 V -4.23506 C 2.2587,-2.2587 7.15253,-0.56467 10.16418,0"
       style="fill:#ffffff;fill-opacity:1;fill-rule:nonzero;stroke:#ffffff"
       transform="matrix(1.3333333,0,0,-1.3333333,226.1288,314.24984)" />
    <path
       id="path89"
       d="m 182.6569,56.69362 h 21.37733"
       style="fill:#ffffff;stroke:#ffffff;stroke-width:2.83466;stroke-linecap:butt;stroke-linejoin:miter;stroke-miterlimit:10;stroke-dasharray:none;stroke-opacity:1"
       transform="matrix(1.3333333,0,0,-1.3333333,29.674667,389.84133)" />
    <path
       id="path90"
       d="M 10.16418,0 C 7.15253,0.56467 2.2587,2.2587 -1.12935,4.23506 V -4.23506 C 2.2587,-2.2587 7.15253,-0.56467 10.16418,0"
       style="fill:#ffffff;fill-opacity:1;fill-rule:nonzero;stroke:#ffffff"
       transform="matrix(1.3333333,0,0,-1.3333333,301.72031,314.24984)" />
    <path
       id="path91"
       d="m 239.35052,56.69362 h 21.37732"
       style="fill:#ffffff;stroke:#ffffff;stroke-width:2.83466;stroke-linecap:butt;stroke-linejoin:miter;stroke-miterlimit:10;stroke-dasharray:none;stroke-opacity:1"
       transform="matrix(1.3333333,0,0,-1.3333333,29.674667,389.84133)" />
    <path
       id="path92"
       d="M 10.16418,0 C 7.15253,0.56467 2.2587,2.2587 -1.12935,4.23506 V -4.23506 C 2.2587,-2.2587 7.15253,-0.56467 10.16418,0"
       style="fill:#ffffff;fill-opacity:1;fill-rule:nonzero;stroke:#ffffff"
       transform="matrix(1.3333333,0,0,-1.3333333,377.31179,314.24984)" />
    <path
       id="path93"
       d="M 65.80792,65.80905 97.08945,97.08539"
       style="fill:#ffffff;stroke:#ffffff;stroke-width:2.83466;stroke-linecap:butt;stroke-linejoin:miter;stroke-miterlimit:10;stroke-dasharray:none;stroke-opacity:1"
       transform="matrix(1.3333333,0,0,-1.3333333,29.674667,389.84133)" />
    <path
       id="path94"
       d="M 10.16418,0 C 7.15253,0.56467 2.2587,2.2587 -1.12935,4.23506 V -4.23506 C 2.2587,-2.2587 7.15253,-0.56467 10.16418,0"
       style="fill:#ffffff;fill-opacity:1;fill-rule:nonzero;stroke:#ffffff"
       transform="matrix(0.94286667,-0.94270667,-0.94270667,-0.94286667,159.12724,260.39415)" />
    <path
       id="path95"
       d="m 122.50154,65.80905 31.28153,31.27634"
       style="fill:#ffffff;stroke:#ffffff;stroke-width:2.83466;stroke-linecap:butt;stroke-linejoin:miter;stroke-miterlimit:10;stroke-dasharray:none;stroke-opacity:1"
       transform="matrix(1.3333333,0,0,-1.3333333,29.674667,389.84133)" />
    <path
       id="path96"
       d="M 10.16418,0 C 7.15253,0.56467 2.2587,2.2587 -1.12935,4.23506 V -4.23506 C 2.2587,-2.2587 7.15253,-0.56467 10.16418,0"
       style="fill:#ffffff;fill-opacity:1;fill-rule:nonzero;stroke:#ffffff"
       transform="matrix(0.94286667,-0.94270667,-0.94270667,-0.94286667,234.71873,260.39415)" />
    <path
       id="path97"
       d="m 182.6569,113.38724 h 21.37733"
       style="fill:#ffffff;stroke:#ffffff;stroke-width:2.83466;stroke-linecap:butt;stroke-linejoin:miter;stroke-miterlimit:10;stroke-dasharray:none;stroke-opacity:1"
       transform="matrix(1.3333333,0,0,-1.3333333,29.674667,389.84133)" />
    <path
       id="path98"
       d="M 10.16418,0 C 7.15253,0.56467 2.2587,2.2587 -1.12935,4.23506 V -4.23506 C 2.2587,-2.2587 7.15253,-0.56467 10.16418,0"
       style="fill:#ffffff;fill-opacity:1;fill-rule:nonzero;stroke:#ffffff"
       transform="matrix(1.3333333,0,0,-1.3333333,301.72031,238.65835)" />
    <path
       id="path99"
       d="m 239.35052,113.38724 h 21.37732"
       style="fill:#ffffff;stroke:#ffffff;stroke-width:2.83466;stroke-linecap:butt;stroke-linejoin:miter;stroke-miterlimit:10;stroke-dasharray:none;stroke-opacity:1"
       transform="matrix(1.3333333,0,0,-1.3333333,29.674667,389.84133)" />
    <path
       id="path100"
       d="M 10.16418,0 C 7.15253,0.56467 2.2587,2.2587 -1.12935,4.23506 V -4.23506 C 2.2587,-2.2587 7.15253,-0.56467 10.16418,0"
       style="fill:#ffffff;fill-opacity:1;fill-rule:nonzero;stroke:#ffffff"
       transform="matrix(1.3333333,0,0,-1.3333333,377.31179,238.65835)" />
    <path
       id="path101"
       d="M 122.50154,122.50267 153.78307,153.779"
       style="fill:#ffffff;stroke:#ffffff;stroke-width:2.83466;stroke-linecap:butt;stroke-linejoin:miter;stroke-miterlimit:10;stroke-dasharray:none;stroke-opacity:1"
       transform="matrix(1.3333333,0,0,-1.3333333,29.674667,389.84133)" />
    <path
       id="path102"
       d="M 10.16418,0 C 7.15253,0.56467 2.2587,2.2587 -1.12935,4.23506 V -4.23506 C 2.2587,-2.2587 7.15253,-0.56467 10.16418,0"
       style="fill:#ffffff;fill-opacity:1;fill-rule:nonzero;stroke:#ffffff"
       transform="matrix(0.94286667,-0.94270667,-0.94270667,-0.94286667,234.71873,184.80267)" />
    <path
       id="path103"
       d="M 179.19516,122.50267 210.47668,153.779"
       style="fill:#ffffff;stroke:#ffffff;stroke-width:2.83466;stroke-linecap:butt;stroke-linejoin:miter;stroke-miterlimit:10;stroke-dasharray:none;stroke-opacity:1"
       transform="matrix(1.3333333,0,0,-1.3333333,29.674667,389.84133)" />
    <path
       id="path104"
       d="M 10.16418,0 C 7.15253,0.56467 2.2587,2.2587 -1.12935,4.23506 V -4.23506 C 2.2587,-2.2587 7.15253,-0.56467 10.16418,0"
       style="fill:#ffffff;fill-opacity:1;fill-rule:nonzero;stroke:#ffffff"
       transform="matrix(0.94286667,-0.94270667,-0.94270667,-0.94286667,310.31023,184.80267)" />
    <path
       id="path105"
       d="M 235.8888,122.50267 267.1703,153.779"
       style="fill:#ffffff;stroke:#ffffff;stroke-width:2.83466;stroke-linecap:butt;stroke-linejoin:miter;stroke-miterlimit:10;stroke-dasharray:none;stroke-opacity:1"
       transform="matrix(1.3333333,0,0,-1.3333333,29.674667,389.84133)" />
    <path
       id="path106"
       d="M 10.16418,0 C 7.15253,0.56467 2.2587,2.2587 -1.12935,4.23506 V -4.23506 C 2.2587,-2.2587 7.15253,-0.56467 10.16418,0"
       style="fill:#ffffff;fill-opacity:1;fill-rule:nonzero;stroke:#ffffff"
       transform="matrix(0.94286667,-0.94270667,-0.94270667,-0.94286667,385.90172,184.80267)" />
    <path
       id="path107"
       d="m 179.19516,179.19629 31.28152,31.27634"
       style="fill:#ffffff;stroke:#ffffff;stroke-width:2.83466;stroke-linecap:butt;stroke-linejoin:miter;stroke-miterlimit:10;stroke-dasharray:none;stroke-opacity:1"
       transform="matrix(1.3333333,0,0,-1.3333333,29.674667,389.84133)" />
    <path
       id="path108"
       d="M 10.16418,0 C 7.15253,0.56467 2.2587,2.2587 -1.12935,4.23506 V -4.23506 C 2.2587,-2.2587 7.15253,-0.56467 10.16418,0"
       style="fill:#ffffff;fill-opacity:1;fill-rule:nonzero;stroke:#ffffff"
       transform="matrix(0.94286667,-0.94270667,-0.94270667,-0.94286667,310.31023,109.21116)" />
    <path
       id="path109"
       d="m 235.8888,179.19629 31.2815,31.27634"
       style="fill:#ffffff;stroke:#ffffff;stroke-width:2.83466;stroke-linecap:butt;stroke-linejoin:miter;stroke-miterlimit:10;stroke-dasharray:none;stroke-opacity:1"
       transform="matrix(1.3333333,0,0,-1.3333333,29.674667,389.84133)" />
    <path
       id="path110"
       d="M 10.16418,0 C 7.15253,0.56467 2.2587,2.2587 -1.12935,4.23506 V -4.23506 C 2.2587,-2.2587 7.15253,-0.56467 10.16418,0"
       style="fill:#ffffff;fill-opacity:1;fill-rule:nonzero;stroke:#ffffff"
       transform="matrix(0.94286667,-0.94270667,-0.94270667,-0.94286667,385.90172,109.21116)" />
    <path
       id="path111"
       d="m 235.8888,235.88991 31.2815,31.27633"
       style="fill:#ffffff;stroke:#ffffff;stroke-width:2.83466;stroke-linecap:butt;stroke-linejoin:miter;stroke-miterlimit:10;stroke-dasharray:none;stroke-opacity:1"
       transform="matrix(1.3333333,0,0,-1.3333333,29.674667,389.84133)" />
    <path
       id="path112"
       d="M 10.16418,0 C 7.15253,0.56467 2.2587,2.2587 -1.12935,4.23506 V -4.23506 C 2.2587,-2.2587 7.15253,-0.56467 10.16418,0"
       style="fill:#ffffff;fill-opacity:1;fill-rule:nonzero;stroke:#ffffff"
       transform="matrix(0.94286667,-0.94270667,-0.94270667,-0.94286667,385.90172,33.61968)" />
  </g>
</svg>
