<?xml version="1.0" encoding="UTF-8" standalone="no"?>
<!-- Created with Inkscape (http://www.inkscape.org/) -->

<svg
   version="1.1"
   id="svg1"
   width="410.95734"
   height="413.41867"
   viewBox="0 0 410.95734 413.41867"
   sodipodi:docname="dlml.pdf"
   xmlns:inkscape="http://www.inkscape.org/namespaces/inkscape"
   xmlns:sodipodi="http://sodipodi.sourceforge.net/DTD/sodipodi-0.dtd"
   xmlns="http://www.w3.org/2000/svg"
   xmlns:svg="http://www.w3.org/2000/svg">
  <defs
     id="defs1" />
  <sodipodi:namedview
     id="namedview1"
     pagecolor="#ffffff"
     bordercolor="#000000"
     borderopacity="0.25"
     inkscape:showpageshadow="2"
     inkscape:pageopacity="0.0"
     inkscape:pagecheckerboard="0"
     inkscape:deskcolor="#d1d1d1">
    <inkscape:page
       x="0"
       y="0"
       inkscape:label="1"
       id="page1"
       width="410.95734"
       height="413.41867"
       margin="0"
       bleed="0" />
  </sodipodi:namedview>
  <g
     id="g1"
     inkscape:groupmode="layer"
     inkscape:label="1">
    <g
       id="g2"
       aria-label="0,0&#10;l,m"
       transform="matrix(1.3333333,0,0,1.3333333,5.2026667,381.73867)">
      <path
         id="path2"
         d="m 5.3558125,-3.8206016 c 0,-0.9960937 -0.058594,-1.96875 -0.4921875,-2.8710937 -0.4921875,-0.9960938 -1.3476562,-1.2539063 -1.9335937,-1.2539063 -0.6914063,0 -1.546875,0.3398438 -1.9804688,1.3359375 -0.33984375,0.75 -0.45703125,1.4882813 -0.45703125,2.7890625 0,1.1601563 0.0820313,2.0273438 0.51562505,2.87109379 0.4570312,0.9140625 1.2890625,1.1953125 1.9101562,1.1953125 1.0429688,0 1.640625,-0.62109375 1.9804688,-1.31249999 0.4335937,-0.890625 0.4570312,-2.0625 0.4570312,-2.7539063 z m -2.4375,3.83203129 c -0.3867187,0 -1.1601562,-0.2109375 -1.3828125,-1.52343749 -0.140625,-0.7148438 -0.140625,-1.6171875 -0.140625,-2.4609375 0,-0.9726563 0,-1.8632813 0.1992188,-2.5664063 0.1992187,-0.796875 0.8085937,-1.171875 1.3242187,-1.171875 0.4570313,0 1.1484375,0.28125 1.3710938,1.3007813 0.1523437,0.6796875 0.1523437,1.6289062 0.1523437,2.4375 0,0.8085937 0,1.7109375 -0.1289062,2.4375 -0.2226563,1.32421874 -0.9726563,1.54687499 -1.3945313,1.54687499 z m 0,0"
         style="fill:#000000;fill-opacity:1;fill-rule:nonzero;stroke:none" />
      <path
         id="path3"
         d="m 8.1858906,0.04658594 c 0,-0.69140625 -0.2226562,-1.20703124 -0.7148437,-1.20703124 -0.3867188,0 -0.5742188,0.31640624 -0.5742188,0.57421874 0,0.2578125 0.1757813,0.5859374975 0.5859375,0.5859374975 0.1523438,0 0.28125,-0.0468749975 0.3867188,-0.1523437475 0.023437,-0.0234375 0.035156,-0.0234375 0.046875,-0.0234375 0.035156,0 0.035156,0.1640625 0.035156,0.22265625 0,0.3984375 -0.082031,1.17187496 -0.7734375,1.94531246 -0.1289062,0.1523438 -0.1289062,0.1757813 -0.1289062,0.1992188 0,0.058594 0.058594,0.1171875 0.1171875,0.1171875 0.09375,0 1.0195312,-0.890625 1.0195314,-2.26171876 z m 0,0"
         style="fill:#000000;fill-opacity:1;fill-rule:nonzero;stroke:none" />
      <path
         id="path4"
         d="m 16.456398,-3.8206016 c 0,-0.9960937 -0.05859,-1.96875 -0.492187,-2.8710937 -0.492188,-0.9960938 -1.347656,-1.2539063 -1.933594,-1.2539063 -0.691406,0 -1.546875,0.3398438 -1.980469,1.3359375 -0.339843,0.75 -0.457031,1.4882813 -0.457031,2.7890625 0,1.1601563 0.08203,2.0273438 0.515625,2.87109379 0.457031,0.9140625 1.289063,1.1953125 1.910156,1.1953125 1.042969,0 1.640625,-0.62109375 1.980469,-1.31249999 0.433594,-0.890625 0.457031,-2.0625 0.457031,-2.7539063 z m -2.4375,3.83203129 c -0.386718,0 -1.160156,-0.2109375 -1.382812,-1.52343749 -0.140625,-0.7148438 -0.140625,-1.6171875 -0.140625,-2.4609375 0,-0.9726563 0,-1.8632813 0.199219,-2.5664063 0.199218,-0.796875 0.808593,-1.171875 1.324218,-1.171875 0.457032,0 1.148438,0.28125 1.371094,1.3007813 0.152344,0.6796875 0.152344,1.6289062 0.152344,2.4375 0,0.8085937 0,1.7109375 -0.128906,2.4375 -0.222657,1.32421874 -0.972657,1.54687499 -1.394532,1.54687499 z m 0,0"
         style="fill:#000000;fill-opacity:1;fill-rule:nonzero;stroke:none" />
      <path
         id="path5"
         d="m 3.3401875,6.4860391 c 0.011719,-0.046875 0.035156,-0.1289063 0.035156,-0.1875 0,-0.1171875 -0.1171875,-0.1171875 -0.140625,-0.1171875 -0.011719,0 -0.4453125,0.035156 -0.65625,0.058594 -0.2109375,0.011719 -0.3867188,0.035156 -0.5976563,0.046875 -0.2929687,0.023437 -0.375,0.035156 -0.375,0.2578125 0,0.1171875 0.1171875,0.1171875 0.2460938,0.1171875 0.609375,0 0.609375,0.1054688 0.609375,0.2226563 0,0.046875 0,0.070312 -0.058594,0.2929687 L 0.91440625,13.107133 c -0.0351563,0.128906 -0.0585938,0.222656 -0.0585938,0.410156 0,0.597656 0.44531245,1.078125 1.05468745,1.078125 0.3867189,0 0.6562501,-0.257812 0.8437501,-0.632812 0.1992188,-0.398438 0.375,-1.148438 0.375,-1.195313 0,-0.05859 -0.046875,-0.105469 -0.1171875,-0.105469 -0.1171875,0 -0.1289062,0.05859 -0.1757812,0.234375 -0.2109375,0.832032 -0.421875,1.464844 -0.9023438,1.464844 -0.3632812,0 -0.3632812,-0.386719 -0.3632812,-0.550781 0,-0.04687 0,-0.304688 0.082031,-0.632813 z m 0,0"
         style="fill:#000000;fill-opacity:1;fill-rule:nonzero;stroke:none" />
      <path
         id="path6"
         d="m 5.5433125,14.361039 c 0,0.515625 -0.1054687,0.972656 -0.609375,1.464844 -0.023437,0.02344 -0.046875,0.03516 -0.046875,0.08203 0,0.05859 0.070312,0.105469 0.1289063,0.105469 0.09375,0 0.75,-0.621094 0.75,-1.558594 0,-0.515625 -0.1875,-0.855469 -0.5390625,-0.855469 -0.28125,0 -0.4335938,0.222657 -0.4335938,0.433594 0,0.222656 0.140625,0.445313 0.4453125,0.445313 0.1875,0 0.3046875,-0.117188 0.3046875,-0.117187 z m 0,0"
         style="fill:#000000;fill-opacity:1;fill-rule:nonzero;stroke:none" />
      <path
         id="path7"
         d="m 8.8685078,10.97432 c 0.023437,-0.07031 0.328125,-0.667968 0.7617188,-1.0546872 0.3164062,-0.28125 0.7265624,-0.46875 1.1835934,-0.46875 0.480469,0 0.644532,0.3515625 0.644532,0.8320312 0,0.07031 0,0.304688 -0.140625,0.867188 l -0.292969,1.230468 c -0.09375,0.363282 -0.328125,1.253907 -0.351563,1.382813 -0.04687,0.175781 -0.117187,0.492187 -0.117187,0.539062 0,0.164063 0.128906,0.292969 0.304687,0.292969 0.363282,0 0.421875,-0.269531 0.527344,-0.703125 l 0.726563,-2.859375 c 0.02344,-0.09375 0.644531,-1.5820312 1.957031,-1.5820312 0.480469,0 0.644531,0.3515625 0.644531,0.8320312 0,0.667969 -0.46875,1.96875 -0.726562,2.683594 -0.105469,0.292969 -0.175782,0.445312 -0.175782,0.667969 0,0.527343 0.375,0.960937 0.949219,0.960937 1.113281,0 1.535156,-1.757812 1.535156,-1.828125 0,-0.05859 -0.05859,-0.105469 -0.128906,-0.105469 -0.105469,0 -0.117187,0.03516 -0.175781,0.234375 -0.269531,0.960938 -0.714844,1.464844 -1.195313,1.464844 -0.117187,0 -0.304687,-0.01172 -0.304687,-0.398437 0,-0.304688 0.140625,-0.691407 0.1875,-0.820313 0.210937,-0.574219 0.75,-1.992187 0.75,-2.683594 0,-0.7148434 -0.421875,-1.2539059 -1.324219,-1.2539059 -0.796875,0 -1.453125,0.4570312 -1.921875,1.1601559 -0.03516,-0.6445309 -0.433594,-1.1601559 -1.335937,-1.1601559 -1.0546879,0 -1.6171879,0.75 -1.8398442,1.0546879 C 8.9739766,9.5797891 8.4817891,9.2047891 7.9661641,9.2047891 c -0.3515625,0 -0.6210938,0.1640625 -0.8554688,0.6210937 -0.2109375,0.4335942 -0.375,1.1601562 -0.375,1.2070312 0,0.04687 0.046875,0.105469 0.1289063,0.105469 0.09375,0 0.1054687,-0.01172 0.1757812,-0.28125 0.1757813,-0.703125 0.4101563,-1.4062502 0.890625,-1.4062502 0.2695313,0 0.3632813,0.1875 0.3632813,0.5390625 0,0.2695317 -0.1171875,0.7382817 -0.1992188,1.1015627 L 7.7552266,12.38057 c -0.046875,0.234375 -0.1757813,0.773438 -0.234375,0.984375 -0.082031,0.316407 -0.2109375,0.878907 -0.2109375,0.9375 0,0.164063 0.1289062,0.292969 0.3046875,0.292969 0.140625,0 0.3164062,-0.07031 0.4101562,-0.246094 0.023437,-0.05859 0.1289063,-0.480468 0.1875,-0.714843 l 0.2578125,-1.078125 z m 0,0"
         style="fill:#000000;fill-opacity:1;fill-rule:nonzero;stroke:none" />
    </g>
    <g
       id="g7"
       aria-label="1,0"
       transform="matrix(1.3333333,0,0,1.3333333,80.792,393.428)">
      <path
         id="path8"
         d="m 3.4460391,-7.6627969 c 0,-0.2695312 0,-0.28125 -0.2460938,-0.28125 -0.28125,0.3164063 -0.8789062,0.7617188 -2.109375,0.7617188 v 0.3515625 c 0.2695313,0 0.8671875,0 1.5234375,-0.3164063 v 6.22265627 c 0,0.43359375 -0.035156,0.57421875 -1.078125,0.57421875 h -0.375 v 0.3515625 c 0.3164063,-0.0234375 1.4765625,-0.0234375 1.875,-0.0234375 0.3984375,0 1.546875,0 1.8632813,0.0234375 v -0.3515625 H 4.5358828 c -1.0546875,0 -1.0898437,-0.140625 -1.0898437,-0.57421875 z m 0,0"
         style="fill:#000000;fill-opacity:1;fill-rule:nonzero;stroke:none" />
      <path
         id="path9"
         d="m 8.1862734,0.04814062 c 0,-0.69140625 -0.2226562,-1.20703122 -0.7148437,-1.20703122 -0.3867188,0 -0.5742188,0.31640622 -0.5742188,0.57421872 0,0.2578125 0.1757813,0.5859375 0.5859375,0.5859375 0.1523438,0 0.28125,-0.046875 0.3867188,-0.15234375 0.023437,-0.0234375 0.035156,-0.0234375 0.046875,-0.0234375 0.035156,0 0.035156,0.1640625 0.035156,0.22265625 0,0.3984375 -0.082031,1.17187498 -0.7734375,1.94531248 -0.1289062,0.1523438 -0.1289062,0.1757813 -0.1289062,0.1992188 0,0.058594 0.058594,0.1171875 0.1171875,0.1171875 0.09375,0 1.0195312,-0.890625 1.0195314,-2.26171878 z m 0,0"
         style="fill:#000000;fill-opacity:1;fill-rule:nonzero;stroke:none" />
      <path
         id="path10"
         d="m 16.456781,-3.8190469 c 0,-0.9960937 -0.05859,-1.96875 -0.492187,-2.8710937 -0.492188,-0.9960938 -1.347657,-1.2539063 -1.933594,-1.2539063 -0.691406,0 -1.546875,0.3398438 -1.980469,1.3359375 -0.339844,0.75 -0.457031,1.4882813 -0.457031,2.7890625 0,1.1601563 0.08203,2.0273438 0.515625,2.87109377 0.457031,0.9140625 1.289062,1.1953125 1.910156,1.1953125 1.042969,0 1.640625,-0.62109375 1.980469,-1.31249997 0.433594,-0.890625 0.457031,-2.0625 0.457031,-2.7539063 z m -2.4375,3.83203127 c -0.386719,0 -1.160156,-0.2109375 -1.382812,-1.52343747 -0.140625,-0.7148438 -0.140625,-1.6171875 -0.140625,-2.4609375 0,-0.9726563 0,-1.8632813 0.199218,-2.5664063 0.199219,-0.796875 0.808594,-1.171875 1.324219,-1.171875 0.457031,0 1.148438,0.28125 1.371094,1.3007813 0.152344,0.6796875 0.152344,1.6289062 0.152344,2.4375 0,0.8085937 0,1.7109375 -0.128907,2.4375 -0.222656,1.32421872 -0.972656,1.54687497 -1.394531,1.54687497 z m 0,0"
         style="fill:#000000;fill-opacity:1;fill-rule:nonzero;stroke:none" />
    </g>
    <g
       id="g10"
       aria-label="2,0"
       transform="matrix(1.3333333,0,0,1.3333333,156.38267,393.428)">
      <path
         id="path11"
         d="M 5.2618281,-2.0026406 H 4.9922969 c -0.035156,0.1992187 -0.1289063,0.8554687 -0.2460938,1.04296872 -0.082031,0.1171875 -0.7617187,0.1171875 -1.125,0.1171875 H 1.4063594 c 0.328125,-0.28125002 1.0546875,-1.04296872 1.3710937,-1.33593752 1.8164063,-1.6640625 2.484375,-2.2851562 2.484375,-3.46875 0,-1.3828125 -1.0898437,-2.296875 -2.4726562,-2.296875 -1.3945313,0 -2.20312503,1.1835938 -2.20312503,2.203125 0,0.609375 0.52734373,0.609375 0.56250003,0.609375 0.2460937,0 0.5625,-0.1757812 0.5625,-0.5625 0,-0.328125 -0.234375,-0.5507812 -0.5625,-0.5507812 -0.1054688,0 -0.1289063,0 -0.16406253,0.011719 0.22265623,-0.8203125 0.86718753,-1.3710937 1.64062503,-1.3710937 1.0195312,0 1.640625,0.8554687 1.640625,1.9570312 0,1.0078125 -0.5859375,1.8984375 -1.265625,2.6601563 l -2.41406253,2.70703122 v 0.28125 H 4.9454219 Z m 0,0"
         style="fill:#000000;fill-opacity:1;fill-rule:nonzero;stroke:none" />
      <path
         id="path12"
         d="m 8.1856562,0.04814062 c 0,-0.69140625 -0.2226562,-1.20703122 -0.7148437,-1.20703122 -0.3867188,0 -0.5742188,0.31640622 -0.5742188,0.57421872 0,0.2578125 0.1757813,0.5859375 0.5859375,0.5859375 0.1523438,0 0.28125,-0.046875 0.3867188,-0.15234375 0.023437,-0.0234375 0.035156,-0.0234375 0.046875,-0.0234375 0.035156,0 0.035156,0.1640625 0.035156,0.22265625 0,0.3984375 -0.082031,1.17187498 -0.7734375,1.94531248 -0.1289062,0.1523438 -0.1289062,0.1757813 -0.1289062,0.1992188 0,0.058594 0.058594,0.1171875 0.1171875,0.1171875 0.09375,0 1.0195312,-0.890625 1.0195314,-2.26171878 z m 0,0"
         style="fill:#000000;fill-opacity:1;fill-rule:nonzero;stroke:none" />
      <path
         id="path13"
         d="m 16.456164,-3.8190469 c 0,-0.9960937 -0.05859,-1.96875 -0.492187,-2.8710937 -0.492188,-0.9960938 -1.347657,-1.2539063 -1.933594,-1.2539063 -0.691406,0 -1.546875,0.3398438 -1.980469,1.3359375 -0.339844,0.75 -0.457031,1.4882813 -0.457031,2.7890625 0,1.1601563 0.08203,2.0273438 0.515625,2.87109377 0.457031,0.9140625 1.289062,1.1953125 1.910156,1.1953125 1.042969,0 1.640625,-0.62109375 1.980469,-1.31249997 0.433594,-0.890625 0.457031,-2.0625 0.457031,-2.7539063 z m -2.4375,3.83203127 c -0.386719,0 -1.160156,-0.2109375 -1.382812,-1.52343747 -0.140625,-0.7148438 -0.140625,-1.6171875 -0.140625,-2.4609375 0,-0.9726563 0,-1.8632813 0.199218,-2.5664063 0.199219,-0.796875 0.808594,-1.171875 1.324219,-1.171875 0.457031,0 1.148438,0.28125 1.371094,1.3007813 0.152344,0.6796875 0.152344,1.6289062 0.152344,2.4375 0,0.8085937 0,1.7109375 -0.128907,2.4375 -0.222656,1.32421872 -0.972656,1.54687497 -1.394531,1.54687497 z m 0,0"
         style="fill:#000000;fill-opacity:1;fill-rule:nonzero;stroke:none" />
    </g>
    <g
       id="g13"
       aria-label="3,0"
       transform="matrix(1.3333333,0,0,1.3333333,231.97333,393.428)">
      <path
         id="path14"
         d="m 2.2026172,-4.2877969 c -0.2109375,0.011719 -0.2578125,0.023437 -0.2578125,0.1289063 0,0.1171875 0.058594,0.1171875 0.28125,0.1171875 h 0.5507812 c 1.0078125,0 1.4648438,0.84375 1.4648438,1.9921875 0,1.55859372 -0.8085938,1.98046872 -1.3945313,1.98046872 -0.5742187,0 -1.5585937,-0.28125 -1.89843746,-1.06640622 0.37499996,0.058594 0.72656246,-0.1523438 0.72656246,-0.5859375 0,-0.3398438 -0.2578125,-0.5859375 -0.5859375,-0.5859375 -0.29296871,0 -0.59765621,0.1640625 -0.59765621,0.6210937 0,1.06640627 1.06640621,1.93359377 2.39062501,1.93359377 1.4179687,0 2.4726562,-1.078125 2.4726562,-2.28515627 0,-1.1015625 -0.890625,-1.96875 -2.0273437,-2.1679687 1.03125,-0.3046875 1.6992187,-1.171875 1.6992187,-2.109375 0,-0.9375 -0.9726562,-1.6289063 -2.1328125,-1.6289063 -1.1953125,0 -2.08593746,0.7265625 -2.08593746,1.59375 0,0.4804688 0.37499996,0.5742188 0.55078126,0.5742188 0.2578125,0 0.5390625,-0.1757813 0.5390625,-0.5390625 0,-0.375 -0.28125,-0.5390625 -0.5507813,-0.5390625 -0.070312,0 -0.09375,0 -0.1289062,0.011719 0.4570312,-0.8203125 1.5820312,-0.8203125 1.640625,-0.8203125 0.3867187,0 1.171875,0.1757813 1.171875,1.3476563 0,0.234375 -0.035156,0.9023437 -0.3867188,1.4179687 -0.3515625,0.5273438 -0.7617187,0.5625 -1.0898437,0.5742188 z m 0,0"
         style="fill:#000000;fill-opacity:1;fill-rule:nonzero;stroke:none" />
      <path
         id="path15"
         d="m 8.1850391,0.04814062 c 0,-0.69140625 -0.2226563,-1.20703122 -0.7148438,-1.20703122 -0.3867187,0 -0.5742187,0.31640622 -0.5742187,0.57421872 0,0.2578125 0.1757812,0.5859375 0.5859375,0.5859375 0.1523437,0 0.28125,-0.046875 0.3867187,-0.15234375 0.023437,-0.0234375 0.035156,-0.0234375 0.046875,-0.0234375 0.035156,0 0.035156,0.1640625 0.035156,0.22265625 0,0.3984375 -0.082031,1.17187498 -0.7734375,1.94531248 C 7.04832,2.1457969 7.04832,2.1692344 7.04832,2.1926719 c 0,0.058594 0.058594,0.1171875 0.1171875,0.1171875 0.09375,0 1.0195313,-0.890625 1.0195316,-2.26171878 z m 0,0"
         style="fill:#000000;fill-opacity:1;fill-rule:nonzero;stroke:none" />
      <path
         id="path16"
         d="m 16.458477,-3.8190469 c 0,-0.9960937 -0.05859,-1.96875 -0.492188,-2.8710937 -0.492187,-0.9960938 -1.347656,-1.2539063 -1.933594,-1.2539063 -0.691406,0 -1.546875,0.3398438 -1.980468,1.3359375 -0.339844,0.75 -0.457032,1.4882813 -0.457032,2.7890625 0,1.1601563 0.08203,2.0273438 0.515625,2.87109377 0.457032,0.9140625 1.289063,1.1953125 1.910157,1.1953125 1.042968,0 1.640625,-0.62109375 1.980468,-1.31249997 0.433594,-0.890625 0.457032,-2.0625 0.457032,-2.7539063 z m -2.4375,3.83203127 c -0.386719,0 -1.160157,-0.2109375 -1.382813,-1.52343747 -0.140625,-0.7148438 -0.140625,-1.6171875 -0.140625,-2.4609375 0,-0.9726563 0,-1.8632813 0.199219,-2.5664063 0.199219,-0.796875 0.808594,-1.171875 1.324219,-1.171875 0.457031,0 1.148437,0.28125 1.371093,1.3007813 0.152344,0.6796875 0.152344,1.6289062 0.152344,2.4375 0,0.8085937 0,1.7109375 -0.128906,2.4375 -0.222656,1.32421872 -0.972656,1.54687497 -1.394531,1.54687497 z m 0,0"
         style="fill:#000000;fill-opacity:1;fill-rule:nonzero;stroke:none" />
    </g>
    <g
       id="g16"
       aria-label="4,0"
       transform="matrix(1.3333333,0,0,1.3333333,307.564,393.428)">
      <path
         id="path17"
         d="m 4.311375,-7.7799844 c 0,-0.2226562 0,-0.2929687 -0.1640625,-0.2929687 -0.09375,0 -0.1289062,0 -0.2226562,0.1523437 L 0.327,-2.3424844 v 0.3515625 h 3.140625 v 1.07812502 c 0,0.4453125 -0.023437,0.5625 -0.9023437,0.5625 h -0.234375 v 0.3515625 c 0.2695312,-0.0234375 1.21875,-0.0234375 1.5585937,-0.0234375 0.328125,0 1.2890625,0 1.5585938,0.0234375 v -0.3515625 h -0.234375 c -0.8671875,0 -0.9023438,-0.1171875 -0.9023438,-0.5625 V -1.9909219 H 5.5184063 V -2.3424844 H 4.311375 Z m -0.7851562,0.9375 v 4.5 H 0.61996875 Z m 0,0"
         style="fill:#000000;fill-opacity:1;fill-rule:nonzero;stroke:none" />
      <path
         id="path18"
         d="m 8.1844219,0.04814062 c 0,-0.69140625 -0.2226563,-1.20703122 -0.7148438,-1.20703122 -0.3867187,0 -0.5742187,0.31640622 -0.5742187,0.57421872 0,0.2578125 0.1757812,0.5859375 0.5859375,0.5859375 0.1523437,0 0.28125,-0.046875 0.3867187,-0.15234375 0.023437,-0.0234375 0.035156,-0.0234375 0.046875,-0.0234375 0.035156,0 0.035156,0.1640625 0.035156,0.22265625 0,0.3984375 -0.082031,1.17187498 -0.7734375,1.94531248 -0.1289063,0.1523438 -0.1289063,0.1757813 -0.1289063,0.1992188 0,0.058594 0.058594,0.1171875 0.1171875,0.1171875 0.09375,0 1.0195313,-0.890625 1.0195316,-2.26171878 z m 0,0"
         style="fill:#000000;fill-opacity:1;fill-rule:nonzero;stroke:none" />
      <path
         id="path19"
         d="m 16.457859,-3.8190469 c 0,-0.9960937 -0.05859,-1.96875 -0.492187,-2.8710937 -0.492188,-0.9960938 -1.347656,-1.2539063 -1.933594,-1.2539063 -0.691406,0 -1.546875,0.3398438 -1.980469,1.3359375 -0.339843,0.75 -0.457031,1.4882813 -0.457031,2.7890625 0,1.1601563 0.08203,2.0273438 0.515625,2.87109377 0.457031,0.9140625 1.289063,1.1953125 1.910156,1.1953125 1.042969,0 1.640625,-0.62109375 1.980469,-1.31249997 0.433594,-0.890625 0.457031,-2.0625 0.457031,-2.7539063 z m -2.4375,3.83203127 c -0.386718,0 -1.160156,-0.2109375 -1.382812,-1.52343747 -0.140625,-0.7148438 -0.140625,-1.6171875 -0.140625,-2.4609375 0,-0.9726563 0,-1.8632813 0.199219,-2.5664063 0.199218,-0.796875 0.808593,-1.171875 1.324218,-1.171875 0.457032,0 1.148438,0.28125 1.371094,1.3007813 0.152344,0.6796875 0.152344,1.6289062 0.152344,2.4375 0,0.8085937 0,1.7109375 -0.128906,2.4375 -0.222657,1.32421872 -0.972657,1.54687497 -1.394532,1.54687497 z m 0,0"
         style="fill:#000000;fill-opacity:1;fill-rule:nonzero;stroke:none" />
    </g>
    <g
       id="g19"
       aria-label="5,0"
       transform="matrix(1.3333333,0,0,1.3333333,383.15467,393.428)">
      <path
         id="path20"
         d="m 1.5363438,-6.8424844 c 0.5039062,0.1640625 0.9257812,0.1757813 1.0546875,0.1757813 1.359375,0 2.2148437,-0.9960938 2.2148437,-1.1601563 0,-0.046875 -0.023437,-0.1054687 -0.09375,-0.1054687 -0.023437,0 -0.046875,0 -0.1523437,0.046875 -0.6679688,0.28125 -1.2421875,0.3164062 -1.5585938,0.3164062 -0.7851562,0 -1.3476562,-0.234375 -1.5820312,-0.328125 -0.082031,-0.035156 -0.1054688,-0.035156 -0.1171875,-0.035156 -0.09375,0 -0.09375,0.070312 -0.09375,0.2578125 v 3.5507812 c 0,0.2109375 0,0.2929688 0.140625,0.2929688 0.058594,0 0.070312,-0.011719 0.1992187,-0.1640625 0.328125,-0.4921875 0.890625,-0.7734375 1.4882813,-0.7734375 0.6328125,0 0.9492187,0.5859375 1.0429687,0.7851562 0.1992188,0.46875 0.2109375,1.0546875 0.2109375,1.5117188 0,0.4570312 0,1.1367187 -0.328125,1.67578122 -0.2695312,0.421875 -0.7382812,0.7265625 -1.2539062,0.7265625 -0.796875,0 -1.5703125,-0.5390625 -1.78125005,-1.40625002 0.0585938,0.023437 0.12890625,0.035156 0.18750005,0.035156 0.1992187,0 0.5273437,-0.1289063 0.5273437,-0.5273438 0,-0.3398437 -0.234375,-0.5273437 -0.5273437,-0.5273437 -0.21093755,0 -0.5273438,0.1054687 -0.5273438,0.5742187 0,1.00781252 0.8085938,2.16796877 2.1445313,2.16796877 1.3476562,0 2.53125,-1.125 2.53125,-2.64843747 0,-1.4179688 -0.9609375,-2.6015625 -2.2148438,-2.6015625 -0.6796875,0 -1.2070312,0.2929687 -1.5117187,0.6328125 z m 0,0"
         style="fill:#000000;fill-opacity:1;fill-rule:nonzero;stroke:none" />
      <path
         id="path21"
         d="m 8.1867344,0.04814062 c 0,-0.69140625 -0.2226563,-1.20703122 -0.7148438,-1.20703122 -0.3867187,0 -0.5742187,0.31640622 -0.5742187,0.57421872 0,0.2578125 0.1757812,0.5859375 0.5859375,0.5859375 0.1523437,0 0.28125,-0.046875 0.3867187,-0.15234375 0.023437,-0.0234375 0.035156,-0.0234375 0.046875,-0.0234375 0.035156,0 0.035156,0.1640625 0.035156,0.22265625 0,0.3984375 -0.082031,1.17187498 -0.7734375,1.94531248 -0.1289063,0.1523438 -0.1289063,0.1757813 -0.1289063,0.1992188 0,0.058594 0.058594,0.1171875 0.1171875,0.1171875 0.09375,0 1.0195313,-0.890625 1.0195316,-2.26171878 z m 0,0"
         style="fill:#000000;fill-opacity:1;fill-rule:nonzero;stroke:none" />
      <path
         id="path22"
         d="m 16.457242,-3.8190469 c 0,-0.9960937 -0.05859,-1.96875 -0.492187,-2.8710937 -0.492188,-0.9960938 -1.347657,-1.2539063 -1.933594,-1.2539063 -0.691406,0 -1.546875,0.3398438 -1.980469,1.3359375 -0.339844,0.75 -0.457031,1.4882813 -0.457031,2.7890625 0,1.1601563 0.08203,2.0273438 0.515625,2.87109377 0.457031,0.9140625 1.289062,1.1953125 1.910156,1.1953125 1.042969,0 1.640625,-0.62109375 1.980469,-1.31249997 0.433594,-0.890625 0.457031,-2.0625 0.457031,-2.7539063 z m -2.4375,3.83203127 c -0.386719,0 -1.160156,-0.2109375 -1.382812,-1.52343747 -0.140625,-0.7148438 -0.140625,-1.6171875 -0.140625,-2.4609375 0,-0.9726563 0,-1.8632813 0.199218,-2.5664063 0.199219,-0.796875 0.808594,-1.171875 1.324219,-1.171875 0.457031,0 1.148438,0.28125 1.371094,1.3007813 0.152344,0.6796875 0.152344,1.6289062 0.152344,2.4375 0,0.8085937 0,1.7109375 -0.128907,2.4375 -0.222656,1.32421872 -0.972656,1.54687497 -1.394531,1.54687497 z m 0,0"
         style="fill:#000000;fill-opacity:1;fill-rule:nonzero;stroke:none" />
    </g>
    <g
       id="g22"
       aria-label="1,1"
       transform="matrix(1.3333333,0,0,1.3333333,80.792,317.83733)">
      <path
         id="path23"
         d="m 3.4460391,-7.6651094 c 0,-0.2695312 0,-0.28125 -0.2460938,-0.28125 -0.28125,0.3164063 -0.8789062,0.7617188 -2.109375,0.7617188 v 0.3515625 c 0.2695313,0 0.8671875,0 1.5234375,-0.3164063 v 6.22265627 c 0,0.43359375 -0.035156,0.57421875 -1.078125,0.57421875 h -0.375 v 0.3515625 c 0.3164063,-0.0234375 1.4765625,-0.0234375 1.875,-0.0234375 0.3984375,0 1.546875,0 1.8632813,0.0234375 v -0.3515625 H 4.5358828 c -1.0546875,0 -1.0898437,-0.140625 -1.0898437,-0.57421875 z m 0,0"
         style="fill:#000000;fill-opacity:1;fill-rule:nonzero;stroke:none" />
      <path
         id="path24"
         d="m 8.1862734,0.04582812 c 0,-0.69140625 -0.2226562,-1.20703122 -0.7148437,-1.20703122 -0.3867188,0 -0.5742188,0.31640622 -0.5742188,0.57421872 0,0.2578125 0.1757813,0.5859375 0.5859375,0.5859375 0.1523438,0 0.28125,-0.046875 0.3867188,-0.15234375 0.023437,-0.0234375 0.035156,-0.0234375 0.046875,-0.0234375 0.035156,0 0.035156,0.1640625 0.035156,0.22265625 0,0.3984375 -0.082031,1.17187498 -0.7734375,1.94531248 -0.1289062,0.1523438 -0.1289062,0.1757813 -0.1289062,0.1992188 0,0.058594 0.058594,0.1171875 0.1171875,0.1171875 0.09375,0 1.0195312,-0.890625 1.0195314,-2.26171878 z m 0,0"
         style="fill:#000000;fill-opacity:1;fill-rule:nonzero;stroke:none" />
      <path
         id="path25"
         d="m 14.546625,-7.6651094 c 0,-0.2695312 0,-0.28125 -0.246094,-0.28125 -0.28125,0.3164063 -0.878906,0.7617188 -2.109375,0.7617188 v 0.3515625 c 0.269531,0 0.867188,0 1.523438,-0.3164063 v 6.22265627 c 0,0.43359375 -0.03516,0.57421875 -1.078125,0.57421875 h -0.375 v 0.3515625 c 0.316406,-0.0234375 1.476562,-0.0234375 1.875,-0.0234375 0.398437,0 1.546875,0 1.863281,0.0234375 v -0.3515625 h -0.363281 c -1.054688,0 -1.089844,-0.140625 -1.089844,-0.57421875 z m 0,0"
         style="fill:#000000;fill-opacity:1;fill-rule:nonzero;stroke:none" />
    </g>
    <g
       id="g25"
       aria-label="2,1"
       transform="matrix(1.3333333,0,0,1.3333333,156.38267,317.83733)">
      <path
         id="path26"
         d="M 5.2618281,-2.0049531 H 4.9922969 c -0.035156,0.1992187 -0.1289063,0.8554687 -0.2460938,1.04296872 -0.082031,0.1171875 -0.7617187,0.1171875 -1.125,0.1171875 H 1.4063594 c 0.328125,-0.28125002 1.0546875,-1.04296872 1.3710937,-1.33593752 1.8164063,-1.6640625 2.484375,-2.2851562 2.484375,-3.46875 0,-1.3828125 -1.0898437,-2.296875 -2.4726562,-2.296875 -1.3945313,0 -2.20312503,1.1835938 -2.20312503,2.203125 0,0.609375 0.52734373,0.609375 0.56250003,0.609375 0.2460937,0 0.5625,-0.1757812 0.5625,-0.5625 0,-0.328125 -0.234375,-0.5507812 -0.5625,-0.5507812 -0.1054688,0 -0.1289063,0 -0.16406253,0.011719 0.22265623,-0.8203125 0.86718753,-1.3710937 1.64062503,-1.3710937 1.0195312,0 1.640625,0.8554687 1.640625,1.9570312 0,1.0078125 -0.5859375,1.8984375 -1.265625,2.6601563 l -2.41406253,2.70703122 v 0.28125 H 4.9454219 Z m 0,0"
         style="fill:#000000;fill-opacity:1;fill-rule:nonzero;stroke:none" />
      <path
         id="path27"
         d="m 8.1856562,0.04582812 c 0,-0.69140625 -0.2226562,-1.20703122 -0.7148437,-1.20703122 -0.3867188,0 -0.5742188,0.31640622 -0.5742188,0.57421872 0,0.2578125 0.1757813,0.5859375 0.5859375,0.5859375 0.1523438,0 0.28125,-0.046875 0.3867188,-0.15234375 0.023437,-0.0234375 0.035156,-0.0234375 0.046875,-0.0234375 0.035156,0 0.035156,0.1640625 0.035156,0.22265625 0,0.3984375 -0.082031,1.17187498 -0.7734375,1.94531248 -0.1289062,0.1523438 -0.1289062,0.1757813 -0.1289062,0.1992188 0,0.058594 0.058594,0.1171875 0.1171875,0.1171875 0.09375,0 1.0195312,-0.890625 1.0195314,-2.26171878 z m 0,0"
         style="fill:#000000;fill-opacity:1;fill-rule:nonzero;stroke:none" />
      <path
         id="path28"
         d="m 14.546008,-7.6651094 c 0,-0.2695312 0,-0.28125 -0.246094,-0.28125 -0.28125,0.3164063 -0.878906,0.7617188 -2.109375,0.7617188 v 0.3515625 c 0.269531,0 0.867188,0 1.523438,-0.3164063 v 6.22265627 c 0,0.43359375 -0.03516,0.57421875 -1.078125,0.57421875 h -0.375 v 0.3515625 c 0.316406,-0.0234375 1.476562,-0.0234375 1.875,-0.0234375 0.398437,0 1.546875,0 1.863281,0.0234375 v -0.3515625 h -0.363281 c -1.054688,0 -1.089844,-0.140625 -1.089844,-0.57421875 z m 0,0"
         style="fill:#000000;fill-opacity:1;fill-rule:nonzero;stroke:none" />
    </g>
    <g
       id="g28"
       aria-label="3,1"
       transform="matrix(1.3333333,0,0,1.3333333,231.97333,317.83733)">
      <path
         id="path29"
         d="m 2.2026172,-4.2901094 c -0.2109375,0.011719 -0.2578125,0.023437 -0.2578125,0.1289063 0,0.1171875 0.058594,0.1171875 0.28125,0.1171875 h 0.5507812 c 1.0078125,0 1.4648438,0.84375 1.4648438,1.9921875 0,1.55859372 -0.8085938,1.98046872 -1.3945313,1.98046872 -0.5742187,0 -1.5585937,-0.28125 -1.89843746,-1.06640622 0.37499996,0.058594 0.72656246,-0.1523438 0.72656246,-0.5859375 0,-0.3398438 -0.2578125,-0.5859375 -0.5859375,-0.5859375 -0.29296871,0 -0.59765621,0.1640625 -0.59765621,0.6210937 0,1.06640627 1.06640621,1.93359377 2.39062501,1.93359377 1.4179687,0 2.4726562,-1.078125 2.4726562,-2.28515627 0,-1.1015625 -0.890625,-1.96875 -2.0273437,-2.1679687 1.03125,-0.3046875 1.6992187,-1.171875 1.6992187,-2.109375 0,-0.9375 -0.9726562,-1.6289063 -2.1328125,-1.6289063 -1.1953125,0 -2.08593746,0.7265625 -2.08593746,1.59375 0,0.4804688 0.37499996,0.5742188 0.55078126,0.5742188 0.2578125,0 0.5390625,-0.1757813 0.5390625,-0.5390625 0,-0.375 -0.28125,-0.5390625 -0.5507813,-0.5390625 -0.070312,0 -0.09375,0 -0.1289062,0.011719 0.4570312,-0.8203125 1.5820312,-0.8203125 1.640625,-0.8203125 0.3867187,0 1.171875,0.1757813 1.171875,1.3476563 0,0.234375 -0.035156,0.9023437 -0.3867188,1.4179687 -0.3515625,0.5273438 -0.7617187,0.5625 -1.0898437,0.5742188 z m 0,0"
         style="fill:#000000;fill-opacity:1;fill-rule:nonzero;stroke:none" />
      <path
         id="path30"
         d="m 8.1850391,0.04582812 c 0,-0.69140625 -0.2226563,-1.20703122 -0.7148438,-1.20703122 -0.3867187,0 -0.5742187,0.31640622 -0.5742187,0.57421872 0,0.2578125 0.1757812,0.5859375 0.5859375,0.5859375 0.1523437,0 0.28125,-0.046875 0.3867187,-0.15234375 0.023437,-0.0234375 0.035156,-0.0234375 0.046875,-0.0234375 0.035156,0 0.035156,0.1640625 0.035156,0.22265625 0,0.3984375 -0.082031,1.17187498 -0.7734375,1.94531248 C 7.04832,2.1434844 7.04832,2.1669219 7.04832,2.1903594 c 0,0.058594 0.058594,0.1171875 0.1171875,0.1171875 0.09375,0 1.0195313,-0.890625 1.0195316,-2.26171878 z m 0,0"
         style="fill:#000000;fill-opacity:1;fill-rule:nonzero;stroke:none" />
      <path
         id="path31"
         d="m 14.54832,-7.6651094 c 0,-0.2695312 0,-0.28125 -0.246093,-0.28125 -0.28125,0.3164063 -0.878907,0.7617188 -2.109375,0.7617188 v 0.3515625 c 0.269531,0 0.867187,0 1.523437,-0.3164063 v 6.22265627 c 0,0.43359375 -0.03516,0.57421875 -1.078125,0.57421875 h -0.375 v 0.3515625 c 0.316406,-0.0234375 1.476563,-0.0234375 1.875,-0.0234375 0.398438,0 1.546875,0 1.863281,0.0234375 v -0.3515625 h -0.363281 c -1.054687,0 -1.089844,-0.140625 -1.089844,-0.57421875 z m 0,0"
         style="fill:#000000;fill-opacity:1;fill-rule:nonzero;stroke:none" />
    </g>
    <g
       id="g31"
       aria-label="4,1"
       transform="matrix(1.3333333,0,0,1.3333333,307.564,317.83733)">
      <path
         id="path32"
         d="m 4.311375,-7.7822969 c 0,-0.2226562 0,-0.2929687 -0.1640625,-0.2929687 -0.09375,0 -0.1289062,0 -0.2226562,0.1523437 L 0.327,-2.3447969 v 0.3515625 h 3.140625 v 1.07812502 c 0,0.4453125 -0.023437,0.5625 -0.9023437,0.5625 h -0.234375 v 0.3515625 c 0.2695312,-0.0234375 1.21875,-0.0234375 1.5585937,-0.0234375 0.328125,0 1.2890625,0 1.5585938,0.0234375 v -0.3515625 h -0.234375 c -0.8671875,0 -0.9023438,-0.1171875 -0.9023438,-0.5625 V -1.9932344 H 5.5184063 V -2.3447969 H 4.311375 Z m -0.7851562,0.9375 v 4.5 H 0.61996875 Z m 0,0"
         style="fill:#000000;fill-opacity:1;fill-rule:nonzero;stroke:none" />
      <path
         id="path33"
         d="m 8.1844219,0.04582812 c 0,-0.69140625 -0.2226563,-1.20703122 -0.7148438,-1.20703122 -0.3867187,0 -0.5742187,0.31640622 -0.5742187,0.57421872 0,0.2578125 0.1757812,0.5859375 0.5859375,0.5859375 0.1523437,0 0.28125,-0.046875 0.3867187,-0.15234375 0.023437,-0.0234375 0.035156,-0.0234375 0.046875,-0.0234375 0.035156,0 0.035156,0.1640625 0.035156,0.22265625 0,0.3984375 -0.082031,1.17187498 -0.7734375,1.94531248 -0.1289063,0.1523438 -0.1289063,0.1757813 -0.1289063,0.1992188 0,0.058594 0.058594,0.1171875 0.1171875,0.1171875 0.09375,0 1.0195313,-0.890625 1.0195316,-2.26171878 z m 0,0"
         style="fill:#000000;fill-opacity:1;fill-rule:nonzero;stroke:none" />
      <path
         id="path34"
         d="m 14.547703,-7.6651094 c 0,-0.2695312 0,-0.28125 -0.246094,-0.28125 -0.28125,0.3164063 -0.878906,0.7617188 -2.109375,0.7617188 v 0.3515625 c 0.269532,0 0.867188,0 1.523438,-0.3164063 v 6.22265627 c 0,0.43359375 -0.03516,0.57421875 -1.078125,0.57421875 h -0.375 v 0.3515625 c 0.316406,-0.0234375 1.476562,-0.0234375 1.875,-0.0234375 0.398437,0 1.546875,0 1.863281,0.0234375 v -0.3515625 h -0.363281 c -1.054688,0 -1.089844,-0.140625 -1.089844,-0.57421875 z m 0,0"
         style="fill:#000000;fill-opacity:1;fill-rule:nonzero;stroke:none" />
    </g>
    <g
       id="g34"
       aria-label="5,1"
       transform="matrix(1.3333333,0,0,1.3333333,383.15467,317.83733)">
      <path
         id="path35"
         d="m 1.5363438,-6.8447969 c 0.5039062,0.1640625 0.9257812,0.1757813 1.0546875,0.1757813 1.359375,0 2.2148437,-0.9960938 2.2148437,-1.1601563 0,-0.046875 -0.023437,-0.1054687 -0.09375,-0.1054687 -0.023437,0 -0.046875,0 -0.1523437,0.046875 -0.6679688,0.28125 -1.2421875,0.3164062 -1.5585938,0.3164062 -0.7851562,0 -1.3476562,-0.234375 -1.5820312,-0.328125 -0.082031,-0.035156 -0.1054688,-0.035156 -0.1171875,-0.035156 -0.09375,0 -0.09375,0.070312 -0.09375,0.2578125 v 3.5507812 c 0,0.2109375 0,0.2929688 0.140625,0.2929688 0.058594,0 0.070312,-0.011719 0.1992187,-0.1640625 0.328125,-0.4921875 0.890625,-0.7734375 1.4882813,-0.7734375 0.6328125,0 0.9492187,0.5859375 1.0429687,0.7851562 0.1992188,0.46875 0.2109375,1.0546875 0.2109375,1.5117188 0,0.4570312 0,1.1367187 -0.328125,1.67578122 -0.2695312,0.421875 -0.7382812,0.7265625 -1.2539062,0.7265625 -0.796875,0 -1.5703125,-0.5390625 -1.78125005,-1.40625002 0.0585938,0.023437 0.12890625,0.035156 0.18750005,0.035156 0.1992187,0 0.5273437,-0.1289063 0.5273437,-0.5273438 0,-0.3398437 -0.234375,-0.5273437 -0.5273437,-0.5273437 -0.21093755,0 -0.5273438,0.1054687 -0.5273438,0.5742187 0,1.00781252 0.8085938,2.16796877 2.1445313,2.16796877 1.3476562,0 2.53125,-1.125 2.53125,-2.64843747 0,-1.4179688 -0.9609375,-2.6015625 -2.2148438,-2.6015625 -0.6796875,0 -1.2070312,0.2929687 -1.5117187,0.6328125 z m 0,0"
         style="fill:#000000;fill-opacity:1;fill-rule:nonzero;stroke:none" />
      <path
         id="path36"
         d="m 8.1867344,0.04582812 c 0,-0.69140625 -0.2226563,-1.20703122 -0.7148438,-1.20703122 -0.3867187,0 -0.5742187,0.31640622 -0.5742187,0.57421872 0,0.2578125 0.1757812,0.5859375 0.5859375,0.5859375 0.1523437,0 0.28125,-0.046875 0.3867187,-0.15234375 0.023437,-0.0234375 0.035156,-0.0234375 0.046875,-0.0234375 0.035156,0 0.035156,0.1640625 0.035156,0.22265625 0,0.3984375 -0.082031,1.17187498 -0.7734375,1.94531248 -0.1289063,0.1523438 -0.1289063,0.1757813 -0.1289063,0.1992188 0,0.058594 0.058594,0.1171875 0.1171875,0.1171875 0.09375,0 1.0195313,-0.890625 1.0195316,-2.26171878 z m 0,0"
         style="fill:#000000;fill-opacity:1;fill-rule:nonzero;stroke:none" />
      <path
         id="path37"
         d="m 14.547086,-7.6651094 c 0,-0.2695312 0,-0.28125 -0.246094,-0.28125 -0.28125,0.3164063 -0.878906,0.7617188 -2.109375,0.7617188 v 0.3515625 c 0.269531,0 0.867188,0 1.523438,-0.3164063 v 6.22265627 c 0,0.43359375 -0.03516,0.57421875 -1.078125,0.57421875 h -0.375 v 0.3515625 c 0.316406,-0.0234375 1.476562,-0.0234375 1.875,-0.0234375 0.398437,0 1.546875,0 1.863281,0.0234375 v -0.3515625 H 15.63693 c -1.054688,0 -1.089844,-0.140625 -1.089844,-0.57421875 z m 0,0"
         style="fill:#000000;fill-opacity:1;fill-rule:nonzero;stroke:none" />
    </g>
    <g
       id="g37"
       aria-label="2,2"
       transform="matrix(1.3333333,0,0,1.3333333,156.38267,242.24667)">
      <path
         id="path38"
         d="M 5.2618281,-2.0043359 H 4.9922969 c -0.035156,0.1992187 -0.1289063,0.8554687 -0.2460938,1.04296871 -0.082031,0.1171875 -0.7617187,0.1171875 -1.125,0.1171875 H 1.4063594 c 0.328125,-0.28125001 1.0546875,-1.04296871 1.3710937,-1.33593751 1.8164063,-1.6640625 2.484375,-2.2851562 2.484375,-3.46875 0,-1.3828125 -1.0898437,-2.296875 -2.4726562,-2.296875 -1.3945313,0 -2.20312503,1.1835938 -2.20312503,2.203125 0,0.609375 0.52734373,0.609375 0.56250003,0.609375 0.2460937,0 0.5625,-0.1757812 0.5625,-0.5625 0,-0.328125 -0.234375,-0.5507812 -0.5625,-0.5507812 -0.1054688,0 -0.1289063,0 -0.16406253,0.011719 0.22265623,-0.8203125 0.86718753,-1.3710937 1.64062503,-1.3710937 1.0195312,0 1.640625,0.8554687 1.640625,1.9570312 0,1.0078125 -0.5859375,1.8984375 -1.265625,2.6601563 L 0.58604687,-0.28167969 V -4.296875e-4 H 4.9454219 Z m 0,0"
         style="fill:#000000;fill-opacity:1;fill-rule:nonzero;stroke:none" />
      <path
         id="path39"
         d="m 8.1856562,0.04644531 c 0,-0.69140625 -0.2226562,-1.20703121 -0.7148437,-1.20703121 -0.3867188,0 -0.5742188,0.31640621 -0.5742188,0.57421871 0,0.2578125 0.1757813,0.5859375025 0.5859375,0.5859375025 0.1523438,0 0.28125,-0.0468750025 0.3867188,-0.1523437525 0.023437,-0.0234375 0.035156,-0.0234375 0.046875,-0.0234375 0.035156,0 0.035156,0.1640625 0.035156,0.22265625 0,0.3984375 -0.082031,1.17187499 -0.7734375,1.94531249 -0.1289062,0.1523438 -0.1289062,0.1757813 -0.1289062,0.1992188 0,0.058594 0.058594,0.1171875 0.1171875,0.1171875 0.09375,0 1.0195312,-0.890625 1.0195314,-2.26171879 z m 0,0"
         style="fill:#000000;fill-opacity:1;fill-rule:nonzero;stroke:none" />
      <path
         id="path40"
         d="m 16.362414,-2.0043359 h -0.269531 c -0.03516,0.1992187 -0.128906,0.8554687 -0.246094,1.04296871 -0.08203,0.1171875 -0.761719,0.1171875 -1.125,0.1171875 h -2.214844 c 0.328125,-0.28125001 1.054688,-1.04296871 1.371094,-1.33593751 1.816406,-1.6640625 2.484375,-2.2851562 2.484375,-3.46875 0,-1.3828125 -1.089844,-2.296875 -2.472656,-2.296875 -1.394531,0 -2.203125,1.1835938 -2.203125,2.203125 0,0.609375 0.527344,0.609375 0.5625,0.609375 0.246094,0 0.5625,-0.1757812 0.5625,-0.5625 0,-0.328125 -0.234375,-0.5507812 -0.5625,-0.5507812 -0.105469,0 -0.128906,0 -0.164063,0.011719 0.222657,-0.8203125 0.867188,-1.3710937 1.640625,-1.3710937 1.019532,0 1.640625,0.8554687 1.640625,1.9570312 0,1.0078125 -0.585937,1.8984375 -1.265625,2.6601563 l -2.414062,2.70703121 v 0.2812500025 h 4.359375 z m 0,0"
         style="fill:#000000;fill-opacity:1;fill-rule:nonzero;stroke:none" />
    </g>
    <g
       id="g40"
       aria-label="3,2"
       transform="matrix(1.3333333,0,0,1.3333333,231.97333,242.24667)">
      <path
         id="path41"
         d="m 2.2026172,-4.2894922 c -0.2109375,0.011719 -0.2578125,0.023437 -0.2578125,0.1289063 0,0.1171875 0.058594,0.1171875 0.28125,0.1171875 h 0.5507812 c 1.0078125,0 1.4648438,0.84375 1.4648438,1.9921875 0,1.55859371 -0.8085938,1.98046871 -1.3945313,1.98046871 -0.5742187,0 -1.5585937,-0.28125 -1.89843746,-1.06640621 0.37499996,0.058594 0.72656246,-0.1523438 0.72656246,-0.5859375 0,-0.3398438 -0.2578125,-0.5859375 -0.5859375,-0.5859375 -0.29296871,0 -0.59765621,0.1640625 -0.59765621,0.6210937 0,1.06640626 1.06640621,1.93359376 2.39062501,1.93359376 1.4179687,0 2.4726562,-1.078125 2.4726562,-2.28515626 0,-1.1015625 -0.890625,-1.96875 -2.0273437,-2.1679687 1.03125,-0.3046875 1.6992187,-1.171875 1.6992187,-2.109375 0,-0.9375 -0.9726562,-1.6289063 -2.1328125,-1.6289063 -1.1953125,0 -2.08593746,0.7265625 -2.08593746,1.59375 0,0.4804688 0.37499996,0.5742188 0.55078126,0.5742188 0.2578125,0 0.5390625,-0.1757813 0.5390625,-0.5390625 0,-0.375 -0.28125,-0.5390625 -0.5507813,-0.5390625 -0.070312,0 -0.09375,0 -0.1289062,0.011719 0.4570312,-0.8203125 1.5820312,-0.8203125 1.640625,-0.8203125 0.3867187,0 1.171875,0.1757813 1.171875,1.3476563 0,0.234375 -0.035156,0.9023437 -0.3867188,1.4179687 -0.3515625,0.5273438 -0.7617187,0.5625 -1.0898437,0.5742188 z m 0,0"
         style="fill:#000000;fill-opacity:1;fill-rule:nonzero;stroke:none" />
      <path
         id="path42"
         d="m 8.1850391,0.04644531 c 0,-0.69140625 -0.2226563,-1.20703121 -0.7148438,-1.20703121 -0.3867187,0 -0.5742187,0.31640621 -0.5742187,0.57421871 0,0.2578125 0.1757812,0.5859375025 0.5859375,0.5859375025 0.1523437,0 0.28125,-0.0468750025 0.3867187,-0.1523437525 0.023437,-0.0234375 0.035156,-0.0234375 0.046875,-0.0234375 0.035156,0 0.035156,0.1640625 0.035156,0.22265625 0,0.3984375 -0.082031,1.17187499 -0.7734375,1.94531249 C 7.04832,2.1441016 7.04832,2.1675391 7.04832,2.1909766 c 0,0.058594 0.058594,0.1171875 0.1171875,0.1171875 0.09375,0 1.0195313,-0.890625 1.0195316,-2.26171879 z m 0,0"
         style="fill:#000000;fill-opacity:1;fill-rule:nonzero;stroke:none" />
      <path
         id="path43"
         d="m 16.364727,-2.0043359 h -0.269532 c -0.03516,0.1992187 -0.128906,0.8554687 -0.246093,1.04296871 -0.08203,0.1171875 -0.761719,0.1171875 -1.125,0.1171875 h -2.214844 c 0.328125,-0.28125001 1.054687,-1.04296871 1.371094,-1.33593751 1.816406,-1.6640625 2.484375,-2.2851562 2.484375,-3.46875 0,-1.3828125 -1.089844,-2.296875 -2.472657,-2.296875 -1.394531,0 -2.203125,1.1835938 -2.203125,2.203125 0,0.609375 0.527344,0.609375 0.5625,0.609375 0.246094,0 0.5625,-0.1757812 0.5625,-0.5625 0,-0.328125 -0.234375,-0.5507812 -0.5625,-0.5507812 -0.105468,0 -0.128906,0 -0.164062,0.011719 0.222656,-0.8203125 0.867187,-1.3710937 1.640625,-1.3710937 1.019531,0 1.640625,0.8554687 1.640625,1.9570312 0,1.0078125 -0.585938,1.8984375 -1.265625,2.6601563 l -2.414063,2.70703121 v 0.2812500025 h 4.359375 z m 0,0"
         style="fill:#000000;fill-opacity:1;fill-rule:nonzero;stroke:none" />
    </g>
    <g
       id="g43"
       aria-label="4,2"
       transform="matrix(1.3333333,0,0,1.3333333,307.564,242.24667)">
      <path
         id="path44"
         d="m 4.311375,-7.7816797 c 0,-0.2226562 0,-0.2929687 -0.1640625,-0.2929687 -0.09375,0 -0.1289062,0 -0.2226562,0.1523437 L 0.327,-2.3441797 v 0.3515625 h 3.140625 v 1.07812501 c 0,0.4453125 -0.023437,0.5625 -0.9023437,0.5625 H 2.3309063 V -4.296875e-4 C 2.6004375,-0.02386719 3.5496563,-0.02386719 3.8895,-0.02386719 c 0.328125,0 1.2890625,0 1.5585938,0.0234375025 V -0.35199219 h -0.234375 c -0.8671875,0 -0.9023438,-0.1171875 -0.9023438,-0.5625 V -1.9926172 H 5.5184063 V -2.3441797 H 4.311375 Z m -0.7851562,0.9375 v 4.5 H 0.61996875 Z m 0,0"
         style="fill:#000000;fill-opacity:1;fill-rule:nonzero;stroke:none" />
      <path
         id="path45"
         d="m 8.1844219,0.04644531 c 0,-0.69140625 -0.2226563,-1.20703121 -0.7148438,-1.20703121 -0.3867187,0 -0.5742187,0.31640621 -0.5742187,0.57421871 0,0.2578125 0.1757812,0.5859375025 0.5859375,0.5859375025 0.1523437,0 0.28125,-0.0468750025 0.3867187,-0.1523437525 0.023437,-0.0234375 0.035156,-0.0234375 0.046875,-0.0234375 0.035156,0 0.035156,0.1640625 0.035156,0.22265625 0,0.3984375 -0.082031,1.17187499 -0.7734375,1.94531249 -0.1289063,0.1523438 -0.1289063,0.1757813 -0.1289063,0.1992188 0,0.058594 0.058594,0.1171875 0.1171875,0.1171875 0.09375,0 1.0195313,-0.890625 1.0195316,-2.26171879 z m 0,0"
         style="fill:#000000;fill-opacity:1;fill-rule:nonzero;stroke:none" />
      <path
         id="path46"
         d="m 16.364109,-2.0043359 h -0.269531 c -0.03516,0.1992187 -0.128906,0.8554687 -0.246094,1.04296871 -0.08203,0.1171875 -0.761718,0.1171875 -1.125,0.1171875 h -2.214843 c 0.328125,-0.28125001 1.054687,-1.04296871 1.371093,-1.33593751 1.816407,-1.6640625 2.484375,-2.2851562 2.484375,-3.46875 0,-1.3828125 -1.089843,-2.296875 -2.472656,-2.296875 -1.394531,0 -2.203125,1.1835938 -2.203125,2.203125 0,0.609375 0.527344,0.609375 0.5625,0.609375 0.246094,0 0.5625,-0.1757812 0.5625,-0.5625 0,-0.328125 -0.234375,-0.5507812 -0.5625,-0.5507812 -0.105469,0 -0.128906,0 -0.164062,0.011719 0.222656,-0.8203125 0.867187,-1.3710937 1.640625,-1.3710937 1.019531,0 1.640625,0.8554687 1.640625,1.9570312 0,1.0078125 -0.585938,1.8984375 -1.265625,2.6601563 l -2.414063,2.70703121 v 0.2812500025 h 4.359375 z m 0,0"
         style="fill:#000000;fill-opacity:1;fill-rule:nonzero;stroke:none" />
    </g>
    <g
       id="g46"
       aria-label="5,2"
       transform="matrix(1.3333333,0,0,1.3333333,383.15467,242.24667)">
      <path
         id="path47"
         d="m 1.5363438,-6.8441797 c 0.5039062,0.1640625 0.9257812,0.1757813 1.0546875,0.1757813 1.359375,0 2.2148437,-0.9960938 2.2148437,-1.1601563 0,-0.046875 -0.023437,-0.1054687 -0.09375,-0.1054687 -0.023437,0 -0.046875,0 -0.1523437,0.046875 -0.6679688,0.28125 -1.2421875,0.3164062 -1.5585938,0.3164062 -0.7851562,0 -1.3476562,-0.234375 -1.5820312,-0.328125 -0.082031,-0.035156 -0.1054688,-0.035156 -0.1171875,-0.035156 -0.09375,0 -0.09375,0.070312 -0.09375,0.2578125 v 3.5507812 c 0,0.2109375 0,0.2929688 0.140625,0.2929688 0.058594,0 0.070312,-0.011719 0.1992187,-0.1640625 0.328125,-0.4921875 0.890625,-0.7734375 1.4882813,-0.7734375 0.6328125,0 0.9492187,0.5859375 1.0429687,0.7851562 0.1992188,0.46875 0.2109375,1.0546875 0.2109375,1.5117188 0,0.4570312 0,1.1367187 -0.328125,1.67578121 -0.2695312,0.421875 -0.7382812,0.7265625 -1.2539062,0.7265625 -0.796875,0 -1.5703125,-0.5390625 -1.78125005,-1.40625001 0.0585938,0.023437 0.12890625,0.035156 0.18750005,0.035156 0.1992187,0 0.5273437,-0.1289063 0.5273437,-0.5273438 0,-0.3398437 -0.234375,-0.5273437 -0.5273437,-0.5273437 -0.21093755,0 -0.5273438,0.1054687 -0.5273438,0.5742187 0,1.00781251 0.8085938,2.16796876 2.1445313,2.16796876 1.3476562,0 2.53125,-1.125 2.53125,-2.64843746 0,-1.4179688 -0.9609375,-2.6015625 -2.2148438,-2.6015625 -0.6796875,0 -1.2070312,0.2929687 -1.5117187,0.6328125 z m 0,0"
         style="fill:#000000;fill-opacity:1;fill-rule:nonzero;stroke:none" />
      <path
         id="path48"
         d="m 8.1867344,0.04644531 c 0,-0.69140625 -0.2226563,-1.20703121 -0.7148438,-1.20703121 -0.3867187,0 -0.5742187,0.31640621 -0.5742187,0.57421871 0,0.2578125 0.1757812,0.5859375025 0.5859375,0.5859375025 0.1523437,0 0.28125,-0.0468750025 0.3867187,-0.1523437525 0.023437,-0.0234375 0.035156,-0.0234375 0.046875,-0.0234375 0.035156,0 0.035156,0.1640625 0.035156,0.22265625 0,0.3984375 -0.082031,1.17187499 -0.7734375,1.94531249 -0.1289063,0.1523438 -0.1289063,0.1757813 -0.1289063,0.1992188 0,0.058594 0.058594,0.1171875 0.1171875,0.1171875 0.09375,0 1.0195313,-0.890625 1.0195316,-2.26171879 z m 0,0"
         style="fill:#000000;fill-opacity:1;fill-rule:nonzero;stroke:none" />
      <path
         id="path49"
         d="m 16.363492,-2.0043359 h -0.269531 c -0.03516,0.1992187 -0.128906,0.8554687 -0.246094,1.04296871 -0.08203,0.1171875 -0.761719,0.1171875 -1.125,0.1171875 h -2.214844 c 0.328125,-0.28125001 1.054688,-1.04296871 1.371094,-1.33593751 1.816406,-1.6640625 2.484375,-2.2851562 2.484375,-3.46875 0,-1.3828125 -1.089844,-2.296875 -2.472656,-2.296875 -1.394531,0 -2.203125,1.1835938 -2.203125,2.203125 0,0.609375 0.527344,0.609375 0.5625,0.609375 0.246094,0 0.5625,-0.1757812 0.5625,-0.5625 0,-0.328125 -0.234375,-0.5507812 -0.5625,-0.5507812 -0.105469,0 -0.128906,0 -0.164063,0.011719 0.222657,-0.8203125 0.867188,-1.3710937 1.640625,-1.3710937 1.019532,0 1.640625,0.8554687 1.640625,1.9570312 0,1.0078125 -0.585937,1.8984375 -1.265625,2.6601563 l -2.414062,2.70703121 v 0.2812500025 h 4.359375 z m 0,0"
         style="fill:#000000;fill-opacity:1;fill-rule:nonzero;stroke:none" />
    </g>
    <g
       id="g49"
       aria-label="3,3"
       transform="matrix(1.3333333,0,0,1.3333333,231.97333,166.656)">
      <path
         id="path50"
         d="m 2.2026172,-4.288875 c -0.2109375,0.011719 -0.2578125,0.023437 -0.2578125,0.1289062 0,0.1171875 0.058594,0.1171875 0.28125,0.1171875 h 0.5507812 c 1.0078125,0 1.4648438,0.84375 1.4648438,1.9921875 0,1.5585938 -0.8085938,1.9804688 -1.3945313,1.9804688 -0.5742187,0 -1.5585937,-0.28125 -1.89843746,-1.0664063 0.37499996,0.058594 0.72656246,-0.1523437 0.72656246,-0.5859375 0,-0.3398437 -0.2578125,-0.5859375 -0.5859375,-0.5859375 -0.29296871,0 -0.59765621,0.1640625 -0.59765621,0.6210938 0,1.06640625 1.06640621,1.93359375 2.39062501,1.93359375 1.4179687,0 2.4726562,-1.078125 2.4726562,-2.28515625 0,-1.1015625 -0.890625,-1.96875 -2.0273437,-2.1679688 1.03125,-0.3046875 1.6992187,-1.171875 1.6992187,-2.109375 0,-0.9375 -0.9726562,-1.6289062 -2.1328125,-1.6289062 -1.1953125,0 -2.08593746,0.7265625 -2.08593746,1.59375 0,0.4804687 0.37499996,0.5742187 0.55078126,0.5742187 0.2578125,0 0.5390625,-0.1757812 0.5390625,-0.5390625 0,-0.375 -0.28125,-0.5390625 -0.5507813,-0.5390625 -0.070312,0 -0.09375,0 -0.1289062,0.011719 0.4570312,-0.8203125 1.5820312,-0.8203125 1.640625,-0.8203125 0.3867187,0 1.171875,0.1757812 1.171875,1.3476562 0,0.234375 -0.035156,0.9023438 -0.3867188,1.4179688 -0.3515625,0.5273437 -0.7617187,0.5625 -1.0898437,0.5742187 z m 0,0"
         style="fill:#000000;fill-opacity:1;fill-rule:nonzero;stroke:none" />
      <path
         id="path51"
         d="m 8.1850391,0.0470625 c 0,-0.69140625 -0.2226563,-1.2070313 -0.7148438,-1.2070313 -0.3867187,0 -0.5742187,0.3164063 -0.5742187,0.5742188 0,0.2578125 0.1757812,0.5859375 0.5859375,0.5859375 0.1523437,0 0.28125,-0.046875 0.3867187,-0.15234375 0.023437,-0.0234375 0.035156,-0.0234375 0.046875,-0.0234375 0.035156,0 0.035156,0.1640625 0.035156,0.22265625 0,0.3984375 -0.082031,1.171875 -0.7734375,1.9453125 C 7.04832,2.1447187 7.04832,2.1681562 7.04832,2.1915937 c 0,0.058594 0.058594,0.1171875 0.1171875,0.1171875 0.09375,0 1.0195313,-0.890625 1.0195316,-2.2617187 z m 0,0"
         style="fill:#000000;fill-opacity:1;fill-rule:nonzero;stroke:none" />
      <path
         id="path52"
         d="m 13.306133,-4.288875 c -0.210938,0.011719 -0.257813,0.023437 -0.257813,0.1289062 0,0.1171875 0.05859,0.1171875 0.28125,0.1171875 h 0.550782 c 1.007812,0 1.464843,0.84375 1.464843,1.9921875 0,1.5585938 -0.808593,1.9804688 -1.394531,1.9804688 -0.574219,0 -1.558594,-0.28125 -1.898437,-1.0664063 0.375,0.058594 0.726562,-0.1523437 0.726562,-0.5859375 0,-0.3398437 -0.257812,-0.5859375 -0.585937,-0.5859375 -0.292969,0 -0.597657,0.1640625 -0.597657,0.6210938 0,1.06640625 1.066407,1.93359375 2.390625,1.93359375 1.417969,0 2.472657,-1.078125 2.472657,-2.28515625 0,-1.1015625 -0.890625,-1.96875 -2.027344,-2.1679688 1.03125,-0.3046875 1.699219,-1.171875 1.699219,-2.109375 0,-0.9375 -0.972657,-1.6289062 -2.132813,-1.6289062 -1.195312,0 -2.085937,0.7265625 -2.085937,1.59375 0,0.4804687 0.375,0.5742187 0.550781,0.5742187 0.257812,0 0.539062,-0.1757812 0.539062,-0.5390625 0,-0.375 -0.28125,-0.5390625 -0.550781,-0.5390625 -0.07031,0 -0.09375,0 -0.128906,0.011719 0.457031,-0.8203125 1.582031,-0.8203125 1.640625,-0.8203125 0.386719,0 1.171875,0.1757812 1.171875,1.3476562 0,0.234375 -0.03516,0.9023438 -0.386719,1.4179688 -0.351562,0.5273437 -0.761719,0.5625 -1.089844,0.5742187 z m 0,0"
         style="fill:#000000;fill-opacity:1;fill-rule:nonzero;stroke:none" />
    </g>
    <g
       id="g52"
       aria-label="4,3"
       transform="matrix(1.3333333,0,0,1.3333333,307.564,166.656)">
      <path
         id="path53"
         d="m 4.311375,-7.7810625 c 0,-0.2226563 0,-0.2929688 -0.1640625,-0.2929688 -0.09375,0 -0.1289062,0 -0.2226562,0.1523438 L 0.327,-2.3435625 V -1.992 h 3.140625 v 1.078125 c 0,0.4453125 -0.023437,0.5625 -0.9023437,0.5625 H 2.3309063 V 1.875e-4 C 2.6004375,-0.02325 3.5496563,-0.02325 3.8895,-0.02325 c 0.328125,0 1.2890625,0 1.5585938,0.0234375 V -0.351375 h -0.234375 c -0.8671875,0 -0.9023438,-0.1171875 -0.9023438,-0.5625 V -1.992 H 5.5184063 V -2.3435625 H 4.311375 Z m -0.7851562,0.9375 v 4.5 H 0.61996875 Z m 0,0"
         style="fill:#000000;fill-opacity:1;fill-rule:nonzero;stroke:none" />
      <path
         id="path54"
         d="m 8.1844219,0.0470625 c 0,-0.69140625 -0.2226563,-1.2070313 -0.7148438,-1.2070313 -0.3867187,0 -0.5742187,0.3164063 -0.5742187,0.5742188 0,0.2578125 0.1757812,0.5859375 0.5859375,0.5859375 0.1523437,0 0.28125,-0.046875 0.3867187,-0.15234375 0.023437,-0.0234375 0.035156,-0.0234375 0.046875,-0.0234375 0.035156,0 0.035156,0.1640625 0.035156,0.22265625 0,0.3984375 -0.082031,1.171875 -0.7734375,1.9453125 -0.1289063,0.1523437 -0.1289063,0.1757812 -0.1289063,0.1992187 0,0.058594 0.058594,0.1171875 0.1171875,0.1171875 0.09375,0 1.0195313,-0.890625 1.0195316,-2.2617187 z m 0,0"
         style="fill:#000000;fill-opacity:1;fill-rule:nonzero;stroke:none" />
      <path
         id="path55"
         d="m 13.305516,-4.288875 c -0.210938,0.011719 -0.257813,0.023437 -0.257813,0.1289062 0,0.1171875 0.05859,0.1171875 0.28125,0.1171875 h 0.550781 c 1.007813,0 1.464844,0.84375 1.464844,1.9921875 0,1.5585938 -0.808594,1.9804688 -1.394531,1.9804688 -0.574219,0 -1.558594,-0.28125 -1.898438,-1.0664063 0.375,0.058594 0.726563,-0.1523437 0.726563,-0.5859375 0,-0.3398437 -0.257813,-0.5859375 -0.585938,-0.5859375 -0.292968,0 -0.597656,0.1640625 -0.597656,0.6210938 0,1.06640625 1.066406,1.93359375 2.390625,1.93359375 1.417969,0 2.472656,-1.078125 2.472656,-2.28515625 0,-1.1015625 -0.890625,-1.96875 -2.027343,-2.1679688 1.03125,-0.3046875 1.699218,-1.171875 1.699218,-2.109375 0,-0.9375 -0.972656,-1.6289062 -2.132812,-1.6289062 -1.195313,0 -2.085938,0.7265625 -2.085938,1.59375 0,0.4804687 0.375,0.5742187 0.550782,0.5742187 0.257812,0 0.539062,-0.1757812 0.539062,-0.5390625 0,-0.375 -0.28125,-0.5390625 -0.550781,-0.5390625 -0.07031,0 -0.09375,0 -0.128906,0.011719 0.457031,-0.8203125 1.582031,-0.8203125 1.640625,-0.8203125 0.386718,0 1.171875,0.1757812 1.171875,1.3476562 0,0.234375 -0.03516,0.9023438 -0.386719,1.4179688 -0.351563,0.5273437 -0.761719,0.5625 -1.089844,0.5742187 z m 0,0"
         style="fill:#000000;fill-opacity:1;fill-rule:nonzero;stroke:none" />
    </g>
    <g
       id="g55"
       aria-label="5,3"
       transform="matrix(1.3333333,0,0,1.3333333,383.15467,166.656)">
      <path
         id="path56"
         d="M 1.5363438,-6.8435625 C 2.04025,-6.6795 2.462125,-6.6677813 2.5910313,-6.6677813 c 1.359375,0 2.2148437,-0.9960937 2.2148437,-1.1601562 0,-0.046875 -0.023437,-0.1054688 -0.09375,-0.1054688 -0.023437,0 -0.046875,0 -0.1523437,0.046875 -0.6679688,0.28125 -1.2421875,0.3164063 -1.5585938,0.3164063 -0.7851562,0 -1.3476562,-0.234375 -1.5820312,-0.328125 -0.082031,-0.035156 -0.1054688,-0.035156 -0.1171875,-0.035156 -0.09375,0 -0.09375,0.070312 -0.09375,0.2578125 v 3.5507813 c 0,0.2109375 0,0.2929687 0.140625,0.2929687 0.058594,0 0.070312,-0.011719 0.1992187,-0.1640625 0.328125,-0.4921875 0.890625,-0.7734375 1.4882813,-0.7734375 0.6328125,0 0.9492187,0.5859375 1.0429687,0.7851563 0.1992188,0.46875 0.2109375,1.0546875 0.2109375,1.5117187 0,0.4570313 0,1.1367188 -0.328125,1.6757813 -0.2695312,0.421875 -0.7382812,0.7265625 -1.2539062,0.7265625 -0.796875,0 -1.5703125,-0.5390625 -1.78125005,-1.40625 0.0585938,0.023437 0.12890625,0.035156 0.18750005,0.035156 0.1992187,0 0.5273437,-0.1289062 0.5273437,-0.5273437 0,-0.3398438 -0.234375,-0.5273438 -0.5273437,-0.5273438 -0.21093755,0 -0.5273438,0.1054688 -0.5273438,0.5742188 0,1.0078125 0.8085938,2.16796875 2.1445313,2.16796875 1.3476562,0 2.53125,-1.125 2.53125,-2.64843755 0,-1.4179687 -0.9609375,-2.6015625 -2.2148438,-2.6015625 -0.6796875,0 -1.2070312,0.2929688 -1.5117187,0.6328125 z m 0,0"
         style="fill:#000000;fill-opacity:1;fill-rule:nonzero;stroke:none" />
      <path
         id="path57"
         d="m 8.1867344,0.0470625 c 0,-0.69140625 -0.2226563,-1.2070313 -0.7148438,-1.2070313 -0.3867187,0 -0.5742187,0.3164063 -0.5742187,0.5742188 0,0.2578125 0.1757812,0.5859375 0.5859375,0.5859375 0.1523437,0 0.28125,-0.046875 0.3867187,-0.15234375 0.023437,-0.0234375 0.035156,-0.0234375 0.046875,-0.0234375 0.035156,0 0.035156,0.1640625 0.035156,0.22265625 0,0.3984375 -0.082031,1.171875 -0.7734375,1.9453125 -0.1289063,0.1523437 -0.1289063,0.1757812 -0.1289063,0.1992187 0,0.058594 0.058594,0.1171875 0.1171875,0.1171875 0.09375,0 1.0195313,-0.890625 1.0195316,-2.2617187 z m 0,0"
         style="fill:#000000;fill-opacity:1;fill-rule:nonzero;stroke:none" />
      <path
         id="path58"
         d="m 13.304898,-4.288875 c -0.210937,0.011719 -0.257812,0.023437 -0.257812,0.1289062 0,0.1171875 0.05859,0.1171875 0.28125,0.1171875 h 0.550781 c 1.007813,0 1.464844,0.84375 1.464844,1.9921875 0,1.5585938 -0.808594,1.9804688 -1.394531,1.9804688 -0.574219,0 -1.558594,-0.28125 -1.898438,-1.0664063 0.375,0.058594 0.726563,-0.1523437 0.726563,-0.5859375 0,-0.3398437 -0.257813,-0.5859375 -0.585938,-0.5859375 -0.292969,0 -0.597656,0.1640625 -0.597656,0.6210938 0,1.06640625 1.066406,1.93359375 2.390625,1.93359375 1.417969,0 2.472656,-1.078125 2.472656,-2.28515625 0,-1.1015625 -0.890625,-1.96875 -2.027344,-2.1679688 1.03125,-0.3046875 1.699219,-1.171875 1.699219,-2.109375 0,-0.9375 -0.972656,-1.6289062 -2.132812,-1.6289062 -1.195313,0 -2.085938,0.7265625 -2.085938,1.59375 0,0.4804687 0.375,0.5742187 0.550781,0.5742187 0.257813,0 0.539063,-0.1757812 0.539063,-0.5390625 0,-0.375 -0.28125,-0.5390625 -0.550781,-0.5390625 -0.07031,0 -0.09375,0 -0.128907,0.011719 0.457032,-0.8203125 1.582032,-0.8203125 1.640625,-0.8203125 0.386719,0 1.171875,0.1757812 1.171875,1.3476562 0,0.234375 -0.03516,0.9023438 -0.386718,1.4179688 -0.351563,0.5273437 -0.761719,0.5625 -1.089844,0.5742187 z m 0,0"
         style="fill:#000000;fill-opacity:1;fill-rule:nonzero;stroke:none" />
    </g>
    <g
       id="g58"
       aria-label="4,4"
       transform="matrix(1.3333333,0,0,1.3333333,307.564,91.065333)">
      <path
         id="path59"
         d="m 4.311375,-7.7804453 c 0,-0.2226563 0,-0.2929688 -0.1640625,-0.2929688 -0.09375,0 -0.1289062,0 -0.2226562,0.1523438 L 0.327,-2.3429453 v 0.3515625 h 3.140625 v 1.07812499 c 0,0.4453125 -0.023437,0.5625 -0.9023437,0.5625 H 2.3309063 V 8.046875e-4 C 2.6004375,-0.02263281 3.5496563,-0.02263281 3.8895,-0.02263281 c 0.328125,0 1.2890625,0 1.5585938,0.0234374975 V -0.35075781 h -0.234375 c -0.8671875,0 -0.9023438,-0.1171875 -0.9023438,-0.5625 V -1.9913828 H 5.5184063 V -2.3429453 H 4.311375 Z m -0.7851562,0.9375 v 4.5 H 0.61996875 Z m 0,0"
         style="fill:#000000;fill-opacity:1;fill-rule:nonzero;stroke:none" />
      <path
         id="path60"
         d="m 8.1844219,0.04767969 c 0,-0.69140625 -0.2226563,-1.20703129 -0.7148438,-1.20703129 -0.3867187,0 -0.5742187,0.31640629 -0.5742187,0.57421879 0,0.2578125 0.1757812,0.5859374975 0.5859375,0.5859374975 0.1523437,0 0.28125,-0.0468749975 0.3867187,-0.1523437475 0.023437,-0.0234375 0.035156,-0.0234375 0.046875,-0.0234375 0.035156,0 0.035156,0.1640625 0.035156,0.22265625 0,0.3984375 -0.082031,1.17187501 -0.7734375,1.94531251 -0.1289063,0.1523437 -0.1289063,0.1757812 -0.1289063,0.1992187 0,0.058594 0.058594,0.1171875 0.1171875,0.1171875 0.09375,0 1.0195313,-0.890625 1.0195316,-2.26171871 z m 0,0"
         style="fill:#000000;fill-opacity:1;fill-rule:nonzero;stroke:none" />
      <path
         id="path61"
         d="m 15.414891,-7.7804453 c 0,-0.2226563 0,-0.2929688 -0.164063,-0.2929688 -0.09375,0 -0.128906,0 -0.222656,0.1523438 l -3.597656,5.578125 v 0.3515625 h 3.140625 v 1.07812499 c 0,0.4453125 -0.02344,0.5625 -0.902344,0.5625 H 13.434422 V 8.046875e-4 c 0.269531,-0.0234374975 1.21875,-0.0234374975 1.558594,-0.0234374975 0.328125,0 1.289062,0 1.558593,0.0234374975 V -0.35075781 h -0.234375 c -0.867187,0 -0.902343,-0.1171875 -0.902343,-0.5625 V -1.9913828 h 1.207031 v -0.3515625 h -1.207031 z m -0.785157,0.9375 v 4.5 h -2.90625 z m 0,0"
         style="fill:#000000;fill-opacity:1;fill-rule:nonzero;stroke:none" />
    </g>
    <g
       id="g61"
       aria-label="5,4"
       transform="matrix(1.3333333,0,0,1.3333333,383.15467,91.065333)">
      <path
         id="path62"
         d="m 1.5363438,-6.8429453 c 0.5039062,0.1640625 0.9257812,0.1757812 1.0546875,0.1757812 1.359375,0 2.2148437,-0.9960937 2.2148437,-1.1601562 0,-0.046875 -0.023437,-0.1054688 -0.09375,-0.1054688 -0.023437,0 -0.046875,0 -0.1523437,0.046875 -0.6679688,0.28125 -1.2421875,0.3164063 -1.5585938,0.3164063 -0.7851562,0 -1.3476562,-0.234375 -1.5820312,-0.328125 -0.082031,-0.035156 -0.1054688,-0.035156 -0.1171875,-0.035156 -0.09375,0 -0.09375,0.070312 -0.09375,0.2578125 v 3.5507813 c 0,0.2109375 0,0.2929687 0.140625,0.2929687 0.058594,0 0.070312,-0.011719 0.1992187,-0.1640625 0.328125,-0.4921875 0.890625,-0.7734375 1.4882813,-0.7734375 0.6328125,0 0.9492187,0.5859375 1.0429687,0.7851563 0.1992188,0.46875 0.2109375,1.0546875 0.2109375,1.5117187 0,0.4570313 0,1.1367188 -0.328125,1.67578129 -0.2695312,0.421875 -0.7382812,0.7265625 -1.2539062,0.7265625 -0.796875,0 -1.5703125,-0.5390625 -1.78125005,-1.40624999 0.0585938,0.023437 0.12890625,0.035156 0.18750005,0.035156 0.1992187,0 0.5273437,-0.1289062 0.5273437,-0.5273437 0,-0.3398438 -0.234375,-0.5273438 -0.5273437,-0.5273438 -0.21093755,0 -0.5273438,0.1054688 -0.5273438,0.5742188 0,1.00781249 0.8085938,2.16796874 2.1445313,2.16796874 1.3476562,0 2.53125,-1.125 2.53125,-2.64843754 0,-1.4179687 -0.9609375,-2.6015625 -2.2148438,-2.6015625 -0.6796875,0 -1.2070312,0.2929688 -1.5117187,0.6328125 z m 0,0"
         style="fill:#000000;fill-opacity:1;fill-rule:nonzero;stroke:none" />
      <path
         id="path63"
         d="m 8.1867344,0.04767969 c 0,-0.69140625 -0.2226563,-1.20703129 -0.7148438,-1.20703129 -0.3867187,0 -0.5742187,0.31640629 -0.5742187,0.57421879 0,0.2578125 0.1757812,0.5859374975 0.5859375,0.5859374975 0.1523437,0 0.28125,-0.0468749975 0.3867187,-0.1523437475 0.023437,-0.0234375 0.035156,-0.0234375 0.046875,-0.0234375 0.035156,0 0.035156,0.1640625 0.035156,0.22265625 0,0.3984375 -0.082031,1.17187501 -0.7734375,1.94531251 -0.1289063,0.1523437 -0.1289063,0.1757812 -0.1289063,0.1992187 0,0.058594 0.058594,0.1171875 0.1171875,0.1171875 0.09375,0 1.0195313,-0.890625 1.0195316,-2.26171871 z m 0,0"
         style="fill:#000000;fill-opacity:1;fill-rule:nonzero;stroke:none" />
      <path
         id="path64"
         d="m 15.414273,-7.7804453 c 0,-0.2226563 0,-0.2929688 -0.164062,-0.2929688 -0.09375,0 -0.128906,0 -0.222656,0.1523438 l -3.597657,5.578125 v 0.3515625 h 3.140625 v 1.07812499 c 0,0.4453125 -0.02344,0.5625 -0.902343,0.5625 H 13.433805 V 8.046875e-4 c 0.269531,-0.0234374975 1.21875,-0.0234374975 1.558593,-0.0234374975 0.328125,0 1.289063,0 1.558594,0.0234374975 V -0.35075781 h -0.234375 c -0.867187,0 -0.902344,-0.1171875 -0.902344,-0.5625 V -1.9913828 h 1.207032 v -0.3515625 h -1.207032 z m -0.785156,0.9375 v 4.5 h -2.90625 z m 0,0"
         style="fill:#000000;fill-opacity:1;fill-rule:nonzero;stroke:none" />
    </g>
    <g
       id="g64"
       aria-label="5,5"
       transform="matrix(1.3333333,0,0,1.3333333,383.15467,15.474667)">
      <path
         id="path65"
         d="m 1.5363438,-6.8423281 c 0.5039062,0.1640625 0.9257812,0.1757812 1.0546875,0.1757812 1.359375,0 2.2148437,-0.9960937 2.2148437,-1.1601562 0,-0.046875 -0.023437,-0.1054688 -0.09375,-0.1054688 -0.023437,0 -0.046875,0 -0.1523437,0.046875 -0.6679688,0.28125 -1.2421875,0.3164063 -1.5585938,0.3164063 -0.7851562,0 -1.3476562,-0.234375 -1.5820312,-0.328125 -0.082031,-0.035156 -0.1054688,-0.035156 -0.1171875,-0.035156 -0.09375,0 -0.09375,0.070312 -0.09375,0.2578125 v 3.5507813 c 0,0.2109375 0,0.2929687 0.140625,0.2929687 0.058594,0 0.070312,-0.011719 0.1992187,-0.1640625 0.328125,-0.4921875 0.890625,-0.7734375 1.4882813,-0.7734375 0.6328125,0 0.9492187,0.5859375 1.0429687,0.7851563 0.1992188,0.46875 0.2109375,1.0546875 0.2109375,1.5117187 0,0.4570313 0,1.1367188 -0.328125,1.67578127 -0.2695312,0.421875 -0.7382812,0.7265625 -1.2539062,0.7265625 -0.796875,0 -1.5703125,-0.5390625 -1.78125005,-1.40624997 0.0585938,0.023437 0.12890625,0.035156 0.18750005,0.035156 0.1992187,0 0.5273437,-0.1289062 0.5273437,-0.5273437 0,-0.3398438 -0.234375,-0.5273438 -0.5273437,-0.5273438 -0.21093755,0 -0.5273438,0.1054688 -0.5273438,0.5742188 0,1.00781247 0.8085938,2.16796872 2.1445313,2.16796872 1.3476562,0 2.53125,-1.125 2.53125,-2.64843752 0,-1.4179687 -0.9609375,-2.6015625 -2.2148438,-2.6015625 -0.6796875,0 -1.2070312,0.2929688 -1.5117187,0.6328125 z m 0,0"
         style="fill:#000000;fill-opacity:1;fill-rule:nonzero;stroke:none" />
      <path
         id="path66"
         d="m 8.1867344,0.04829687 c 0,-0.69140625 -0.2226563,-1.20703127 -0.7148438,-1.20703127 -0.3867187,0 -0.5742187,0.31640627 -0.5742187,0.57421877 0,0.2578125 0.1757812,0.5859375 0.5859375,0.5859375 0.1523437,0 0.28125,-0.046875 0.3867187,-0.15234375 0.023437,-0.0234375 0.035156,-0.0234375 0.046875,-0.0234375 0.035156,0 0.035156,0.1640625 0.035156,0.22265625 0,0.3984375 -0.082031,1.17187503 -0.7734375,1.94531253 -0.1289063,0.1523437 -0.1289063,0.1757812 -0.1289063,0.1992187 0,0.058594 0.058594,0.1171875 0.1171875,0.1171875 0.09375,0 1.0195313,-0.890625 1.0195316,-2.26171873 z m 0,0"
         style="fill:#000000;fill-opacity:1;fill-rule:nonzero;stroke:none" />
      <path
         id="path67"
         d="m 12.63693,-6.8423281 c 0.503906,0.1640625 0.925781,0.1757812 1.054687,0.1757812 1.359375,0 2.214844,-0.9960937 2.214844,-1.1601562 0,-0.046875 -0.02344,-0.1054688 -0.09375,-0.1054688 -0.02344,0 -0.04687,0 -0.152344,0.046875 -0.667969,0.28125 -1.242187,0.3164063 -1.558594,0.3164063 -0.785156,0 -1.347656,-0.234375 -1.582031,-0.328125 -0.08203,-0.035156 -0.105469,-0.035156 -0.117187,-0.035156 -0.09375,0 -0.09375,0.070312 -0.09375,0.2578125 v 3.5507813 c 0,0.2109375 0,0.2929687 0.140625,0.2929687 0.05859,0 0.07031,-0.011719 0.199218,-0.1640625 0.328125,-0.4921875 0.890625,-0.7734375 1.488282,-0.7734375 0.632812,0 0.949218,0.5859375 1.042968,0.7851563 0.199219,0.46875 0.210938,1.0546875 0.210938,1.5117187 0,0.4570313 0,1.1367188 -0.328125,1.67578127 -0.269531,0.421875 -0.738281,0.7265625 -1.253906,0.7265625 -0.796875,0 -1.570313,-0.5390625 -1.78125,-1.40624997 0.05859,0.023437 0.128906,0.035156 0.1875,0.035156 0.199218,0 0.527343,-0.1289062 0.527343,-0.5273437 0,-0.3398438 -0.234375,-0.5273438 -0.527343,-0.5273438 -0.210938,0 -0.527344,0.1054688 -0.527344,0.5742188 0,1.00781247 0.808594,2.16796872 2.144531,2.16796872 1.347656,0 2.53125,-1.125 2.53125,-2.64843752 0,-1.4179687 -0.960937,-2.6015625 -2.214844,-2.6015625 -0.679687,0 -1.207031,0.2929688 -1.511718,0.6328125 z m 0,0"
         style="fill:#000000;fill-opacity:1;fill-rule:nonzero;stroke:none" />
    </g>
    <path
       id="path68"
       d="M 12.57603,0 H 33.95337"
       style="fill:none;stroke:#000000;stroke-width:2.83466;stroke-linecap:butt;stroke-linejoin:miter;stroke-miterlimit:10;stroke-dasharray:none;stroke-opacity:1"
       transform="matrix(1.3333333,0,0,-1.3333333,16.502667,389.84133)" />
    <path
       id="path69"
       d="M 10.16418,0 C 7.15253,0.56467 2.2587,2.2587 -1.12935,4.23506 V -4.23506 C 2.2587,-2.2587 7.15253,-0.56467 10.16418,0"
       style="fill:#000000;fill-opacity:1;fill-rule:nonzero;stroke:none"
       transform="matrix(1.3333333,0,0,-1.3333333,61.773827,389.84133)" />
    <path
       id="path70"
       d="M 69.26967,0 H 90.64699"
       style="fill:none;stroke:#000000;stroke-width:2.83466;stroke-linecap:butt;stroke-linejoin:miter;stroke-miterlimit:10;stroke-dasharray:none;stroke-opacity:1"
       transform="matrix(1.3333333,0,0,-1.3333333,16.502667,389.84133)" />
    <path
       id="path71"
       d="M 10.16418,0 C 7.15253,0.56467 2.2587,2.2587 -1.12935,4.23506 V -4.23506 C 2.2587,-2.2587 7.15253,-0.56467 10.16418,0"
       style="fill:#000000;fill-opacity:1;fill-rule:nonzero;stroke:none"
       transform="matrix(1.3333333,0,0,-1.3333333,137.36532,389.84133)" />
    <path
       id="path72"
       d="M 125.96329,0 H 147.3406"
       style="fill:none;stroke:#000000;stroke-width:2.83466;stroke-linecap:butt;stroke-linejoin:miter;stroke-miterlimit:10;stroke-dasharray:none;stroke-opacity:1"
       transform="matrix(1.3333333,0,0,-1.3333333,16.502667,389.84133)" />
    <path
       id="path73"
       d="M 10.16418,0 C 7.15253,0.56467 2.2587,2.2587 -1.12935,4.23506 V -4.23506 C 2.2587,-2.2587 7.15253,-0.56467 10.16418,0"
       style="fill:#000000;fill-opacity:1;fill-rule:nonzero;stroke:none"
       transform="matrix(1.3333333,0,0,-1.3333333,212.9568,389.84133)" />
    <path
       id="path74"
       d="m 182.6569,0 h 21.37733"
       style="fill:none;stroke:#000000;stroke-width:2.83466;stroke-linecap:butt;stroke-linejoin:miter;stroke-miterlimit:10;stroke-dasharray:none;stroke-opacity:1"
       transform="matrix(1.3333333,0,0,-1.3333333,16.502667,389.84133)" />
    <path
       id="path75"
       d="M 10.16418,0 C 7.15253,0.56467 2.2587,2.2587 -1.12935,4.23506 V -4.23506 C 2.2587,-2.2587 7.15253,-0.56467 10.16418,0"
       style="fill:#000000;fill-opacity:1;fill-rule:nonzero;stroke:none"
       transform="matrix(1.3333333,0,0,-1.3333333,288.54831,389.84133)" />
    <path
       id="path76"
       d="m 239.35052,0 h 21.37732"
       style="fill:none;stroke:#000000;stroke-width:2.83466;stroke-linecap:butt;stroke-linejoin:miter;stroke-miterlimit:10;stroke-dasharray:none;stroke-opacity:1"
       transform="matrix(1.3333333,0,0,-1.3333333,16.502667,389.84133)" />
    <path
       id="path77"
       d="M 10.16418,0 C 7.15253,0.56467 2.2587,2.2587 -1.12935,4.23506 V -4.23506 C 2.2587,-2.2587 7.15253,-0.56467 10.16418,0"
       style="fill:#000000;fill-opacity:1;fill-rule:nonzero;stroke:none"
       transform="matrix(1.3333333,0,0,-1.3333333,364.13979,389.84133)" />
    <path
       id="path78"
       d="m 12.57603,12.57315 27.8201,27.81816"
       style="fill:none;stroke:#000000;stroke-width:2.83466;stroke-linecap:butt;stroke-linejoin:miter;stroke-miterlimit:10;stroke-dasharray:none;stroke-opacity:1"
       transform="matrix(1.3333333,0,0,-1.3333333,16.502667,389.84133)" />
    <path
       id="path79"
       d="M 10.16418,0 C 7.15253,0.56467 2.2587,2.2587 -1.12935,4.23506 V -4.23506 C 2.2587,-2.2587 7.15253,-0.56467 10.16418,0"
       style="fill:#000000;fill-opacity:1;fill-rule:nonzero;stroke:none"
       transform="matrix(0.94282667,-0.94277333,-0.94277333,-0.94282667,70.364173,335.98627)" />
    <path
       id="path80"
       d="M 69.26967,56.69362 H 90.64699"
       style="fill:none;stroke:#000000;stroke-width:2.83466;stroke-linecap:butt;stroke-linejoin:miter;stroke-miterlimit:10;stroke-dasharray:none;stroke-opacity:1"
       transform="matrix(1.3333333,0,0,-1.3333333,16.502667,389.84133)" />
    <path
       id="path81"
       d="M 10.16418,0 C 7.15253,0.56467 2.2587,2.2587 -1.12935,4.23506 V -4.23506 C 2.2587,-2.2587 7.15253,-0.56467 10.16418,0"
       style="fill:#000000;fill-opacity:1;fill-rule:nonzero;stroke:none"
       transform="matrix(1.3333333,0,0,-1.3333333,137.36532,314.24984)" />
    <path
       id="path82"
       d="M 125.96329,56.69362 H 147.3406"
       style="fill:none;stroke:#000000;stroke-width:2.83466;stroke-linecap:butt;stroke-linejoin:miter;stroke-miterlimit:10;stroke-dasharray:none;stroke-opacity:1"
       transform="matrix(1.3333333,0,0,-1.3333333,16.502667,389.84133)" />
    <path
       id="path83"
       d="M 10.16418,0 C 7.15253,0.56467 2.2587,2.2587 -1.12935,4.23506 V -4.23506 C 2.2587,-2.2587 7.15253,-0.56467 10.16418,0"
       style="fill:#000000;fill-opacity:1;fill-rule:nonzero;stroke:none"
       transform="matrix(1.3333333,0,0,-1.3333333,212.9568,314.24984)" />
    <path
       id="path84"
       d="m 182.6569,56.69362 h 21.37733"
       style="fill:none;stroke:#000000;stroke-width:2.83466;stroke-linecap:butt;stroke-linejoin:miter;stroke-miterlimit:10;stroke-dasharray:none;stroke-opacity:1"
       transform="matrix(1.3333333,0,0,-1.3333333,16.502667,389.84133)" />
    <path
       id="path85"
       d="M 10.16418,0 C 7.15253,0.56467 2.2587,2.2587 -1.12935,4.23506 V -4.23506 C 2.2587,-2.2587 7.15253,-0.56467 10.16418,0"
       style="fill:#000000;fill-opacity:1;fill-rule:nonzero;stroke:none"
       transform="matrix(1.3333333,0,0,-1.3333333,288.54831,314.24984)" />
    <path
       id="path86"
       d="m 239.35052,56.69362 h 21.37732"
       style="fill:none;stroke:#000000;stroke-width:2.83466;stroke-linecap:butt;stroke-linejoin:miter;stroke-miterlimit:10;stroke-dasharray:none;stroke-opacity:1"
       transform="matrix(1.3333333,0,0,-1.3333333,16.502667,389.84133)" />
    <path
       id="path87"
       d="M 10.16418,0 C 7.15253,0.56467 2.2587,2.2587 -1.12935,4.23506 V -4.23506 C 2.2587,-2.2587 7.15253,-0.56467 10.16418,0"
       style="fill:#000000;fill-opacity:1;fill-rule:nonzero;stroke:none"
       transform="matrix(1.3333333,0,0,-1.3333333,364.13979,314.24984)" />
    <path
       id="path88"
       d="M 65.80792,65.80905 97.08945,97.08539"
       style="fill:none;stroke:#000000;stroke-width:2.83466;stroke-linecap:butt;stroke-linejoin:miter;stroke-miterlimit:10;stroke-dasharray:none;stroke-opacity:1"
       transform="matrix(1.3333333,0,0,-1.3333333,16.502667,389.84133)" />
    <path
       id="path89"
       d="M 10.16418,0 C 7.15253,0.56467 2.2587,2.2587 -1.12935,4.23506 V -4.23506 C 2.2587,-2.2587 7.15253,-0.56467 10.16418,0"
       style="fill:#000000;fill-opacity:1;fill-rule:nonzero;stroke:none"
       transform="matrix(0.94286667,-0.94270667,-0.94270667,-0.94286667,145.95524,260.39415)" />
    <path
       id="path90"
       d="m 122.50154,65.80905 31.28153,31.27634"
       style="fill:none;stroke:#000000;stroke-width:2.83466;stroke-linecap:butt;stroke-linejoin:miter;stroke-miterlimit:10;stroke-dasharray:none;stroke-opacity:1"
       transform="matrix(1.3333333,0,0,-1.3333333,16.502667,389.84133)" />
    <path
       id="path91"
       d="M 10.16418,0 C 7.15253,0.56467 2.2587,2.2587 -1.12935,4.23506 V -4.23506 C 2.2587,-2.2587 7.15253,-0.56467 10.16418,0"
       style="fill:#000000;fill-opacity:1;fill-rule:nonzero;stroke:none"
       transform="matrix(0.94286667,-0.94270667,-0.94270667,-0.94286667,221.54673,260.39415)" />
    <path
       id="path92"
       d="m 182.6569,113.38724 h 21.37733"
       style="fill:none;stroke:#000000;stroke-width:2.83466;stroke-linecap:butt;stroke-linejoin:miter;stroke-miterlimit:10;stroke-dasharray:none;stroke-opacity:1"
       transform="matrix(1.3333333,0,0,-1.3333333,16.502667,389.84133)" />
    <path
       id="path93"
       d="M 10.16418,0 C 7.15253,0.56467 2.2587,2.2587 -1.12935,4.23506 V -4.23506 C 2.2587,-2.2587 7.15253,-0.56467 10.16418,0"
       style="fill:#000000;fill-opacity:1;fill-rule:nonzero;stroke:none"
       transform="matrix(1.3333333,0,0,-1.3333333,288.54831,238.65835)" />
    <path
       id="path94"
       d="m 239.35052,113.38724 h 21.37732"
       style="fill:none;stroke:#000000;stroke-width:2.83466;stroke-linecap:butt;stroke-linejoin:miter;stroke-miterlimit:10;stroke-dasharray:none;stroke-opacity:1"
       transform="matrix(1.3333333,0,0,-1.3333333,16.502667,389.84133)" />
    <path
       id="path95"
       d="M 10.16418,0 C 7.15253,0.56467 2.2587,2.2587 -1.12935,4.23506 V -4.23506 C 2.2587,-2.2587 7.15253,-0.56467 10.16418,0"
       style="fill:#000000;fill-opacity:1;fill-rule:nonzero;stroke:none"
       transform="matrix(1.3333333,0,0,-1.3333333,364.13979,238.65835)" />
    <path
       id="path96"
       d="M 122.50154,122.50267 153.78307,153.779"
       style="fill:none;stroke:#000000;stroke-width:2.83466;stroke-linecap:butt;stroke-linejoin:miter;stroke-miterlimit:10;stroke-dasharray:none;stroke-opacity:1"
       transform="matrix(1.3333333,0,0,-1.3333333,16.502667,389.84133)" />
    <path
       id="path97"
       d="M 10.16418,0 C 7.15253,0.56467 2.2587,2.2587 -1.12935,4.23506 V -4.23506 C 2.2587,-2.2587 7.15253,-0.56467 10.16418,0"
       style="fill:#000000;fill-opacity:1;fill-rule:nonzero;stroke:none"
       transform="matrix(0.94286667,-0.94270667,-0.94270667,-0.94286667,221.54673,184.80267)" />
    <path
       id="path98"
       d="M 179.19516,122.50267 210.47668,153.779"
       style="fill:none;stroke:#000000;stroke-width:2.83466;stroke-linecap:butt;stroke-linejoin:miter;stroke-miterlimit:10;stroke-dasharray:none;stroke-opacity:1"
       transform="matrix(1.3333333,0,0,-1.3333333,16.502667,389.84133)" />
    <path
       id="path99"
       d="M 10.16418,0 C 7.15253,0.56467 2.2587,2.2587 -1.12935,4.23506 V -4.23506 C 2.2587,-2.2587 7.15253,-0.56467 10.16418,0"
       style="fill:#000000;fill-opacity:1;fill-rule:nonzero;stroke:none"
       transform="matrix(0.94286667,-0.94270667,-0.94270667,-0.94286667,297.13823,184.80267)" />
    <path
       id="path100"
       d="M 235.8888,122.50267 267.1703,153.779"
       style="fill:none;stroke:#000000;stroke-width:2.83466;stroke-linecap:butt;stroke-linejoin:miter;stroke-miterlimit:10;stroke-dasharray:none;stroke-opacity:1"
       transform="matrix(1.3333333,0,0,-1.3333333,16.502667,389.84133)" />
    <path
       id="path101"
       d="M 10.16418,0 C 7.15253,0.56467 2.2587,2.2587 -1.12935,4.23506 V -4.23506 C 2.2587,-2.2587 7.15253,-0.56467 10.16418,0"
       style="fill:#000000;fill-opacity:1;fill-rule:nonzero;stroke:none"
       transform="matrix(0.94286667,-0.94270667,-0.94270667,-0.94286667,372.72972,184.80267)" />
    <path
       id="path102"
       d="m 179.19516,179.19629 31.28152,31.27634"
       style="fill:none;stroke:#000000;stroke-width:2.83466;stroke-linecap:butt;stroke-linejoin:miter;stroke-miterlimit:10;stroke-dasharray:none;stroke-opacity:1"
       transform="matrix(1.3333333,0,0,-1.3333333,16.502667,389.84133)" />
    <path
       id="path103"
       d="M 10.16418,0 C 7.15253,0.56467 2.2587,2.2587 -1.12935,4.23506 V -4.23506 C 2.2587,-2.2587 7.15253,-0.56467 10.16418,0"
       style="fill:#000000;fill-opacity:1;fill-rule:nonzero;stroke:none"
       transform="matrix(0.94286667,-0.94270667,-0.94270667,-0.94286667,297.13823,109.21116)" />
    <path
       id="path104"
       d="m 235.8888,179.19629 31.2815,31.27634"
       style="fill:none;stroke:#000000;stroke-width:2.83466;stroke-linecap:butt;stroke-linejoin:miter;stroke-miterlimit:10;stroke-dasharray:none;stroke-opacity:1"
       transform="matrix(1.3333333,0,0,-1.3333333,16.502667,389.84133)" />
    <path
       id="path105"
       d="M 10.16418,0 C 7.15253,0.56467 2.2587,2.2587 -1.12935,4.23506 V -4.23506 C 2.2587,-2.2587 7.15253,-0.56467 10.16418,0"
       style="fill:#000000;fill-opacity:1;fill-rule:nonzero;stroke:none"
       transform="matrix(0.94286667,-0.94270667,-0.94270667,-0.94286667,372.72972,109.21116)" />
    <path
       id="path106"
       d="m 235.8888,235.88991 31.2815,31.27633"
       style="fill:none;stroke:#000000;stroke-width:2.83466;stroke-linecap:butt;stroke-linejoin:miter;stroke-miterlimit:10;stroke-dasharray:none;stroke-opacity:1"
       transform="matrix(1.3333333,0,0,-1.3333333,16.502667,389.84133)" />
    <path
       id="path107"
       d="M 10.16418,0 C 7.15253,0.56467 2.2587,2.2587 -1.12935,4.23506 V -4.23506 C 2.2587,-2.2587 7.15253,-0.56467 10.16418,0"
       style="fill:#000000;fill-opacity:1;fill-rule:nonzero;stroke:none"
       transform="matrix(0.94286667,-0.94270667,-0.94270667,-0.94286667,372.72972,33.61968)" />
  </g>
</svg>
