<?xml version="1.0" encoding="UTF-8" standalone="no"?>
<!-- Created with Inkscape (http://www.inkscape.org/) -->

<svg
   version="1.1"
   id="svg1"
   width="309.9989"
   height="271.65582"
   viewBox="0 0 309.9989 271.65582"
   sodipodi:docname="risbo_example_sym.svg"
   inkscape:export-filename="risbo_example2.svg"
   inkscape:export-xdpi="96"
   inkscape:export-ydpi="96"
   inkscape:version="1.4.3 (0d15f75042, 2025-12-25)"
   xmlns:inkscape="http://www.inkscape.org/namespaces/inkscape"
   xmlns:sodipodi="http://sodipodi.sourceforge.net/DTD/sodipodi-0.dtd"
   xmlns="http://www.w3.org/2000/svg"
   xmlns:svg="http://www.w3.org/2000/svg">
  <defs
     id="defs1" />
  <sodipodi:namedview
     id="namedview1"
     pagecolor="#ffffff"
     bordercolor="#000000"
     borderopacity="0.25"
     inkscape:showpageshadow="2"
     inkscape:pageopacity="0.0"
     inkscape:pagecheckerboard="0"
     inkscape:deskcolor="#d1d1d1"
     inkscape:zoom="2.1880707"
     inkscape:cx="90.490679"
     inkscape:cy="170.01279"
     inkscape:window-width="2133"
     inkscape:window-height="1333"
     inkscape:window-x="0"
     inkscape:window-y="0"
     inkscape:window-maximized="0"
     inkscape:current-layer="g1">
    <inkscape:page
       x="0"
       y="0"
       width="309.9989"
       height="271.65582"
       id="page2"
       margin="0"
       bleed="0" />
  </sodipodi:namedview>
  <g
     id="g1"
     inkscape:groupmode="layer"
     inkscape:label="1"
     transform="translate(-5.84375,-4.988282)">
    <path
       id="path1"
       d="M 5.51819,0 C 5.51819,3.04764 3.04764,5.51819 0,5.51819 -3.04764,5.51819 -5.51819,3.04764 -5.51819,0 c 0,-3.04764 2.47055,-5.51819 5.51819,-5.51819 3.04764,0 5.51819,2.47055 5.51819,5.51819 z"
       style="fill:none;stroke:#000000;stroke-width:1.41731;stroke-linecap:butt;stroke-linejoin:miter;stroke-miterlimit:10;stroke-dasharray:none;stroke-opacity:1"
       transform="matrix(1.3333333,0,0,-1.3333333,57.372,241.284)" />
    <path
       id="path2"
       d="m 62.2118,0 c 0,3.04764 -2.47054,5.51819 -5.51818,5.51819 -3.04765,0 -5.5182,-2.47055 -5.5182,-5.51819 0,-3.04764 2.47055,-5.51819 5.5182,-5.51819 3.04764,0 5.51818,2.47055 5.51818,5.51819 z"
       style="fill:none;stroke:#000000;stroke-width:1.41731;stroke-linecap:butt;stroke-linejoin:miter;stroke-miterlimit:10;stroke-dasharray:none;stroke-opacity:1"
       transform="matrix(1.3333333,0,0,-1.3333333,57.372,241.284)" />
    <path
       id="path3"
       d="m 118.90543,0 c 0,3.04764 -2.47055,5.51819 -5.51819,5.51819 -3.04766,0 -5.51821,-2.47055 -5.51821,-5.51819 0,-3.04764 2.47055,-5.51819 5.51821,-5.51819 3.04764,0 5.51819,2.47055 5.51819,5.51819 z"
       style="fill:none;stroke:#000000;stroke-width:1.41731;stroke-linecap:butt;stroke-linejoin:miter;stroke-miterlimit:10;stroke-dasharray:none;stroke-opacity:1"
       transform="matrix(1.3333333,0,0,-1.3333333,57.372,241.284)" />
    <path
       id="path4"
       d="m 175.59904,0 c 0,3.04764 -2.47054,5.51819 -5.51818,5.51819 -3.04766,0 -5.51821,-2.47055 -5.51821,-5.51819 0,-3.04764 2.47055,-5.51819 5.51821,-5.51819 3.04764,0 5.51818,2.47055 5.51818,5.51819 z"
       style="fill:none;stroke:#000000;stroke-width:1.41731;stroke-linecap:butt;stroke-linejoin:miter;stroke-miterlimit:10;stroke-dasharray:none;stroke-opacity:1"
       transform="matrix(1.3333333,0,0,-1.3333333,57.372,241.284)" />
    <path
       id="path5"
       d="m 5.51819,56.69362 c 0,3.04764 -2.47055,5.51818 -5.51819,5.51818 -3.04764,0 -5.51819,-2.47054 -5.51819,-5.51818 0,-3.04765 2.47055,-5.5182 5.51819,-5.5182 3.04764,0 5.51819,2.47055 5.51819,5.5182 z"
       style="fill:none;stroke:#000000;stroke-width:1.41731;stroke-linecap:butt;stroke-linejoin:miter;stroke-miterlimit:10;stroke-dasharray:none;stroke-opacity:1"
       transform="matrix(1.3333333,0,0,-1.3333333,57.372,241.284)" />
    <path
       id="path6"
       d="m 62.2118,56.69362 c 0,3.04764 -2.47054,5.51818 -5.51818,5.51818 -3.04765,0 -5.5182,-2.47054 -5.5182,-5.51818 0,-3.04765 2.47055,-5.5182 5.5182,-5.5182 3.04764,0 5.51818,2.47055 5.51818,5.5182 z"
       style="fill:none;stroke:#000000;stroke-width:1.41731;stroke-linecap:butt;stroke-linejoin:miter;stroke-miterlimit:10;stroke-dasharray:none;stroke-opacity:1"
       transform="matrix(1.3333333,0,0,-1.3333333,57.372,241.284)" />
    <path
       id="path7"
       d="m 118.90543,56.69362 c 0,3.04764 -2.47055,5.51818 -5.51819,5.51818 -3.04766,0 -5.51821,-2.47054 -5.51821,-5.51818 0,-3.04765 2.47055,-5.5182 5.51821,-5.5182 3.04764,0 5.51819,2.47055 5.51819,5.5182 z"
       style="fill:none;stroke:#000000;stroke-width:1.41731;stroke-linecap:butt;stroke-linejoin:miter;stroke-miterlimit:10;stroke-dasharray:none;stroke-opacity:1"
       transform="matrix(1.3333333,0,0,-1.3333333,57.372,241.284)" />
    <path
       id="path8"
       d="m 175.59904,56.69362 c 0,3.04764 -2.47054,5.51818 -5.51818,5.51818 -3.04766,0 -5.51821,-2.47054 -5.51821,-5.51818 0,-3.04765 2.47055,-5.5182 5.51821,-5.5182 3.04764,0 5.51818,2.47055 5.51818,5.5182 z"
       style="fill:none;stroke:#000000;stroke-width:1.41731;stroke-linecap:butt;stroke-linejoin:miter;stroke-miterlimit:10;stroke-dasharray:none;stroke-opacity:1"
       transform="matrix(1.3333333,0,0,-1.3333333,57.372,241.284)" />
    <path
       id="path9"
       d="m 5.51819,113.38724 c 0,3.04764 -2.47055,5.51819 -5.51819,5.51819 -3.04764,0 -5.51819,-2.47055 -5.51819,-5.51819 0,-3.04766 2.47055,-5.51821 5.51819,-5.51821 3.04764,0 5.51819,2.47055 5.51819,5.51821 z"
       style="fill:none;stroke:#000000;stroke-width:1.41731;stroke-linecap:butt;stroke-linejoin:miter;stroke-miterlimit:10;stroke-dasharray:none;stroke-opacity:1"
       transform="matrix(1.3333333,0,0,-1.3333333,57.372,241.284)" />
    <path
       id="path10"
       d="m 62.2118,113.38724 c 0,3.04764 -2.47054,5.51819 -5.51818,5.51819 -3.04765,0 -5.5182,-2.47055 -5.5182,-5.51819 0,-3.04766 2.47055,-5.51821 5.5182,-5.51821 3.04764,0 5.51818,2.47055 5.51818,5.51821 z"
       style="fill:none;stroke:#000000;stroke-width:1.41731;stroke-linecap:butt;stroke-linejoin:miter;stroke-miterlimit:10;stroke-dasharray:none;stroke-opacity:1"
       transform="matrix(1.3333333,0,0,-1.3333333,57.372,241.284)" />
    <path
       id="path11"
       d="m 118.90543,113.38724 c 0,3.04764 -2.47055,5.51819 -5.51819,5.51819 -3.04766,0 -5.51821,-2.47055 -5.51821,-5.51819 0,-3.04766 2.47055,-5.51821 5.51821,-5.51821 3.04764,0 5.51819,2.47055 5.51819,5.51821 z"
       style="fill:none;stroke:#000000;stroke-width:1.41731;stroke-linecap:butt;stroke-linejoin:miter;stroke-miterlimit:10;stroke-dasharray:none;stroke-opacity:1"
       transform="matrix(1.3333333,0,0,-1.3333333,57.372,241.284)" />
    <path
       id="path12"
       d="m 175.59904,113.38724 c 0,3.04764 -2.47054,5.51819 -5.51818,5.51819 -3.04766,0 -5.51821,-2.47055 -5.51821,-5.51819 0,-3.04766 2.47055,-5.51821 5.51821,-5.51821 3.04764,0 5.51818,2.47055 5.51818,5.51821 z"
       style="fill:none;stroke:#000000;stroke-width:1.41731;stroke-linecap:butt;stroke-linejoin:miter;stroke-miterlimit:10;stroke-dasharray:none;stroke-opacity:1"
       transform="matrix(1.3333333,0,0,-1.3333333,57.372,241.284)" />
    <path
       id="path13"
       d="m 5.51819,170.08086 c 0,3.04764 -2.47055,5.51818 -5.51819,5.51818 -3.04764,0 -5.51819,-2.47054 -5.51819,-5.51818 0,-3.04766 2.47055,-5.51821 5.51819,-5.51821 3.04764,0 5.51819,2.47055 5.51819,5.51821 z"
       style="fill:none;stroke:#000000;stroke-width:1.41731;stroke-linecap:butt;stroke-linejoin:miter;stroke-miterlimit:10;stroke-dasharray:none;stroke-opacity:1"
       transform="matrix(1.3333333,0,0,-1.3333333,57.372,241.284)" />
    <path
       id="path14"
       d="m 62.2118,170.08086 c 0,3.04764 -2.47054,5.51818 -5.51818,5.51818 -3.04765,0 -5.5182,-2.47054 -5.5182,-5.51818 0,-3.04766 2.47055,-5.51821 5.5182,-5.51821 3.04764,0 5.51818,2.47055 5.51818,5.51821 z"
       style="fill:none;stroke:#000000;stroke-width:1.41731;stroke-linecap:butt;stroke-linejoin:miter;stroke-miterlimit:10;stroke-dasharray:none;stroke-opacity:1"
       transform="matrix(1.3333333,0,0,-1.3333333,57.372,241.284)" />
    <path
       id="path15"
       d="m 118.90543,170.08086 c 0,3.04764 -2.47055,5.51818 -5.51819,5.51818 -3.04766,0 -5.51821,-2.47054 -5.51821,-5.51818 0,-3.04766 2.47055,-5.51821 5.51821,-5.51821 3.04764,0 5.51819,2.47055 5.51819,5.51821 z"
       style="fill:none;stroke:#000000;stroke-width:1.41731;stroke-linecap:butt;stroke-linejoin:miter;stroke-miterlimit:10;stroke-dasharray:none;stroke-opacity:1"
       transform="matrix(1.3333333,0,0,-1.3333333,57.372,241.284)" />
    <path
       id="path16"
       d="m 175.59904,170.08086 c 0,3.04764 -2.47054,5.51818 -5.51818,5.51818 -3.04766,0 -5.51821,-2.47054 -5.51821,-5.51818 0,-3.04766 2.47055,-5.51821 5.51821,-5.51821 3.04764,0 5.51818,2.47055 5.51818,5.51821 z"
       style="fill:none;stroke:#000000;stroke-width:1.41731;stroke-linecap:butt;stroke-linejoin:miter;stroke-miterlimit:10;stroke-dasharray:none;stroke-opacity:1"
       transform="matrix(1.3333333,0,0,-1.3333333,57.372,241.284)" />
    <path
       id="path17"
       d="m 2.0168906,-2.6589922 c 0.6328125,0 1.03125,0.4570313 1.03125,1.3007813 0,0.99609371 -0.5742187,1.28906246 -0.9960937,1.28906246 -0.4335938,0 -1.03125,-0.1640625 -1.31250002,-0.5859375 0.29296872,0 0.49218752,-0.17578125 0.49218752,-0.44531246 0,-0.2578125 -0.1875,-0.4335938 -0.44531252,-0.4335938 -0.2109375,0 -0.43359375,0.1289063 -0.43359375,0.4570313 0,0.74999996 0.80859377,1.24218746 1.72265627,1.24218746 1.0546875,0 1.7929687,-0.7265625 1.7929687,-1.52343746 0,-0.6679688 -0.515625,-1.265625 -1.3359375,-1.4414063 0.6328125,-0.2226562 1.1015625,-0.7734375 1.1015625,-1.40625 0,-0.6328125 -0.7148437,-1.0898437 -1.546875,-1.0898437 -0.8554687,0 -1.49999997,0.4570312 -1.49999997,1.0664062 0,0.2929688 0.19921875,0.421875 0.41015625,0.421875 0.24609372,0 0.41015622,-0.1757812 0.41015622,-0.4101562 0,-0.2929688 -0.2578125,-0.3984375 -0.43359372,-0.4101563 0.33984372,-0.4335937 0.94921872,-0.46875 1.08984372,-0.46875 0.2109375,0 0.8085938,0.070312 0.8085938,0.890625 0,0.5625 -0.2226563,0.890625 -0.3398438,1.0195313 -0.234375,0.2460937 -0.421875,0.2578125 -0.9023437,0.2929687 -0.1523438,0.011719 -0.2226563,0.023437 -0.2226563,0.1171875 0,0.1171875 0.070312,0.1171875 0.2109375,0.1171875 z m 0,0"
       style="fill:#000000;fill-opacity:1;fill-rule:nonzero;stroke:none"
       aria-label="3"
       transform="matrix(1.3333333,0,0,1.3333333,307.928,238.82267)" />
    <path
       id="path18"
       d="M 0,0 H 4.234"
       style="fill:none;stroke:#000000;stroke-width:0.478;stroke-linecap:butt;stroke-linejoin:miter;stroke-miterlimit:10;stroke-dasharray:none;stroke-opacity:1"
       transform="matrix(1.3333333,0,0,-1.3333333,307.928,241.11333)" />
    <path
       id="path19"
       d="m 2.2512656,-1.6295937 c 0.1289063,-0.1171875 0.4570313,-0.375 0.5859375,-0.4921875 0.4921875,-0.4570313 0.9609375,-0.890625 0.9609375,-1.6171875 0,-0.9492188 -0.796875,-1.5585938 -1.7929687,-1.5585938 -0.9492188,0 -1.58203127,0.7265625 -1.58203127,1.4296875 0,0.3984375 0.31640625,0.4453125 0.421875,0.4453125 0.16406247,0 0.41015627,-0.1171875 0.41015627,-0.421875 0,-0.4101562 -0.39843752,-0.4101562 -0.49218752,-0.4101562 0.234375,-0.5859375 0.77343752,-0.7851563 1.16015622,-0.7851563 0.7382813,0 1.125,0.6328125 1.125,1.3007813 0,0.8320312 -0.5859375,1.4296875 -1.5234375,2.4023437 l -1.00781247,1.03125 c -0.09375,0.09375 -0.09375,0.10546875 -0.09375,0.3046875 H 3.5754844 L 3.7981406,-1.430375 H 3.5520469 c -0.023437,0.1640625 -0.082031,0.5625 -0.1757813,0.71484375 -0.046875,0.0585938 -0.65625,0.0585938 -0.7851562,0.0585938 H 1.1731406 Z m 0,0"
       style="fill:#000000;fill-opacity:1;fill-rule:nonzero;stroke:none"
       aria-label="2"
       transform="matrix(1.3333333,0,0,1.3333333,307.928,250.59467)" />
    <path
       id="path20"
       d="m 2.5090781,-5.0753672 c 0,-0.2226562 -0.023437,-0.2226562 -0.234375,-0.2226562 -0.328125,0.3164062 -0.75,0.5039062 -1.51171872,0.5039062 v 0.2695313 c 0.22265625,0 0.64453122,0 1.11328122,-0.2226563 v 4.08984376 c 0,0.29296875 -0.023437,0.3984375 -0.7851562,0.3984375 H 0.80985938 v 0.2578125 c 0.32812502,-0.0234375 1.01953122,-0.0234375 1.37109372,-0.0234375 0.3632813,0 1.0546875,0 1.3828125,0.0234375 v -0.2578125 h -0.28125 c -0.75,0 -0.7734375,-0.10546875 -0.7734375,-0.3984375 z m 0,0"
       style="fill:#000000;fill-opacity:1;fill-rule:nonzero;stroke:none"
       aria-label="1"
       transform="matrix(1.3333333,0,0,1.3333333,307.928,163.232)" />
    <path
       id="path21"
       d="M 0,0 H 4.234"
       style="fill:none;stroke:#000000;stroke-width:0.478;stroke-linecap:butt;stroke-linejoin:miter;stroke-miterlimit:10;stroke-dasharray:none;stroke-opacity:1"
       transform="matrix(1.3333333,0,0,-1.3333333,307.928,165.52267)" />
    <path
       id="path22"
       d="m 2.2512656,-1.6289766 c 0.1289063,-0.1171875 0.4570313,-0.375 0.5859375,-0.4921875 0.4921875,-0.4570312 0.9609375,-0.890625 0.9609375,-1.6171875 0,-0.9492187 -0.796875,-1.5585937 -1.7929687,-1.5585937 -0.9492188,0 -1.58203127,0.7265625 -1.58203127,1.4296875 0,0.3984375 0.31640625,0.4453125 0.421875,0.4453125 0.16406247,0 0.41015627,-0.1171875 0.41015627,-0.421875 0,-0.4101563 -0.39843752,-0.4101563 -0.49218752,-0.4101563 0.234375,-0.5859375 0.77343752,-0.7851562 1.16015622,-0.7851562 0.7382813,0 1.125,0.6328125 1.125,1.3007812 0,0.8320313 -0.5859375,1.4296875 -1.5234375,2.4023438 l -1.00781247,1.03124999 c -0.09375,0.09375 -0.09375,0.10546875 -0.09375,0.3046874975 H 3.5754844 L 3.7981406,-1.4297578 H 3.5520469 c -0.023437,0.1640625 -0.082031,0.56249999 -0.1757813,0.71484374 -0.046875,0.0585938 -0.65625,0.0585938 -0.7851562,0.0585938 H 1.1731406 Z m 0,0"
       style="fill:#000000;fill-opacity:1;fill-rule:nonzero;stroke:none"
       aria-label="2"
       transform="matrix(1.3333333,0,0,1.3333333,307.928,175.004)" />
    <g
       id="g22"
       aria-label="−&#10;1"
       transform="matrix(1.3333333,0,0,1.3333333,296.20533,93.917333)">
      <path
         id="path23"
         d="m 7.8762734,-2.7534297 c 0.2109375,0 0.421875,0 0.421875,-0.234375 0,-0.234375 -0.2109375,-0.234375 -0.421875,-0.234375 h -6.46875 c -0.1992187,0 -0.41015621,0 -0.41015621,0.234375 0,0.234375 0.21093751,0.234375 0.41015621,0.234375 z m 0,0"
         style="fill:#000000;fill-opacity:1;fill-rule:nonzero;stroke:none" />
      <path
         id="path24"
         d="m 13.003227,-9.78175 c 0,-0.222656 -0.02344,-0.222656 -0.234375,-0.222656 -0.328125,0.316406 -0.75,0.503906 -1.511719,0.503906 v 0.2695312 c 0.222656,0 0.644531,0 1.113281,-0.2226562 v 4.0898437 c 0,0.2929688 -0.02344,0.3984375 -0.785156,0.3984375 h -0.28125 v 0.2578125 c 0.328125,-0.023437 1.019531,-0.023437 1.371094,-0.023437 0.363281,0 1.054687,0 1.382812,0.023437 v -0.2578125 h -0.28125 c -0.75,0 -0.773437,-0.1054687 -0.773437,-0.3984375 z m 0,0"
         style="fill:#000000;fill-opacity:1;fill-rule:nonzero;stroke:none" />
    </g>
    <path
       id="path25"
       d="M 0,0 H 4.234"
       style="fill:none;stroke:#000000;stroke-width:0.478;stroke-linecap:butt;stroke-linejoin:miter;stroke-miterlimit:10;stroke-dasharray:none;stroke-opacity:1"
       transform="matrix(1.3333333,0,0,-1.3333333,310.19733,89.932)" />
    <path
       id="path26"
       d="m 2.2514141,-1.6293594 c 0.1289062,-0.1171875 0.4570312,-0.375 0.5859375,-0.4921875 0.4921875,-0.4570312 0.9609375,-0.890625 0.9609375,-1.6171875 0,-0.9492187 -0.796875,-1.5585937 -1.7929688,-1.5585937 -0.9492187,0 -1.58203124,0.7265625 -1.58203124,1.4296875 0,0.3984375 0.31640625,0.4453125 0.421875,0.4453125 0.16406254,0 0.41015624,-0.1171875 0.41015624,-0.421875 0,-0.4101563 -0.39843749,-0.4101563 -0.49218749,-0.4101563 0.234375,-0.5859375 0.77343749,-0.7851562 1.16015629,-0.7851562 0.7382812,0 1.125,0.6328125 1.125,1.3007812 0,0.8320313 -0.5859375,1.4296875 -1.5234375,2.4023438 l -1.00781254,1.03124997 c -0.09375,0.09375 -0.09375,0.10546875 -0.09375,0.304687505 H 3.5756328 L 3.7982891,-1.4301406 H 3.5521953 c -0.023437,0.1640625 -0.082031,0.56249997 -0.1757812,0.71484372 -0.046875,0.0585938 -0.65625,0.0585938 -0.7851563,0.0585938 H 1.1732891 Z m 0,0"
       style="fill:#000000;fill-opacity:1;fill-rule:nonzero;stroke:none"
       aria-label="2"
       transform="matrix(1.3333333,0,0,1.3333333,310.19733,99.414667)" />
    <g
       id="g26"
       aria-label="−&#10;3"
       transform="matrix(1.3333333,0,0,1.3333333,296.20533,18.326667)">
      <path
         id="path27"
         d="m 7.8762734,-2.7528125 c 0.2109375,0 0.421875,0 0.421875,-0.234375 0,-0.234375 -0.2109375,-0.234375 -0.421875,-0.234375 h -6.46875 c -0.1992187,0 -0.41015621,0 -0.41015621,0.234375 0,0.234375 0.21093751,0.234375 0.41015621,0.234375 z m 0,0"
         style="fill:#000000;fill-opacity:1;fill-rule:nonzero;stroke:none" />
      <path
         id="path28"
         d="m 12.511039,-7.3670703 c 0.632813,0 1.03125,0.4570312 1.03125,1.3007812 0,0.9960938 -0.574219,1.2890625 -0.996094,1.2890625 -0.433593,0 -1.03125,-0.1640625 -1.3125,-0.5859375 0.292969,0 0.492188,-0.1757812 0.492188,-0.4453125 0,-0.2578125 -0.1875,-0.4335937 -0.445313,-0.4335937 -0.210937,0 -0.433593,0.1289062 -0.433593,0.4570312 0,0.75 0.808593,1.2421875 1.722656,1.2421875 1.054687,0 1.792969,-0.7265625 1.792969,-1.5234375 0,-0.6679687 -0.515625,-1.265625 -1.335938,-1.4414062 0.632813,-0.2226563 1.101563,-0.7734375 1.101563,-1.40625 0,-0.6328125 -0.714844,-1.0898437 -1.546875,-1.0898437 -0.855469,0 -1.5,0.4570312 -1.5,1.0664062 0,0.2929687 0.199218,0.421875 0.410156,0.421875 0.246094,0 0.410156,-0.1757813 0.410156,-0.4101563 0,-0.2929687 -0.257812,-0.3984375 -0.433594,-0.4101562 0.339844,-0.4335938 0.949219,-0.46875 1.089844,-0.46875 0.210938,0 0.808594,0.070312 0.808594,0.890625 0,0.5625 -0.222656,0.890625 -0.339844,1.0195312 -0.234375,0.2460938 -0.421875,0.2578125 -0.902344,0.2929688 -0.152343,0.011719 -0.222656,0.023437 -0.222656,0.1171875 0,0.1171875 0.07031,0.1171875 0.210938,0.1171875 z m 0,0"
         style="fill:#000000;fill-opacity:1;fill-rule:nonzero;stroke:none" />
    </g>
    <path
       id="path29"
       d="M 0,0 H 4.234"
       style="fill:none;stroke:#000000;stroke-width:0.478;stroke-linecap:butt;stroke-linejoin:miter;stroke-miterlimit:10;stroke-dasharray:none;stroke-opacity:1"
       transform="matrix(1.3333333,0,0,-1.3333333,310.19733,14.341333)" />
    <path
       id="path30"
       d="m 2.2514141,-1.6287422 c 0.1289062,-0.1171875 0.4570312,-0.375 0.5859375,-0.4921875 0.4921875,-0.4570312 0.9609375,-0.890625 0.9609375,-1.6171875 0,-0.9492187 -0.796875,-1.5585937 -1.7929688,-1.5585937 -0.9492187,0 -1.58203124,0.7265625 -1.58203124,1.4296875 0,0.3984375 0.31640625,0.4453125 0.421875,0.4453125 0.16406254,0 0.41015624,-0.1171875 0.41015624,-0.421875 0,-0.4101563 -0.39843749,-0.4101563 -0.49218749,-0.4101563 0.234375,-0.5859375 0.77343749,-0.7851562 1.16015629,-0.7851562 0.7382812,0 1.125,0.6328125 1.125,1.3007812 0,0.8320313 -0.5859375,1.4296875 -1.5234375,2.4023438 l -1.00781254,1.03124996 c -0.09375,0.09375 -0.09375,0.10546875 -0.09375,0.3046875025 H 3.5756328 L 3.7982891,-1.4295234 H 3.5521953 c -0.023437,0.1640625 -0.082031,0.56249996 -0.1757812,0.71484371 -0.046875,0.0585938 -0.65625,0.0585938 -0.7851563,0.0585938 H 1.1732891 Z m 0,0"
       style="fill:#000000;fill-opacity:1;fill-rule:nonzero;stroke:none"
       aria-label="2"
       transform="matrix(1.3333333,0,0,1.3333333,310.19733,23.824)" />
    <path
       id="path31"
       d="m -22.82861,124.72578 c 0,3.04764 -2.47054,5.51819 -5.51819,5.51819 -3.04765,0 -5.5182,-2.47055 -5.5182,-5.51819 0,-3.04765 2.47055,-5.5182 5.5182,-5.5182 3.04765,0 5.51819,2.47055 5.51819,5.5182 z"
       style="fill:none;stroke:#000000;stroke-width:1.41731;stroke-linecap:butt;stroke-linejoin:miter;stroke-miterlimit:10;stroke-dasharray:none;stroke-opacity:1"
       transform="matrix(1.3333333,0,0,-1.3333333,57.372,241.284)" />
    <g
       id="g31"
       aria-label="d&#10;3"
       transform="matrix(1.3333333,0,0,1.3333333,5.2026667,111.67467)">
      <path
         id="path32"
         d="m 6.0120625,-7.9913516 c 0.011719,-0.046875 0.035156,-0.1289062 0.035156,-0.1875 0,-0.1171875 -0.1171875,-0.1171875 -0.140625,-0.1171875 -0.011719,0 -0.5976563,0.046875 -0.65625,0.058594 -0.2109375,0.011719 -0.3867188,0.035156 -0.5976563,0.046875 -0.3046875,0.023437 -0.3867187,0.035156 -0.3867187,0.2578125 0,0.1171875 0.09375,0.1171875 0.2695312,0.1171875 0.5859375,0 0.5976563,0.1054687 0.5976563,0.2226562 0,0.070312 -0.023437,0.1757813 -0.035156,0.2109375 L 4.3597188,-4.4874453 C 4.2308125,-4.7921328 3.9144063,-5.2726016 3.2933125,-5.2726016 c -1.359375,0 -2.8125,1.7460938 -2.8125,3.515625 0,1.18359379 0.6914063,1.87500004 1.5,1.87500004 0.65625,0 1.21875,-0.515625 1.5585938,-0.90234375 0.1171875,0.703125 0.6796875,0.90234375 1.0429687,0.90234375 0.3515625,0 0.6445313,-0.2109375 0.8554688,-0.64453125 0.1875,-0.41015625 0.3632812,-1.13671879 0.3632812,-1.18359379 0,-0.058594 -0.046875,-0.1054687 -0.1171875,-0.1054687 -0.1171875,0 -0.1289062,0.058594 -0.1757812,0.234375 -0.1757813,0.71484374 -0.3984375,1.46484374 -0.890625,1.46484374 -0.3515625,0 -0.375,-0.31640625 -0.375,-0.55078125 0,-0.046875 0,-0.3046875 0.082031,-0.63281249 z M 3.598,-1.4171328 c -0.058594,0.1992187 -0.058594,0.2226562 -0.2226562,0.44531249 -0.2695313,0.33984375 -0.796875,0.85546875 -1.359375,0.85546875 -0.4804688,0 -0.7617188,-0.4453125 -0.7617188,-1.14843754 0,-0.65625 0.375,-1.9921875 0.5976563,-2.4960937 0.4101562,-0.84375 0.9726562,-1.265625 1.4414062,-1.265625 0.7851563,0 0.9375,0.9726562 0.9375,1.0664062 0,0.011719 -0.035156,0.1757813 -0.046875,0.1992188 z m 0,0"
         style="fill:#000000;fill-opacity:1;fill-rule:nonzero;stroke:none" />
      <path
         id="path33"
         d="m 9.0355,-12.482563 c 0.5039063,0 0.84375,0.339844 0.84375,0.949219 0,0.65625 -0.3867187,0.9375 -0.8320312,0.9375 -0.1523438,0 -0.7734375,-0.03516 -1.0429688,-0.375 0.234375,-0.02344 0.328125,-0.1875 0.328125,-0.339844 0,-0.210937 -0.140625,-0.339843 -0.3398437,-0.339843 -0.1640625,0 -0.3398438,0.09375 -0.3398438,0.351562 0,0.585938 0.65625,0.925781 1.4179688,0.925781 0.8789062,0 1.4765627,-0.574218 1.4765627,-1.160156 0,-0.433594 -0.339844,-0.902344 -1.042969,-1.078125 0.46875,-0.152344 0.855469,-0.539062 0.855469,-1.03125 0,-0.480469 -0.5625002,-0.832031 -1.277344,-0.832031 -0.703125,0 -1.2421875,0.316406 -1.2421875,0.808594 0,0.257812 0.1992188,0.328125 0.3164063,0.328125 0.1640625,0 0.328125,-0.105469 0.328125,-0.316407 0,-0.1875 -0.140625,-0.292968 -0.2929688,-0.316406 0.2695313,-0.304687 0.8203125,-0.304687 0.8671875,-0.304687 0.3046875,0 0.6914063,0.140625 0.6914063,0.632812 0,0.328125 -0.1875,0.902344 -0.7851563,0.9375 -0.1054687,0.01172 -0.2695312,0.02344 -0.3164062,0.02344 -0.058594,0 -0.1289063,0.01172 -0.1289063,0.105468 0,0.09375 0.070312,0.09375 0.1640625,0.09375 z m 0,0"
         style="fill:#000000;fill-opacity:1;fill-rule:nonzero;stroke:none" />
    </g>
    <path
       id="path34"
       d="M 0,0 H 3.653"
       style="fill:none;stroke:#000000;stroke-width:0.359;stroke-linecap:butt;stroke-linejoin:miter;stroke-miterlimit:10;stroke-dasharray:none;stroke-opacity:1"
       transform="matrix(1.3333333,0,0,-1.3333333,14.906667,99.358667)" />
    <g
       id="g34"
       aria-label="2&#10;m,n"
       transform="matrix(1.3333333,0,0,1.3333333,14.906667,106.184)">
      <path
         id="path35"
         d="M 3.210625,-1.1135859 H 2.9996875 c -0.023437,0.082031 -0.082031,0.46874996 -0.1640625,0.53906246 -0.046875,0.0351563 -0.5273437,0.0351563 -0.609375,0.0351563 h -1.125 L 1.8746875,-1.1604609 C 2.0739063,-1.3245234 2.60125,-1.6995234 2.78875,-1.8870234 c 0.1757813,-0.1757813 0.421875,-0.4804688 0.421875,-0.9023438 0,-0.75 -0.6679687,-1.1835937 -1.4765625,-1.1835937 -0.76171875,0 -1.30078125,0.5039062 -1.30078125,1.0664062 0,0.3046875 0.2578125,0.3398438 0.31640625,0.3398438 0.15234375,0 0.328125,-0.1054688 0.328125,-0.3164063 0,-0.140625 -0.0820313,-0.328125 -0.33984375,-0.328125 C 0.866875,-3.5159297 1.241875,-3.7385859 1.6520313,-3.7385859 c 0.6210937,0 0.9609375,0.46875 0.9609375,0.9492187 0,0.421875 -0.28125,0.8554688 -0.703125,1.2421875 L 0.491875,-0.24639844 c -0.0585938,0.0585938 -0.0585938,0.0585938 -0.0585938,0.2460937525 h 2.6015626 z m 0,0"
         style="fill:#000000;fill-opacity:1;fill-rule:nonzero;stroke:none" />
      <path
         id="path36"
         d="M 0.398125,4.0309453 C 0.4215625,3.9137578 0.50359375,3.6090703 0.52703125,3.4918828 0.55046875,3.4098516 0.59734375,3.2223516 0.6090625,3.1403203 0.6325,3.1051641 0.8903125,2.5895391 1.241875,2.3200078 1.5114063,2.1207891 1.7809375,2.0504766 2.0035938,2.0504766 c 0.2929687,0 0.4453125,0.1757812 0.4453125,0.5390625 0,0.1992187 -0.046875,0.375 -0.1289063,0.7382812 C 2.261406,3.5387578 2.1325,4.0661016 2.0739063,4.2887578 l -0.1171875,0.46875 c -0.035156,0.140625 -0.09375,0.375 -0.09375,0.421875 0,0.1757813 0.1523437,0.2460938 0.2578125,0.2460938 0.140625,0 0.2578125,-0.09375 0.3164062,-0.1992188 0.023437,-0.046875 0.09375,-0.3164062 0.1289063,-0.4804687 l 0.1875,-0.7148438 C 2.7770313,3.9137578 2.8473438,3.6090703 2.8707813,3.4918828 2.9879688,3.0700078 2.9879688,3.0582891 3.1754688,2.7887578 3.4332813,2.4020391 3.8082813,2.0504766 4.3473437,2.0504766 c 0.28125,0 0.4453125,0.1640625 0.4453125,0.5390625 0,0.4453125 -0.328125,1.359375 -0.4804687,1.7460937 -0.082031,0.1992188 -0.1054688,0.2578125 -0.1054688,0.4101563 0,0.4570312 0.375,0.6796875 0.7148438,0.6796875 0.7851562,0 1.1132812,-1.1132813 1.1132812,-1.21875 0,-0.082031 -0.070312,-0.1054688 -0.1171875,-0.1054688 -0.1054687,0 -0.1171875,0.058594 -0.140625,0.1289063 -0.1875,0.6679687 -0.5273437,0.9726562 -0.8320312,0.9726562 -0.1289063,0 -0.1875,-0.082031 -0.1875,-0.2695312 0,-0.1757813 0.058594,-0.3515625 0.140625,-0.5507813 0.1171875,-0.3046875 0.46875,-1.21875 0.46875,-1.6640625 0,-0.5976562 -0.4101563,-0.890625 -0.984375,-0.890625 -0.5507812,0 -1.0078125,0.2929688 -1.359375,0.7851563 C 2.9528125,1.9684453 2.4489063,1.8278203 2.0270313,1.8278203 c -0.3632813,0 -0.84375,0.1289063 -1.28906255,0.703125 C 0.679375,2.0504766 0.304375,1.8278203 -0.070625,1.8278203 c -0.28125,0 -0.48046875,0.1640625 -0.609375,0.4453125 -0.19921875,0.3632813 -0.28125,0.7617188 -0.28125,0.7734375 0,0.070312 0.0585938,0.1054688 0.12890625,0.1054688 0.09375,0 0.10546875,-0.035156 0.1640625,-0.234375 0.09375,-0.3984375 0.234375,-0.8671875 0.57421875,-0.8671875 0.2109375,0 0.2578125,0.1992187 0.2578125,0.375 0,0.140625 -0.046875,0.2929687 -0.10546875,0.5625 -0.0234375,0.058594 -0.140625,0.5273437 -0.17578125,0.6445312 l -0.29296875,1.1953125 c -0.0234375,0.1171875 -0.0703125,0.3164063 -0.0703125,0.3515625 0,0.1757813 0.140625,0.2460938 0.24609375,0.2460938 0.15234375,0 0.26953125,-0.09375 0.31640625,-0.1992188 C 0.116875,5.1793828 0.17546875,4.9098516 0.210625,4.7457891 Z m 7.3857422,1.1953125 c 0,0.515625 -0.1054688,0.9726563 -0.609375,1.4648438 -0.023437,0.023437 -0.046875,0.035156 -0.046875,0.082031 0,0.058594 0.070312,0.1054688 0.1289062,0.1054688 0.09375,0 0.75,-0.6210938 0.75,-1.5585938 0,-0.515625 -0.1875,-0.8554687 -0.5390625,-0.8554687 -0.28125,0 -0.4335937,0.2226562 -0.4335937,0.4335937 0,0.2226563 0.140625,0.4453125 0.4453125,0.4453125 0.1875,0 0.3046875,-0.1171875 0.3046875,-0.1171873 z M 10.238945,4.0309453 c 0.02344,-0.1171875 0.105469,-0.421875 0.128907,-0.5390625 0.105468,-0.421875 0.105468,-0.4335937 0.292968,-0.703125 0.257813,-0.3867187 0.632813,-0.7382812 1.171875,-0.7382812 0.28125,0 0.457032,0.1640625 0.457032,0.5390625 0,0.4453125 -0.339844,1.3476562 -0.492188,1.7460937 -0.105469,0.2578125 -0.105469,0.3046875 -0.105469,0.4101563 0,0.4570312 0.375,0.6796875 0.726563,0.6796875 0.773437,0 1.101562,-1.1132813 1.101562,-1.21875 0,-0.082031 -0.05859,-0.1054688 -0.117187,-0.1054688 -0.09375,0 -0.117188,0.058594 -0.140625,0.1289063 -0.1875,0.65625 -0.515625,0.9726562 -0.820313,0.9726562 -0.128906,0 -0.199218,-0.082031 -0.199218,-0.2695312 0,-0.1757813 0.07031,-0.3515625 0.152343,-0.5507813 0.117188,-0.3046875 0.46875,-1.21875 0.46875,-1.6640625 0,-0.5976562 -0.421875,-0.890625 -0.996093,-0.890625 -0.644532,0 -1.054688,0.3867188 -1.289063,0.6914063 -0.05859,-0.4335938 -0.398437,-0.6914063 -0.8085937,-0.6914063 -0.2929687,0 -0.4921875,0.1875 -0.609375,0.4335938 -0.1992187,0.375 -0.28125,0.7734375 -0.28125,0.7851562 0,0.070312 0.058594,0.1054688 0.1289063,0.1054688 0.09375,0 0.1054687,-0.035156 0.1640625,-0.234375 0.09375,-0.3984375 0.234375,-0.8671875 0.5742187,-0.8671875 0.2109375,0 0.2578122,0.1992187 0.2578122,0.375 0,0.140625 -0.046875,0.2929687 -0.1054684,0.5625 -0.023437,0.058594 -0.140625,0.5273437 -0.1757813,0.6445312 L 9.4303516,4.8278203 c -0.023437,0.1171875 -0.070312,0.3164063 -0.070312,0.3515625 0,0.1757813 0.140625,0.2460938 0.2460937,0.2460938 0.1523438,0 0.2695313,-0.09375 0.3164063,-0.1992188 0.035156,-0.046875 0.09375,-0.3164062 0.1289064,-0.4804687 z m 0,0"
         style="fill:#000000;fill-opacity:1;fill-rule:nonzero;stroke:none" />
    </g>
    <path
       id="path37"
       d="m -20.6261,68.03217 -7.7207,7.7207 -7.7207,-7.7207 7.7207,-7.72071 z"
       style="fill:#000000;fill-opacity:1;fill-rule:nonzero;stroke:#000000;stroke-width:0.3985;stroke-linecap:butt;stroke-linejoin:miter;stroke-miterlimit:10;stroke-dasharray:none;stroke-opacity:1"
       transform="matrix(1.3333333,0,0,-1.3333333,57.372,241.284)" />
    <g
       id="g37"
       aria-label="d&#10;1&#10;m,n"
       transform="matrix(1.3333333,0,0,1.3333333,5.2026667,183.12667)">
      <path
         id="path38"
         d="m 6.0120625,-7.9934375 c 0.011719,-0.046875 0.035156,-0.1289062 0.035156,-0.1875 0,-0.1171875 -0.1171875,-0.1171875 -0.140625,-0.1171875 -0.011719,0 -0.5976563,0.046875 -0.65625,0.058594 C 5.039406,-8.227812 4.8636247,-8.204375 4.6526872,-8.192656 4.348,-8.1692187 4.2659688,-8.1575 4.2659688,-7.9348437 c 0,0.1171875 0.09375,0.1171875 0.2695312,0.1171875 0.5859375,0 0.5976563,0.1054687 0.5976563,0.2226562 0,0.070312 -0.023437,0.1757813 -0.035156,0.2109375 L 4.3597188,-4.4895312 C 4.2308125,-4.7942187 3.9144063,-5.2746875 3.2933125,-5.2746875 c -1.359375,0 -2.8125,1.7460938 -2.8125,3.515625 0,1.18359375 0.6914063,1.875 1.5,1.875 0.65625,0 1.21875,-0.515625 1.5585938,-0.90234375 0.1171875,0.703125 0.6796875,0.90234375 1.0429687,0.90234375 0.3515625,0 0.6445313,-0.2109375 0.8554688,-0.64453125 0.1875,-0.41015625 0.3632812,-1.13671875 0.3632812,-1.18359375 0,-0.058594 -0.046875,-0.1054687 -0.1171875,-0.1054687 -0.1171875,0 -0.1289062,0.058594 -0.1757812,0.234375 -0.1757813,0.7148437 -0.3984375,1.4648437 -0.890625,1.4648437 -0.3515625,0 -0.375,-0.31640625 -0.375,-0.55078125 0,-0.046875 0,-0.3046875 0.082031,-0.63281245 z M 3.598,-1.4192187 C 3.5394063,-1.22 3.5394063,-1.1965625 3.3753438,-0.97390625 3.1058125,-0.6340625 2.5784688,-0.1184375 2.0159688,-0.1184375 1.5355,-0.1184375 1.25425,-0.56375 1.25425,-1.266875 c 0,-0.65625 0.375,-1.9921875 0.5976563,-2.4960937 0.4101562,-0.84375 0.9726562,-1.265625 1.4414062,-1.265625 0.7851563,0 0.9375,0.9726562 0.9375,1.0664062 0,0.011719 -0.035156,0.1757813 -0.046875,0.1992188 z m 0,0"
         style="fill:#000000;fill-opacity:1;fill-rule:nonzero;stroke:none" />
      <path
         id="path39"
         d="m 8.5901875,-9.4143359 c 0,-0.2226563 -0.023437,-0.2226563 -0.234375,-0.2226563 -0.328125,0.3164063 -0.75,0.5039063 -1.5117187,0.5039063 v 0.2695312 c 0.2226562,0 0.6445312,0 1.1132812,-0.2226562 v 4.0898437 c 0,0.2929688 -0.023437,0.3984375 -0.7851562,0.3984375 h -0.28125 v 0.2578125 c 0.328125,-0.023437 1.0195312,-0.023437 1.3710937,-0.023437 0.3632813,0 1.0546875,0 1.3828125,0.023437 v -0.2578125 h -0.28125 c -0.75,0 -0.7734375,-0.1054687 -0.7734375,-0.3984375 z m 0,0"
         style="fill:#000000;fill-opacity:1;fill-rule:nonzero;stroke:none" />
      <path
         id="path40"
         d="m 7.676125,1.6423047 c 0.023437,-0.1171875 0.1054688,-0.421875 0.1289063,-0.5390625 0.023437,-0.082031 0.070312,-0.26953126 0.082031,-0.35156251 0.023437,-0.0351563 0.28125,-0.55078125 0.6328125,-0.8203125 0.2695313,-0.19921875 0.5390625,-0.26953125 0.7617188,-0.26953125 0.2929687,0 0.4453125,0.17578125 0.4453125,0.5390625 0,0.19921875 -0.046875,0.375 -0.1289063,0.73828125 C 9.5394063,1.1501172 9.4105,1.6774609 9.3519063,1.9001172 l -0.1171875,0.46875 c -0.035156,0.140625 -0.09375,0.375 -0.09375,0.421875 0,0.1757812 0.1523437,0.2460937 0.2578125,0.2460937 0.140625,0 0.2578125,-0.09375 0.3164062,-0.1992187 0.023437,-0.046875 0.09375,-0.3164063 0.1289063,-0.4804688 L 10.031594,1.6423047 c 0.02344,-0.1171875 0.09375,-0.421875 0.117187,-0.5390625 0.117188,-0.42187501 0.117188,-0.43359376 0.304688,-0.70312501 0.257812,-0.38671875 0.632812,-0.73828125 1.171875,-0.73828125 0.28125,0 0.445312,0.1640625 0.445312,0.5390625 0,0.4453125 -0.328125,1.35937496 -0.480468,1.74609376 -0.08203,0.1992187 -0.105469,0.2578125 -0.105469,0.4101562 0,0.4570313 0.375,0.6796875 0.714844,0.6796875 0.785156,0 1.113281,-1.1132812 1.113281,-1.21875 0,-0.082031 -0.07031,-0.1054687 -0.117188,-0.1054687 -0.105468,0 -0.117187,0.058594 -0.140625,0.1289062 -0.1875,0.6679688 -0.527343,0.9726563 -0.832031,0.9726563 -0.128906,0 -0.1875,-0.082031 -0.1875,-0.2695313 0,-0.1757812 0.05859,-0.3515625 0.140625,-0.5507812 0.117188,-0.3046875 0.46875,-1.21875001 0.46875,-1.66406251 0,-0.59765625 -0.410156,-0.890625 -0.984375,-0.890625 -0.550781,0 -1.007812,0.29296875 -1.359375,0.78515625 -0.07031,-0.64453125 -0.5742187,-0.78515625 -0.9960937,-0.78515625 -0.3632813,0 -0.84375,0.12890625 -1.2890625,0.703125 -0.058594,-0.48046875 -0.4335938,-0.703125 -0.8085938,-0.703125 -0.28125,0 -0.4804687,0.1640625 -0.609375,0.4453125 -0.1992187,0.36328125 -0.28125,0.76171875 -0.28125,0.7734375 0,0.0703125 0.058594,0.10546875 0.1289063,0.10546875 0.09375,0 0.1054687,-0.0351563 0.1640625,-0.234375 0.09375,-0.3984375 0.234375,-0.8671875 0.5742187,-0.8671875 0.2109375,0 0.2578125,0.19921875 0.2578125,0.375 0,0.140625 -0.046875,0.29296875 -0.1054687,0.5625 C 7.3128438,0.65792969 7.1956563,1.1266797 7.1605,1.2438672 L 6.8675313,2.4391797 c -0.023437,0.1171875 -0.070312,0.3164062 -0.070312,0.3515625 0,0.1757812 0.140625,0.2460937 0.2460937,0.2460937 0.1523438,0 0.2695313,-0.09375 0.3164063,-0.1992187 0.035156,-0.046875 0.09375,-0.3164063 0.1289062,-0.4804688 z m 7.385742,1.1953125 c 0,0.515625 -0.105469,0.9726562 -0.609375,1.4648437 -0.02344,0.023437 -0.04687,0.035156 -0.04687,0.082031 0,0.058594 0.07031,0.1054687 0.128906,0.1054687 0.09375,0 0.75,-0.6210937 0.75,-1.5585937 0,-0.515625 -0.1875,-0.8554688 -0.539062,-0.8554688 -0.28125,0 -0.433594,0.2226563 -0.433594,0.4335938 0,0.2226562 0.140625,0.4453125 0.445313,0.4453125 0.1875,0 0.304687,-0.1171875 0.304687,-0.1171875 z m 2.455078,-1.1953125 c 0.02344,-0.1171875 0.105469,-0.421875 0.128907,-0.5390625 0.105468,-0.42187501 0.105468,-0.43359376 0.292968,-0.70312501 0.257813,-0.38671875 0.632813,-0.73828125 1.171875,-0.73828125 0.28125,0 0.457032,0.1640625 0.457032,0.5390625 0,0.4453125 -0.339844,1.34765626 -0.492188,1.74609376 -0.105469,0.2578125 -0.105469,0.3046875 -0.105469,0.4101562 0,0.4570313 0.375,0.6796875 0.726563,0.6796875 0.773437,0 1.101562,-1.1132812 1.101562,-1.21875 0,-0.082031 -0.05859,-0.1054687 -0.117187,-0.1054687 -0.09375,0 -0.117188,0.058594 -0.140625,0.1289062 -0.1875,0.65625 -0.515625,0.9726563 -0.820313,0.9726563 -0.128906,0 -0.199218,-0.082031 -0.199218,-0.2695313 0,-0.1757812 0.07031,-0.3515625 0.152343,-0.5507812 0.117188,-0.3046875 0.46875,-1.21875001 0.46875,-1.66406251 0,-0.59765625 -0.421875,-0.890625 -0.996093,-0.890625 -0.644532,0 -1.054688,0.38671875 -1.289063,0.69140625 -0.05859,-0.43359375 -0.398437,-0.69140625 -0.808594,-0.69140625 -0.292968,0 -0.492187,0.1875 -0.609375,0.43359375 -0.199218,0.375 -0.28125,0.7734375 -0.28125,0.78515625 0,0.0703125 0.05859,0.10546875 0.128907,0.10546875 0.09375,0 0.105468,-0.0351563 0.164062,-0.234375 0.09375,-0.3984375 0.234375,-0.8671875 0.574219,-0.8671875 0.210937,0 0.257812,0.19921875 0.257812,0.375 0,0.140625 -0.04687,0.29296875 -0.105468,0.5625 -0.02344,0.0585938 -0.140625,0.52734376 -0.175782,0.64453126 l -0.292968,1.1953125 c -0.02344,0.1171875 -0.07031,0.3164062 -0.07031,0.3515625 0,0.1757812 0.140625,0.2460937 0.246094,0.2460937 0.152344,0 0.269531,-0.09375 0.316406,-0.1992187 0.03516,-0.046875 0.09375,-0.3164063 0.128906,-0.4804688 z m 0,0"
         style="fill:#000000;fill-opacity:1;fill-rule:nonzero;stroke:none" />
    </g>
    <path
       id="path41"
       d="m 36.0675,28.3468 -7.7207,7.7207 -7.7207,-7.7207 7.7207,-7.7207 z"
       style="fill:#000000;fill-opacity:1;fill-rule:nonzero;stroke:#000000;stroke-width:0.3985;stroke-linecap:butt;stroke-linejoin:miter;stroke-miterlimit:10;stroke-dasharray:none;stroke-opacity:1"
       transform="matrix(1.3333333,0,0,-1.3333333,57.372,241.284)" />
    <path
       id="path42"
       d="M 24.34521,24.34521 10.23723,10.23723"
       style="fill:none;stroke:#808080;stroke-width:2.12599;stroke-linecap:butt;stroke-linejoin:miter;stroke-miterlimit:10;stroke-dasharray:none;stroke-opacity:1"
       transform="matrix(1.3333333,0,0,-1.3333333,57.372,241.284)" />
    <path
       id="path43"
       d="M 8.2508,0 C 5.80608,0.45836 1.8335,1.8335 -0.91675,3.43782 V -3.43782 C 1.8335,-1.8335 5.80608,-0.45836 8.2508,0"
       style="fill:#808080;fill-opacity:1;fill-rule:nonzero;stroke:none"
       transform="matrix(-0.9428,0.9428,0.9428,0.9428,71.02164,227.63436)" />
    <path
       id="path44"
       d="M 24.34521,32.34839 10.23723,46.45638"
       style="fill:none;stroke:#808080;stroke-width:2.12599;stroke-linecap:butt;stroke-linejoin:miter;stroke-miterlimit:10;stroke-dasharray:none;stroke-opacity:1"
       transform="matrix(1.3333333,0,0,-1.3333333,57.372,241.284)" />
    <path
       id="path45"
       d="M 8.2508,0 C 5.80608,0.45836 1.8335,1.8335 -0.91675,3.43782 V -3.43782 C 1.8335,-1.8335 5.80608,-0.45836 8.2508,0"
       style="fill:#808080;fill-opacity:1;fill-rule:nonzero;stroke:none"
       transform="matrix(-0.9428,-0.9428,-0.9428,0.9428,71.02164,179.34216)" />
    <path
       id="path46"
       d="M 32.34839,24.34521 46.45638,10.23723"
       style="fill:none;stroke:#808080;stroke-width:2.12599;stroke-linecap:butt;stroke-linejoin:miter;stroke-miterlimit:10;stroke-dasharray:none;stroke-opacity:1"
       transform="matrix(1.3333333,0,0,-1.3333333,57.372,241.284)" />
    <path
       id="path47"
       d="M 8.2508,0 C 5.80608,0.45836 1.8335,1.8335 -0.91675,3.43782 V -3.43782 C 1.8335,-1.8335 5.80608,-0.45836 8.2508,0"
       style="fill:#808080;fill-opacity:1;fill-rule:nonzero;stroke:none"
       transform="matrix(0.9428,0.9428,0.9428,-0.9428,119.31384,227.63436)" />
    <path
       id="path48"
       d="M 32.34839,32.34839 46.45638,46.45638"
       style="fill:none;stroke:#808080;stroke-width:2.12599;stroke-linecap:butt;stroke-linejoin:miter;stroke-miterlimit:10;stroke-dasharray:none;stroke-opacity:1"
       transform="matrix(1.3333333,0,0,-1.3333333,57.372,241.284)" />
    <path
       id="path49"
       d="M 8.2508,0 C 5.80608,0.45836 1.8335,1.8335 -0.91675,3.43782 V -3.43782 C 1.8335,-1.8335 5.80608,-0.45836 8.2508,0"
       style="fill:#808080;fill-opacity:1;fill-rule:nonzero;stroke:none"
       transform="matrix(0.9428,-0.9428,-0.9428,-0.9428,119.31384,179.34216)" />
    <path
       id="path50"
       d="m 92.76112,28.3468 -7.7207,7.7207 -7.7207,-7.7207 7.7207,-7.7207 z"
       style="fill:#000000;fill-opacity:1;fill-rule:nonzero;stroke:#000000;stroke-width:0.3985;stroke-linecap:butt;stroke-linejoin:miter;stroke-miterlimit:10;stroke-dasharray:none;stroke-opacity:1"
       transform="matrix(1.3333333,0,0,-1.3333333,57.372,241.284)" />
    <path
       id="path51"
       d="M 81.03883,24.34521 66.93085,10.23723"
       style="fill:none;stroke:#808080;stroke-width:2.12599;stroke-linecap:butt;stroke-linejoin:miter;stroke-miterlimit:10;stroke-dasharray:none;stroke-opacity:1"
       transform="matrix(1.3333333,0,0,-1.3333333,57.372,241.284)" />
    <path
       id="path52"
       d="M 8.2508,0 C 5.80608,0.45836 1.8335,1.8335 -0.91675,3.43782 V -3.43782 C 1.8335,-1.8335 5.80608,-0.45836 8.2508,0"
       style="fill:#808080;fill-opacity:1;fill-rule:nonzero;stroke:none"
       transform="matrix(-0.9428,0.9428,0.9428,0.9428,146.61313,227.63436)" />
    <path
       id="path53"
       d="M 81.03883,32.34839 66.93085,46.45638"
       style="fill:none;stroke:#808080;stroke-width:2.12599;stroke-linecap:butt;stroke-linejoin:miter;stroke-miterlimit:10;stroke-dasharray:none;stroke-opacity:1"
       transform="matrix(1.3333333,0,0,-1.3333333,57.372,241.284)" />
    <path
       id="path54"
       d="M 8.2508,0 C 5.80608,0.45836 1.8335,1.8335 -0.91675,3.43782 V -3.43782 C 1.8335,-1.8335 5.80608,-0.45836 8.2508,0"
       style="fill:#808080;fill-opacity:1;fill-rule:nonzero;stroke:none"
       transform="matrix(-0.9428,-0.9428,-0.9428,0.9428,146.61313,179.34216)" />
    <path
       id="path55"
       d="M 89.042,24.34521 103.15,10.23723"
       style="fill:none;stroke:#808080;stroke-width:2.12599;stroke-linecap:butt;stroke-linejoin:miter;stroke-miterlimit:10;stroke-dasharray:none;stroke-opacity:1"
       transform="matrix(1.3333333,0,0,-1.3333333,57.372,241.284)" />
    <path
       id="path56"
       d="M 8.2508,0 C 5.80608,0.45836 1.8335,1.8335 -0.91675,3.43782 V -3.43782 C 1.8335,-1.8335 5.80608,-0.45836 8.2508,0"
       style="fill:#808080;fill-opacity:1;fill-rule:nonzero;stroke:none"
       transform="matrix(0.9428,0.9428,0.9428,-0.9428,194.90533,227.63436)" />
    <path
       id="path57"
       d="M 89.042,32.34839 103.15,46.45638"
       style="fill:none;stroke:#808080;stroke-width:2.12599;stroke-linecap:butt;stroke-linejoin:miter;stroke-miterlimit:10;stroke-dasharray:none;stroke-opacity:1"
       transform="matrix(1.3333333,0,0,-1.3333333,57.372,241.284)" />
    <path
       id="path58"
       d="M 8.2508,0 C 5.80608,0.45836 1.8335,1.8335 -0.91675,3.43782 V -3.43782 C 1.8335,-1.8335 5.80608,-0.45836 8.2508,0"
       style="fill:#808080;fill-opacity:1;fill-rule:nonzero;stroke:none"
       transform="matrix(0.9428,-0.9428,-0.9428,-0.9428,194.90533,179.34216)" />
    <path
       id="path59"
       d="m 149.45474,28.3468 -7.7207,7.7207 -7.7207,-7.7207 7.7207,-7.7207 z"
       style="fill:#000000;fill-opacity:1;fill-rule:nonzero;stroke:#000000;stroke-width:0.3985;stroke-linecap:butt;stroke-linejoin:miter;stroke-miterlimit:10;stroke-dasharray:none;stroke-opacity:1"
       transform="matrix(1.3333333,0,0,-1.3333333,57.372,241.284)" />
    <path
       id="path60"
       d="M 137.73245,24.34521 123.62447,10.23723"
       style="fill:none;stroke:#808080;stroke-width:2.12599;stroke-linecap:butt;stroke-linejoin:miter;stroke-miterlimit:10;stroke-dasharray:none;stroke-opacity:1"
       transform="matrix(1.3333333,0,0,-1.3333333,57.372,241.284)" />
    <path
       id="path61"
       d="M 8.2508,0 C 5.80608,0.45836 1.8335,1.8335 -0.91675,3.43782 V -3.43782 C 1.8335,-1.8335 5.80608,-0.45836 8.2508,0"
       style="fill:#808080;fill-opacity:1;fill-rule:nonzero;stroke:none"
       transform="matrix(-0.9428,0.9428,0.9428,0.9428,222.20463,227.63436)" />
    <path
       id="path62"
       d="M 137.73245,32.34839 123.62447,46.45638"
       style="fill:none;stroke:#808080;stroke-width:2.12599;stroke-linecap:butt;stroke-linejoin:miter;stroke-miterlimit:10;stroke-dasharray:none;stroke-opacity:1"
       transform="matrix(1.3333333,0,0,-1.3333333,57.372,241.284)" />
    <path
       id="path63"
       d="M 8.2508,0 C 5.80608,0.45836 1.8335,1.8335 -0.91675,3.43782 V -3.43782 C 1.8335,-1.8335 5.80608,-0.45836 8.2508,0"
       style="fill:#808080;fill-opacity:1;fill-rule:nonzero;stroke:none"
       transform="matrix(-0.9428,-0.9428,-0.9428,0.9428,222.20463,179.34216)" />
    <path
       id="path64"
       d="M 145.73563,24.34521 159.84361,10.23723"
       style="fill:none;stroke:#808080;stroke-width:2.12599;stroke-linecap:butt;stroke-linejoin:miter;stroke-miterlimit:10;stroke-dasharray:none;stroke-opacity:1"
       transform="matrix(1.3333333,0,0,-1.3333333,57.372,241.284)" />
    <path
       id="path65"
       d="M 8.2508,0 C 5.80608,0.45836 1.8335,1.8335 -0.91675,3.43782 V -3.43782 C 1.8335,-1.8335 5.80608,-0.45836 8.2508,0"
       style="fill:#808080;fill-opacity:1;fill-rule:nonzero;stroke:none"
       transform="matrix(0.9428,0.9428,0.9428,-0.9428,270.49681,227.63436)" />
    <path
       id="path66"
       d="m 145.73563,32.34839 14.10798,14.10799"
       style="fill:none;stroke:#808080;stroke-width:2.12599;stroke-linecap:butt;stroke-linejoin:miter;stroke-miterlimit:10;stroke-dasharray:none;stroke-opacity:1"
       transform="matrix(1.3333333,0,0,-1.3333333,57.372,241.284)" />
    <path
       id="path67"
       d="M 8.2508,0 C 5.80608,0.45836 1.8335,1.8335 -0.91675,3.43782 V -3.43782 C 1.8335,-1.8335 5.80608,-0.45836 8.2508,0"
       style="fill:#808080;fill-opacity:1;fill-rule:nonzero;stroke:none"
       transform="matrix(0.9428,-0.9428,-0.9428,-0.9428,270.49681,179.34216)" />
    <path
       id="path68"
       d="m 36.0675,85.04042 -7.7207,7.7207 -7.7207,-7.7207 7.7207,-7.7207 z"
       style="fill:#000000;fill-opacity:1;fill-rule:nonzero;stroke:#000000;stroke-width:0.3985;stroke-linecap:butt;stroke-linejoin:miter;stroke-miterlimit:10;stroke-dasharray:none;stroke-opacity:1"
       transform="matrix(1.3333333,0,0,-1.3333333,57.372,241.284)" />
    <path
       id="path69"
       d="M 24.34521,81.03883 10.23723,66.93085"
       style="fill:none;stroke:#808080;stroke-width:2.12599;stroke-linecap:butt;stroke-linejoin:miter;stroke-miterlimit:10;stroke-dasharray:none;stroke-opacity:1"
       transform="matrix(1.3333333,0,0,-1.3333333,57.372,241.284)" />
    <path
       id="path70"
       d="M 8.2508,0 C 5.80608,0.45836 1.8335,1.8335 -0.91675,3.43782 V -3.43782 C 1.8335,-1.8335 5.80608,-0.45836 8.2508,0"
       style="fill:#808080;fill-opacity:1;fill-rule:nonzero;stroke:none"
       transform="matrix(-0.9428,0.9428,0.9428,0.9428,71.02164,152.04287)" />
    <path
       id="path71"
       d="M 24.34521,89.042 10.23723,103.15"
       style="fill:none;stroke:#808080;stroke-width:2.12599;stroke-linecap:butt;stroke-linejoin:miter;stroke-miterlimit:10;stroke-dasharray:none;stroke-opacity:1"
       transform="matrix(1.3333333,0,0,-1.3333333,57.372,241.284)" />
    <path
       id="path72"
       d="M 8.2508,0 C 5.80608,0.45836 1.8335,1.8335 -0.91675,3.43782 V -3.43782 C 1.8335,-1.8335 5.80608,-0.45836 8.2508,0"
       style="fill:#808080;fill-opacity:1;fill-rule:nonzero;stroke:none"
       transform="matrix(-0.9428,-0.9428,-0.9428,0.9428,71.02164,103.75067)" />
    <path
       id="path73"
       d="M 32.34839,81.03883 46.45638,66.93085"
       style="fill:none;stroke:#808080;stroke-width:2.12599;stroke-linecap:butt;stroke-linejoin:miter;stroke-miterlimit:10;stroke-dasharray:none;stroke-opacity:1"
       transform="matrix(1.3333333,0,0,-1.3333333,57.372,241.284)" />
    <path
       id="path74"
       d="M 8.2508,0 C 5.80608,0.45836 1.8335,1.8335 -0.91675,3.43782 V -3.43782 C 1.8335,-1.8335 5.80608,-0.45836 8.2508,0"
       style="fill:#808080;fill-opacity:1;fill-rule:nonzero;stroke:none"
       transform="matrix(0.9428,0.9428,0.9428,-0.9428,119.31384,152.04287)" />
    <path
       id="path75"
       d="M 32.34839,89.042 46.45638,103.15"
       style="fill:none;stroke:#808080;stroke-width:2.12599;stroke-linecap:butt;stroke-linejoin:miter;stroke-miterlimit:10;stroke-dasharray:none;stroke-opacity:1"
       transform="matrix(1.3333333,0,0,-1.3333333,57.372,241.284)" />
    <path
       id="path76"
       d="M 8.2508,0 C 5.80608,0.45836 1.8335,1.8335 -0.91675,3.43782 V -3.43782 C 1.8335,-1.8335 5.80608,-0.45836 8.2508,0"
       style="fill:#808080;fill-opacity:1;fill-rule:nonzero;stroke:none"
       transform="matrix(0.9428,-0.9428,-0.9428,-0.9428,119.31384,103.75067)" />
    <path
       id="path77"
       d="m 92.76112,85.04042 -7.7207,7.7207 -7.7207,-7.7207 7.7207,-7.7207 z"
       style="fill:#000000;fill-opacity:1;fill-rule:nonzero;stroke:#000000;stroke-width:0.3985;stroke-linecap:butt;stroke-linejoin:miter;stroke-miterlimit:10;stroke-dasharray:none;stroke-opacity:1"
       transform="matrix(1.3333333,0,0,-1.3333333,57.372,241.284)" />
    <path
       id="path78"
       d="M 81.03883,81.03883 66.93085,66.93085"
       style="fill:none;stroke:#808080;stroke-width:2.12599;stroke-linecap:butt;stroke-linejoin:miter;stroke-miterlimit:10;stroke-dasharray:none;stroke-opacity:1"
       transform="matrix(1.3333333,0,0,-1.3333333,57.372,241.284)" />
    <path
       id="path79"
       d="M 8.2508,0 C 5.80608,0.45836 1.8335,1.8335 -0.91675,3.43782 V -3.43782 C 1.8335,-1.8335 5.80608,-0.45836 8.2508,0"
       style="fill:#808080;fill-opacity:1;fill-rule:nonzero;stroke:none"
       transform="matrix(-0.9428,0.9428,0.9428,0.9428,146.61313,152.04287)" />
    <path
       id="path80"
       d="M 81.03883,89.042 66.93085,103.15"
       style="fill:none;stroke:#808080;stroke-width:2.12599;stroke-linecap:butt;stroke-linejoin:miter;stroke-miterlimit:10;stroke-dasharray:none;stroke-opacity:1"
       transform="matrix(1.3333333,0,0,-1.3333333,57.372,241.284)" />
    <path
       id="path81"
       d="M 8.2508,0 C 5.80608,0.45836 1.8335,1.8335 -0.91675,3.43782 V -3.43782 C 1.8335,-1.8335 5.80608,-0.45836 8.2508,0"
       style="fill:#808080;fill-opacity:1;fill-rule:nonzero;stroke:none"
       transform="matrix(-0.9428,-0.9428,-0.9428,0.9428,146.61313,103.75067)" />
    <path
       id="path82"
       d="M 89.042,81.03883 103.15,66.93085"
       style="fill:none;stroke:#808080;stroke-width:2.12599;stroke-linecap:butt;stroke-linejoin:miter;stroke-miterlimit:10;stroke-dasharray:none;stroke-opacity:1"
       transform="matrix(1.3333333,0,0,-1.3333333,57.372,241.284)" />
    <path
       id="path83"
       d="M 8.2508,0 C 5.80608,0.45836 1.8335,1.8335 -0.91675,3.43782 V -3.43782 C 1.8335,-1.8335 5.80608,-0.45836 8.2508,0"
       style="fill:#808080;fill-opacity:1;fill-rule:nonzero;stroke:none"
       transform="matrix(0.9428,0.9428,0.9428,-0.9428,194.90533,152.04287)" />
    <path
       id="path84"
       d="M 89.042,89.042 103.15,103.15"
       style="fill:none;stroke:#808080;stroke-width:2.12599;stroke-linecap:butt;stroke-linejoin:miter;stroke-miterlimit:10;stroke-dasharray:none;stroke-opacity:1"
       transform="matrix(1.3333333,0,0,-1.3333333,57.372,241.284)" />
    <path
       id="path85"
       d="M 8.2508,0 C 5.80608,0.45836 1.8335,1.8335 -0.91675,3.43782 V -3.43782 C 1.8335,-1.8335 5.80608,-0.45836 8.2508,0"
       style="fill:#808080;fill-opacity:1;fill-rule:nonzero;stroke:none"
       transform="matrix(0.9428,-0.9428,-0.9428,-0.9428,194.90533,103.75067)" />
    <path
       id="path86"
       d="m 149.45474,85.04042 -7.7207,7.7207 -7.7207,-7.7207 7.7207,-7.7207 z"
       style="fill:#000000;fill-opacity:1;fill-rule:nonzero;stroke:#000000;stroke-width:0.3985;stroke-linecap:butt;stroke-linejoin:miter;stroke-miterlimit:10;stroke-dasharray:none;stroke-opacity:1"
       transform="matrix(1.3333333,0,0,-1.3333333,57.372,241.284)" />
    <path
       id="path87"
       d="M 137.73245,81.03883 123.62447,66.93085"
       style="fill:none;stroke:#808080;stroke-width:2.12599;stroke-linecap:butt;stroke-linejoin:miter;stroke-miterlimit:10;stroke-dasharray:none;stroke-opacity:1"
       transform="matrix(1.3333333,0,0,-1.3333333,57.372,241.284)" />
    <path
       id="path88"
       d="M 8.2508,0 C 5.80608,0.45836 1.8335,1.8335 -0.91675,3.43782 V -3.43782 C 1.8335,-1.8335 5.80608,-0.45836 8.2508,0"
       style="fill:#808080;fill-opacity:1;fill-rule:nonzero;stroke:none"
       transform="matrix(-0.9428,0.9428,0.9428,0.9428,222.20463,152.04287)" />
    <path
       id="path89"
       d="M 137.73245,89.042 123.62447,103.15"
       style="fill:none;stroke:#808080;stroke-width:2.12599;stroke-linecap:butt;stroke-linejoin:miter;stroke-miterlimit:10;stroke-dasharray:none;stroke-opacity:1"
       transform="matrix(1.3333333,0,0,-1.3333333,57.372,241.284)" />
    <path
       id="path90"
       d="M 8.2508,0 C 5.80608,0.45836 1.8335,1.8335 -0.91675,3.43782 V -3.43782 C 1.8335,-1.8335 5.80608,-0.45836 8.2508,0"
       style="fill:#808080;fill-opacity:1;fill-rule:nonzero;stroke:none"
       transform="matrix(-0.9428,-0.9428,-0.9428,0.9428,222.20463,103.75067)" />
    <path
       id="path91"
       d="M 145.73563,81.03883 159.84361,66.93085"
       style="fill:none;stroke:#808080;stroke-width:2.12599;stroke-linecap:butt;stroke-linejoin:miter;stroke-miterlimit:10;stroke-dasharray:none;stroke-opacity:1"
       transform="matrix(1.3333333,0,0,-1.3333333,57.372,241.284)" />
    <path
       id="path92"
       d="M 8.2508,0 C 5.80608,0.45836 1.8335,1.8335 -0.91675,3.43782 V -3.43782 C 1.8335,-1.8335 5.80608,-0.45836 8.2508,0"
       style="fill:#808080;fill-opacity:1;fill-rule:nonzero;stroke:none"
       transform="matrix(0.9428,0.9428,0.9428,-0.9428,270.49681,152.04287)" />
    <path
       id="path93"
       d="m 145.73563,89.042 14.10798,14.108"
       style="fill:none;stroke:#808080;stroke-width:2.12599;stroke-linecap:butt;stroke-linejoin:miter;stroke-miterlimit:10;stroke-dasharray:none;stroke-opacity:1"
       transform="matrix(1.3333333,0,0,-1.3333333,57.372,241.284)" />
    <path
       id="path94"
       d="M 8.2508,0 C 5.80608,0.45836 1.8335,1.8335 -0.91675,3.43782 V -3.43782 C 1.8335,-1.8335 5.80608,-0.45836 8.2508,0"
       style="fill:#808080;fill-opacity:1;fill-rule:nonzero;stroke:none"
       transform="matrix(0.9428,-0.9428,-0.9428,-0.9428,270.49681,103.75067)" />
    <path
       id="path95"
       d="m 36.0675,141.73404 -7.7207,7.7207 -7.7207,-7.7207 7.7207,-7.7207 z"
       style="fill:#000000;fill-opacity:1;fill-rule:nonzero;stroke:#000000;stroke-width:0.3985;stroke-linecap:butt;stroke-linejoin:miter;stroke-miterlimit:10;stroke-dasharray:none;stroke-opacity:1"
       transform="matrix(1.3333333,0,0,-1.3333333,57.372,241.284)" />
    <path
       id="path96"
       d="M 24.34521,137.73245 10.23723,123.62447"
       style="fill:none;stroke:#808080;stroke-width:2.12599;stroke-linecap:butt;stroke-linejoin:miter;stroke-miterlimit:10;stroke-dasharray:none;stroke-opacity:1"
       transform="matrix(1.3333333,0,0,-1.3333333,57.372,241.284)" />
    <path
       id="path97"
       d="M 8.2508,0 C 5.80608,0.45836 1.8335,1.8335 -0.91675,3.43782 V -3.43782 C 1.8335,-1.8335 5.80608,-0.45836 8.2508,0"
       style="fill:#808080;fill-opacity:1;fill-rule:nonzero;stroke:none"
       transform="matrix(-0.9428,0.9428,0.9428,0.9428,71.02164,76.451373)" />
    <path
       id="path98"
       d="M 24.34521,145.73563 10.23723,159.84361"
       style="fill:none;stroke:#808080;stroke-width:2.12599;stroke-linecap:butt;stroke-linejoin:miter;stroke-miterlimit:10;stroke-dasharray:none;stroke-opacity:1"
       transform="matrix(1.3333333,0,0,-1.3333333,57.372,241.284)" />
    <path
       id="path99"
       d="M 8.2508,0 C 5.80608,0.45836 1.8335,1.8335 -0.91675,3.43782 V -3.43782 C 1.8335,-1.8335 5.80608,-0.45836 8.2508,0"
       style="fill:#808080;fill-opacity:1;fill-rule:nonzero;stroke:none"
       transform="matrix(-0.9428,-0.9428,-0.9428,0.9428,71.02164,28.159187)" />
    <path
       id="path100"
       d="M 32.34839,137.73245 46.45638,123.62447"
       style="fill:none;stroke:#808080;stroke-width:2.12599;stroke-linecap:butt;stroke-linejoin:miter;stroke-miterlimit:10;stroke-dasharray:none;stroke-opacity:1"
       transform="matrix(1.3333333,0,0,-1.3333333,57.372,241.284)" />
    <path
       id="path101"
       d="M 8.2508,0 C 5.80608,0.45836 1.8335,1.8335 -0.91675,3.43782 V -3.43782 C 1.8335,-1.8335 5.80608,-0.45836 8.2508,0"
       style="fill:#808080;fill-opacity:1;fill-rule:nonzero;stroke:none"
       transform="matrix(0.9428,0.9428,0.9428,-0.9428,119.31384,76.451373)" />
    <path
       id="path102"
       d="m 32.34839,145.73563 14.10799,14.10798"
       style="fill:none;stroke:#808080;stroke-width:2.12599;stroke-linecap:butt;stroke-linejoin:miter;stroke-miterlimit:10;stroke-dasharray:none;stroke-opacity:1"
       transform="matrix(1.3333333,0,0,-1.3333333,57.372,241.284)" />
    <path
       id="path103"
       d="M 8.2508,0 C 5.80608,0.45836 1.8335,1.8335 -0.91675,3.43782 V -3.43782 C 1.8335,-1.8335 5.80608,-0.45836 8.2508,0"
       style="fill:#808080;fill-opacity:1;fill-rule:nonzero;stroke:none"
       transform="matrix(0.9428,-0.9428,-0.9428,-0.9428,119.31384,28.159187)" />
    <path
       id="path104"
       d="m 92.76112,141.73404 -7.7207,7.7207 -7.7207,-7.7207 7.7207,-7.7207 z"
       style="fill:#000000;fill-opacity:1;fill-rule:nonzero;stroke:#000000;stroke-width:0.3985;stroke-linecap:butt;stroke-linejoin:miter;stroke-miterlimit:10;stroke-dasharray:none;stroke-opacity:1"
       transform="matrix(1.3333333,0,0,-1.3333333,57.372,241.284)" />
    <path
       id="path105"
       d="M 81.03883,137.73245 66.93085,123.62447"
       style="fill:none;stroke:#808080;stroke-width:2.12599;stroke-linecap:butt;stroke-linejoin:miter;stroke-miterlimit:10;stroke-dasharray:none;stroke-opacity:1"
       transform="matrix(1.3333333,0,0,-1.3333333,57.372,241.284)" />
    <path
       id="path106"
       d="M 8.2508,0 C 5.80608,0.45836 1.8335,1.8335 -0.91675,3.43782 V -3.43782 C 1.8335,-1.8335 5.80608,-0.45836 8.2508,0"
       style="fill:#808080;fill-opacity:1;fill-rule:nonzero;stroke:none"
       transform="matrix(-0.9428,0.9428,0.9428,0.9428,146.61313,76.451373)" />
    <path
       id="path107"
       d="M 81.03883,145.73563 66.93085,159.84361"
       style="fill:none;stroke:#808080;stroke-width:2.12599;stroke-linecap:butt;stroke-linejoin:miter;stroke-miterlimit:10;stroke-dasharray:none;stroke-opacity:1"
       transform="matrix(1.3333333,0,0,-1.3333333,57.372,241.284)" />
    <path
       id="path108"
       d="M 8.2508,0 C 5.80608,0.45836 1.8335,1.8335 -0.91675,3.43782 V -3.43782 C 1.8335,-1.8335 5.80608,-0.45836 8.2508,0"
       style="fill:#808080;fill-opacity:1;fill-rule:nonzero;stroke:none"
       transform="matrix(-0.9428,-0.9428,-0.9428,0.9428,146.61313,28.159187)" />
    <path
       id="path109"
       d="M 89.042,137.73245 103.15,123.62447"
       style="fill:none;stroke:#808080;stroke-width:2.12599;stroke-linecap:butt;stroke-linejoin:miter;stroke-miterlimit:10;stroke-dasharray:none;stroke-opacity:1"
       transform="matrix(1.3333333,0,0,-1.3333333,57.372,241.284)" />
    <path
       id="path110"
       d="M 8.2508,0 C 5.80608,0.45836 1.8335,1.8335 -0.91675,3.43782 V -3.43782 C 1.8335,-1.8335 5.80608,-0.45836 8.2508,0"
       style="fill:#808080;fill-opacity:1;fill-rule:nonzero;stroke:none"
       transform="matrix(0.9428,0.9428,0.9428,-0.9428,194.90533,76.451373)" />
    <path
       id="path111"
       d="m 89.042,145.73563 14.108,14.10798"
       style="fill:none;stroke:#808080;stroke-width:2.12599;stroke-linecap:butt;stroke-linejoin:miter;stroke-miterlimit:10;stroke-dasharray:none;stroke-opacity:1"
       transform="matrix(1.3333333,0,0,-1.3333333,57.372,241.284)" />
    <path
       id="path112"
       d="M 8.2508,0 C 5.80608,0.45836 1.8335,1.8335 -0.91675,3.43782 V -3.43782 C 1.8335,-1.8335 5.80608,-0.45836 8.2508,0"
       style="fill:#808080;fill-opacity:1;fill-rule:nonzero;stroke:none"
       transform="matrix(0.9428,-0.9428,-0.9428,-0.9428,194.90533,28.159187)" />
    <path
       id="path113"
       d="m 149.45474,141.73404 -7.7207,7.7207 -7.7207,-7.7207 7.7207,-7.7207 z"
       style="fill:#000000;fill-opacity:1;fill-rule:nonzero;stroke:#000000;stroke-width:0.3985;stroke-linecap:butt;stroke-linejoin:miter;stroke-miterlimit:10;stroke-dasharray:none;stroke-opacity:1"
       transform="matrix(1.3333333,0,0,-1.3333333,57.372,241.284)" />
    <path
       id="path114"
       d="M 137.73245,137.73245 123.62447,123.62447"
       style="fill:none;stroke:#808080;stroke-width:2.12599;stroke-linecap:butt;stroke-linejoin:miter;stroke-miterlimit:10;stroke-dasharray:none;stroke-opacity:1"
       transform="matrix(1.3333333,0,0,-1.3333333,57.372,241.284)" />
    <path
       id="path115"
       d="M 8.2508,0 C 5.80608,0.45836 1.8335,1.8335 -0.91675,3.43782 V -3.43782 C 1.8335,-1.8335 5.80608,-0.45836 8.2508,0"
       style="fill:#808080;fill-opacity:1;fill-rule:nonzero;stroke:none"
       transform="matrix(-0.9428,0.9428,0.9428,0.9428,222.20463,76.451373)" />
    <path
       id="path116"
       d="m 137.73245,145.73563 -14.10798,14.10798"
       style="fill:none;stroke:#808080;stroke-width:2.12599;stroke-linecap:butt;stroke-linejoin:miter;stroke-miterlimit:10;stroke-dasharray:none;stroke-opacity:1"
       transform="matrix(1.3333333,0,0,-1.3333333,57.372,241.284)" />
    <path
       id="path117"
       d="M 8.2508,0 C 5.80608,0.45836 1.8335,1.8335 -0.91675,3.43782 V -3.43782 C 1.8335,-1.8335 5.80608,-0.45836 8.2508,0"
       style="fill:#808080;fill-opacity:1;fill-rule:nonzero;stroke:none"
       transform="matrix(-0.9428,-0.9428,-0.9428,0.9428,222.20463,28.159187)" />
    <path
       id="path118"
       d="m 145.73563,137.73245 14.10798,-14.10798"
       style="fill:none;stroke:#808080;stroke-width:2.12599;stroke-linecap:butt;stroke-linejoin:miter;stroke-miterlimit:10;stroke-dasharray:none;stroke-opacity:1"
       transform="matrix(1.3333333,0,0,-1.3333333,57.372,241.284)" />
    <path
       id="path119"
       d="M 8.2508,0 C 5.80608,0.45836 1.8335,1.8335 -0.91675,3.43782 V -3.43782 C 1.8335,-1.8335 5.80608,-0.45836 8.2508,0"
       style="fill:#808080;fill-opacity:1;fill-rule:nonzero;stroke:none"
       transform="matrix(0.9428,0.9428,0.9428,-0.9428,270.49681,76.451373)" />
    <path
       id="path120"
       d="m 145.73563,145.73563 14.10798,14.10798"
       style="fill:none;stroke:#808080;stroke-width:2.12599;stroke-linecap:butt;stroke-linejoin:miter;stroke-miterlimit:10;stroke-dasharray:none;stroke-opacity:1"
       transform="matrix(1.3333333,0,0,-1.3333333,57.372,241.284)" />
    <path
       id="path121"
       d="M 8.2508,0 C 5.80608,0.45836 1.8335,1.8335 -0.91675,3.43782 V -3.43782 C 1.8335,-1.8335 5.80608,-0.45836 8.2508,0"
       style="fill:#808080;fill-opacity:1;fill-rule:nonzero;stroke:none"
       transform="matrix(0.9428,-0.9428,-0.9428,-0.9428,270.49681,28.159187)" />
    <path
       id="path122"
       d="m 3.4462188,-7.6643125 c 0,-0.2695312 0,-0.28125 -0.2460938,-0.28125 -0.28125,0.3164063 -0.8789062,0.7617188 -2.109375,0.7617188 v 0.3515625 c 0.2695313,0 0.8671875,0 1.5234375,-0.3164063 v 6.22265625 c 0,0.43359375 -0.035156,0.57421875 -1.078125,0.57421875 h -0.375 V -2.5e-4 c 0.3164063,-0.0234375 1.4765625,-0.0234375 1.875,-0.0234375 0.3984375,0 1.546875,0 1.8632813,0.0234375 V -0.3518125 H 4.5360625 c -1.0546875,0 -1.0898437,-0.140625 -1.0898437,-0.57421875 z m 0,0"
       style="fill:#000000;fill-opacity:1;fill-rule:nonzero;stroke:none"
       aria-label="1"
       transform="matrix(1.3333333,0,0,1.3333333,284.17067,208.62533)" />
    <path
       id="path123"
       d="m 5.356375,-3.8199453 c 0,-0.9960938 -0.058594,-1.96875 -0.4921875,-2.8710938 C 4.372,-7.6871328 3.5165313,-7.9449453 2.9305938,-7.9449453 c -0.6914063,0 -1.546875,0.3398437 -1.9804688,1.3359375 -0.33984375,0.75 -0.45703125,1.4882812 -0.45703125,2.7890625 0,1.1601562 0.0820313,2.0273437 0.51562505,2.87109374 0.4570312,0.9140625 1.2890625,1.1953125 1.9101562,1.1953125 1.0429688,0 1.640625,-0.62109375 1.9804688,-1.31250004 0.4335937,-0.890625 0.4570312,-2.0625 0.4570312,-2.7539062 z m -2.4375,3.83203124 c -0.3867187,0 -1.1601562,-0.2109375 -1.3828125,-1.52343754 -0.140625,-0.7148437 -0.140625,-1.6171875 -0.140625,-2.4609375 0,-0.9726562 0,-1.8632812 0.1992188,-2.5664062 0.1992187,-0.796875 0.8085937,-1.171875 1.3242187,-1.171875 0.4570313,0 1.1484375,0.28125 1.3710938,1.3007812 0.1523437,0.6796875 0.1523437,1.6289063 0.1523437,2.4375 0,0.8085938 0,1.7109375 -0.1289062,2.4375 C 4.09075,-0.21057031 3.34075,0.01208594 2.918875,0.01208594 Z m 0,0"
       style="fill:#000000;fill-opacity:1;fill-rule:nonzero;stroke:none"
       aria-label="0"
       transform="matrix(1.3333333,0,0,1.3333333,284.17067,133.03467)" />
    <g
       id="g123"
       aria-label="−1"
       transform="matrix(1.3333333,0,0,1.3333333,274.04267,56.78)">
      <path
         id="path124"
         d="m 7.8752266,-2.7529687 c 0.2109375,0 0.421875,0 0.421875,-0.234375 0,-0.234375 -0.2109375,-0.234375 -0.421875,-0.234375 h -6.46875 c -0.1992188,0 -0.41015629,0 -0.41015629,0.234375 0,0.234375 0.21093749,0.234375 0.41015629,0.234375 z m 0,0"
         style="fill:#000000;fill-opacity:1;fill-rule:nonzero;stroke:none" />
      <path
         id="path125"
         d="m 12.744367,-7.663125 c 0,-0.2695312 0,-0.28125 -0.246094,-0.28125 -0.28125,0.3164063 -0.878906,0.7617188 -2.109375,0.7617188 v 0.3515625 c 0.269532,0 0.867188,0 1.523438,-0.3164063 v 6.22265625 c 0,0.43359375 -0.03516,0.57421875 -1.078125,0.57421875 h -0.375 V 9.375e-4 C 10.775617,-0.0225 11.935773,-0.0225 12.334211,-0.0225 c 0.398437,0 1.546875,0 1.863281,0.0234375 V -0.350625 h -0.363281 c -1.054688,0 -1.089844,-0.140625 -1.089844,-0.57421875 z m 0,0"
         style="fill:#000000;fill-opacity:1;fill-rule:nonzero;stroke:none" />
    </g>
    <path
       style="fill:#ffffff;fill-opacity:0;stroke:#000000;stroke-width:3;stroke-linejoin:round;stroke-dasharray:3, 6;stroke-opacity:1"
       d="m 149.25928,128.13337 17.5768,-16.61425 70.23718,0.005 12.68563,-0.23208 45.8134,45.69371 -0.28963,18.23205 -27.46658,21.21492 0.35923,13.75961 29.24952,25.1363 0.12207,18.67686 -21.39812,-0.0921 z"
       id="path126"
       sodipodi:nodetypes="cccccccccccc" />
    <path
       style="fill:none;stroke:#000000;stroke-width:3;stroke-linejoin:round;stroke-dasharray:3, 6;stroke-opacity:1"
       d="M 11.785058,268.69091 H 71.655152 Z"
       id="path127" />
    <text
       xml:space="preserve"
       style="font-weight:200;font-size:53.3333px;font-family:'DejaVu Sans';-inkscape-font-specification:'DejaVu Sans, Ultra-Light';writing-mode:lr-tb;direction:ltr;fill:#000000;fill-opacity:1;stroke:#000000;stroke-width:0;stroke-linejoin:round;stroke-dasharray:none;stroke-opacity:1"
       x="81.709671"
       y="272.80411"
       id="text130"><tspan
         sodipodi:role="line"
         id="tspan130"
         x="81.709671"
         y="272.80411"
         style="font-style:normal;font-variant:normal;font-weight:normal;font-stretch:normal;font-size:16px;font-family:Sans;-inkscape-font-specification:'Sans, Normal';font-variant-ligatures:normal;font-variant-caps:normal;font-variant-numeric:normal;font-variant-east-asian:normal;stroke-width:0;stroke-dasharray:none">Non-symmetric part</tspan></text>
  </g>
</svg>
